SplineFontDB: 1.0
FontName: FreeSansBold
FullName: Free Sans Bold
FamilyName: FreeSans
Weight: Bold
Copyright: Copyright 2002 Free Software Foundation.
Version: 1.06
ItalicAngle: 0
UnderlinePosition: -155
UnderlineWidth: 69
Ascent: 800
Descent: 200
FSType: 0
PfmFamily: 33
TTFWeight: 700
TTFWidth: 5
Panose: 2 0 8 3 0 0 0 0 0 0LineGap: 90
VLineGap: 0

Encoding: unicode
DisplaySize: -36
AntiAlias: 1
BeginPrivate: 8
UniqueID 7 5020904
BlueValues 31 [-23 0 540 560 729 749 701 724]
BlueScale 8 0.039625
StdHW 5 [118]
StdVW 5 [141]
StemSnapH 200 [106 114 118 127] 
systemdict /internaldict known
{1183615869 systemdict /internaldict get exec
/StemSnapLength 2 copy known { get 4 lt } { pop pop true } ifelse }
{ true } ifelse { pop [118 127] } if
StemSnapV 9 [141 151]
ForceBold 5 false
EndPrivate
BeginChars: 65536 642
StartChar: exclam
Encoding: 33 33
Width: 333
Flags: MW
HStem: 0 146<112 262>
VStem: 112 150<0 146 516 726>
Fore
262 726 m 1
 262 516 l 1
 220 207 l 1
 153 207 l 1
 112 516 l 1
 112 726 l 1
 262 726 l 1
262 146 m 1
 262 0 l 1
 112 0 l 1
 112 146 l 1
 262 146 l 1
EndSplineSet
EndChar
StartChar: quotedbl
Encoding: 34 34
Width: 474
Flags: MW
HStem: 470 259<90 146 90 90 326 326 326 382>
VStem: 50 138<599 729> 286 138<599 729>
Fore
188 729 m 1
 188 599 l 1
 146 470 l 1
 90 470 l 1
 50 599 l 1
 50 729 l 1
 188 729 l 1
424 729 m 1
 424 599 l 1
 382 470 l 1
 326 470 l 1
 286 599 l 1
 286 729 l 1
 424 729 l 1
EndSplineSet
EndChar
StartChar: numbersign
Encoding: 35 35
Width: 556
Flags: MW
HStem: 172 99<3 80 205 289 413 513> 424 99<31 130 255 338 463 553>
Fore
146 -32 m 1
 40 -32 l 1
 80 172 l 1
 3 172 l 1
 3 271 l 1
 100 271 l 1
 130 424 l 1
 31 424 l 1
 31 523 l 1
 150 523 l 1
 184 697 l 1
 289 697 l 1
 255 523 l 1
 358 523 l 1
 392 697 l 1
 497 697 l 1
 463 523 l 1
 553 523 l 1
 553 424 l 1
 444 424 l 1
 413 271 l 1
 513 271 l 1
 513 172 l 1
 394 172 l 1
 354 -32 l 1
 249 -32 l 1
 289 172 l 1
 186 172 l 1
 146 -32 l 1
205 271 m 1
 308 271 l 1
 338 424 l 1
 235 424 l 1
 205 271 l 1
EndSplineSet
EndChar
StartChar: dollar
Encoding: 36 36
Width: 556
Flags: MW
VStem: 39 123<494 541.5> 243 68<-126 -21 86 282 427 608 709 763> 395 132<158 207>
Fore
517 498 m 1
 389 498 l 1
 391 559 362 601 311 608 c 1
 311 407 l 1
 466 364 527 305 527 195 c 0
 527 120 495 55 441 20 c 0
 408 -1 366 -15 311 -21 c 1
 311 -126 l 1
 243 -126 l 1
 243 -21 l 1
 183 -15 146 -2 108 25 c 0
 52 65 22 125 22 198 c 2
 22 207 l 1
 153 207 l 1
 156 137 187 96 243 86 c 1
 243 299 l 1
 108 330 39 401 39 512 c 0
 39 624 114 697 243 709 c 1
 243 763 l 1
 311 763 l 1
 311 709 l 1
 437 702 515 623 517 498 c 1
243 427 m 1
 243 608 l 1
 188 597 162 567 162 516 c 0
 162 472 187 445 243 427 c 1
311 282 m 1
 311 86 l 1
 367 100 395 133 395 183 c 0
 395 231 367 265 311 282 c 1
EndSplineSet
EndChar
StartChar: percent
Encoding: 37 37
Width: 889
Flags: W
HStem: -20 20 -13 98<655.5 702> 253 99<655.5 702.5> 337 98<182.5 229> 602 99<182.5 229.5>
VStem: 22 99<496 541.5> 291 99<495.5 541.5> 495 99<146 192> 764 99<145.5 191.5>
Fore
206 701 m 0
 309 701 390 620 390 517 c 0
 390 419 306 337 206 337 c 0
 105 337 22 419 22 519 c 0
 22 619 105 701 206 701 c 0
206 602 m 0
 159 602 121 564 121 519 c 0
 121 473 159 435 206 435 c 0
 252 435 291 473 291 518 c 0
 291 565 253 602 206 602 c 0
606 709 m 1
 682 709 l 1
 287 -20 l 1
 210 -20 l 1
 606 709 l 1
679 352 m 0
 782 352 863 271 863 167 c 0
 863 69 779 -13 679 -13 c 0
 578 -13 495 69 495 170 c 0
 495 270 578 352 679 352 c 0
679 253 m 0
 632 253 594 215 594 169 c 0
 594 123 632 85 679 85 c 0
 725 85 764 123 764 168 c 0
 764 215 726 253 679 253 c 0
EndSplineSet
EndChar
StartChar: ampersand
Encoding: 38 38
Width: 722
Flags: W
HStem: -23 116<267 309.5> 614 109<303 338>
VStem: 55 133<180 226.5> 130 132<553.5 580> 377 120<538.5 574.5>
Fore
526 373 m 1
 639 373 l 1
 639 362 l 1
 639 357 l 1
 637 281 611 200 571 154 c 1
 694 0 l 1
 533 0 l 1
 487 56 l 1
 406 -5 360 -23 292 -23 c 0
 150 -23 55 63 55 193 c 0
 55 287 95 340 212 401 c 1
 206 409 202 414 200 416 c 2
 172 450 l 2
 144 483 130 519 130 556 c 0
 130 650 212 723 319 723 c 0
 426 723 497 661 497 568 c 0
 497 496 469 453 380 392 c 1
 496 248 l 1
 518 290 526 320 526 363 c 2
 526 373 l 1
278 319 m 1
 231 290 l 2
 204 272 188 243 188 210 c 0
 188 150 240 93 294 93 c 0
 325 93 367 112 414 148 c 1
 278 319 l 1
317 470 m 1
 357 492 377 521 377 556 c 0
 377 593 356 614 320 614 c 0
 286 614 262 594 262 566 c 0
 262 541 267 533 317 470 c 1
EndSplineSet
EndChar
StartChar: quotesingle
Encoding: 39 39
Width: 238
Flags: MW
HStem: 470 259<90 146 90 90>
VStem: 50 138<599 729>
Fore
188 729 m 1
 188 599 l 1
 146 470 l 1
 90 470 l 1
 50 599 l 1
 50 729 l 1
 188 729 l 1
EndSplineSet
EndChar
StartChar: parenleft
Encoding: 40 40
Width: 333
Flags: MW
HStem: 709 20<203 303 303 303>
VStem: 40 123<191.5 338>
Fore
203 729 m 1
 303 729 l 1
 197 525 163 411 163 265 c 0
 163 118 197 6 303 -200 c 1
 203 -200 l 1
 88 -27 40 111 40 265 c 0
 40 418 88 556 203 729 c 1
EndSplineSet
EndChar
StartChar: parenright
Encoding: 41 41
Width: 333
Flags: MW
HStem: 709 20<22 122 122 122>
VStem: 162 123<191 337.5>
Fore
122 -200 m 1
 22 -200 l 1
 128 4 162 118 162 264 c 0
 162 411 128 523 22 729 c 1
 122 729 l 1
 237 556 285 418 285 264 c 0
 285 111 237 -27 122 -200 c 1
EndSplineSet
EndChar
StartChar: asterisk
Encoding: 42 42
Width: 389
Flags: MW
HStem: 709 20<154 226 226 226>
VStem: 154 72<613 729>
Fore
132 544 m 1
 23 580 l 1
 45 649 l 1
 154 613 l 1
 154 729 l 1
 226 729 l 1
 226 613 l 1
 335 649 l 1
 357 579 l 1
 248 544 l 1
 315 450 l 1
 257 407 l 1
 190 501 l 1
 123 407 l 1
 65 450 l 1
 132 544 l 1
EndSplineSet
EndChar
StartChar: plus
Encoding: 43 43
Width: 584
Flags: MW
HStem: -10 20 172 119<50 232 351 533>
VStem: 232 119<-10 172 291 473>
Fore
533 291 m 1
 533 172 l 1
 351 172 l 1
 351 -10 l 1
 232 -10 l 1
 232 172 l 1
 50 172 l 1
 50 291 l 1
 232 291 l 1
 232 473 l 1
 351 473 l 1
 351 291 l 1
 533 291 l 1
EndSplineSet
EndChar
StartChar: comma
Encoding: 44 44
Width: 278
Flags: MW
HStem: 0 146<64 150>
VStem: 64 150<0 9 9 146>
Fore
64 146 m 1
 214 146 l 1
 214 9 l 2
 214 -69 200 -106 160 -137 c 0
 133 -158 105 -169 64 -174 c 1
 64 -118 l 1
 123 -106 150 -71 150 -3 c 2
 150 0 l 1
 64 0 l 1
 64 146 l 1
EndSplineSet
EndChar
StartChar: hyphen
Encoding: 45 45
Width: 333
Flags: MW
HStem: 207 135<26 298>
Fore
298 342 m 1
 298 207 l 1
 26 207 l 1
 26 342 l 1
 298 342 l 1
EndSplineSet
EndChar
StartChar: period
Encoding: 46 46
Width: 278
Flags: MW
HStem: 0 146<64 214>
VStem: 64 150<0 146>
Fore
214 146 m 1
 214 0 l 1
 64 0 l 1
 64 146 l 1
 214 146 l 1
EndSplineSet
EndChar
StartChar: slash
Encoding: 47 47
Width: 278
Flags: MW
HStem: -14 20
Fore
208 714 m 1
 275 714 l 1
 69 -14 l 1
 2 -14 l 1
 208 714 l 1
EndSplineSet
EndChar
StartChar: zero
Encoding: 48 48
Width: 556
Flags: MW
HStem: -23 120<254.5 293> 611 113<253 291>
VStem: 29 140<304 392.5> 377 140<309.5 397.5>
Fore
273 724 m 0
 356 724 425 687 467 619 c 0
 501 564 517 476 517 346 c 0
 517 214 497 122 457 68 c 0
 413 8 350 -23 273 -23 c 0
 190 -23 121 15 79 82 c 0
 46 136 29 225 29 350 c 0
 29 487 48 578 89 633 c 0
 132 692 197 724 273 724 c 0
273 611 m 0
 233 611 203 587 187 544 c 0
 177 515 169 434 169 351 c 0
 169 257 177 182 191 152 c 0
 208 116 236 97 273 97 c 0
 313 97 343 120 359 162 c 0
 369 190 377 270 377 349 c 0
 377 446 369 524 355 554 c 0
 338 591 309 611 273 611 c 0
EndSplineSet
EndChar
StartChar: one
Encoding: 49 49
Width: 556
Flags: MW
HStem: 0 20
VStem: 238 140<0 489 489 489>
Fore
238 489 m 1
 68 489 l 1
 68 582 l 1
 190 582 263 625 285 709 c 1
 378 709 l 1
 378 0 l 1
 238 0 l 1
 238 489 l 1
EndSplineSet
EndChar
StartChar: two
Encoding: 50 50
Width: 556
Flags: MW
HStem: 0 125<212 512> 610 114<243 306>
VStem: 39 135<484 485> 375 140<457 531.5>
Fore
512 125 m 1
 512 0 l 1
 30 0 l 1
 37 131 74 194 194 276 c 1
 350 387 375 418 375 496 c 0
 375 567 337 610 275 610 c 0
 211 610 174 564 174 485 c 2
 174 462 l 1
 40 462 l 1
 39 473 39 481 39 487 c 0
 39 637 125 724 272 724 c 0
 421 724 515 636 515 499 c 0
 515 403 479 349 356 259 c 0
 252 183 230 163 212 125 c 1
 512 125 l 1
EndSplineSet
EndChar
StartChar: three
Encoding: 51 51
Width: 556
Flags: W
HStem: -23 120<238 301.5> 611 113<244.5 293>
VStem: 353 140<498.5 547.5> 376 140<173 230>
Fore
217 317 m 1
 217 411 l 1
 229 411 l 2
 312 411 353 447 353 518 c 0
 353 577 321 611 265 611 c 0
 224 611 192 592 179 561 c 0
 172 543 169 524 168 486 c 1
 38 486 l 1
 38 498 l 2
 38 561 51 609 79 644 c 0
 119 696 187 724 268 724 c 0
 405 724 493 649 493 531 c 0
 493 466 466 421 400 380 c 1
 480 341 516 287 516 204 c 0
 516 66 419 -23 268 -23 c 0
 123 -23 30 66 29 208 c 1
 165 208 l 1
 169 135 205 97 271 97 c 0
 332 97 376 142 376 204 c 0
 376 256 346 297 299 310 c 0
 275 316 266 317 217 317 c 1
EndSplineSet
EndChar
StartChar: four
Encoding: 52 52
Width: 556
Flags: MW
HStem: 0 20 157 116<123 308 448 522>
VStem: 308 140<0 157 273 576 576 576>
Fore
522 273 m 1
 522 157 l 1
 448 157 l 1
 448 0 l 1
 308 0 l 1
 308 157 l 1
 24 157 l 1
 24 275 l 1
 283 709 l 1
 448 709 l 1
 448 273 l 1
 522 273 l 1
308 273 m 1
 308 576 l 1
 123 273 l 1
 308 273 l 1
EndSplineSet
EndChar
StartChar: five
Encoding: 53 53
Width: 556
Flags: MW
HStem: -23 120<232.5 298> 368 111<272.5 298.5> 584 125<196 489 196 196>
VStem: 377 140<189.5 274>
Fore
489 709 m 1
 489 584 l 1
 196 584 l 1
 173 436 l 1
 214 467 249 479 296 479 c 0
 427 479 517 379 517 234 c 0
 517 81 413 -23 261 -23 c 0
 123 -23 29 61 27 185 c 1
 165 185 l 1
 168 128 202 97 263 97 c 0
 333 97 377 148 377 231 c 0
 377 317 334 368 263 368 c 0
 220 368 188 349 173 314 c 1
 47 314 l 1
 110 709 l 1
 489 709 l 1
EndSplineSet
EndChar
StartChar: six
Encoding: 54 54
Width: 556
Flags: MW
HStem: -23 120<246 309> 357 110<284 311.5> 611 113<262 312.5>
VStem: 32 138 386 133<190 267>
Fore
507 548 m 1
 377 548 l 1
 359 593 335 611 290 611 c 0
 234 611 194 573 181 509 c 0
 175 479 175 479 172 404 c 1
 216 450 255 467 313 467 c 0
 435 467 519 373 519 237 c 0
 519 83 423 -23 282 -23 c 0
 198 -23 124 16 83 82 c 0
 47 139 32 215 32 337 c 0
 32 466 49 545 91 614 c 0
 134 685 206 724 294 724 c 0
 371 724 436 694 473 643 c 0
 491 617 500 594 507 548 c 1
279 357 m 0
 214 357 170 303 170 225 c 0
 170 150 214 97 278 97 c 0
 340 97 386 152 386 228 c 0
 386 306 344 357 279 357 c 0
EndSplineSet
EndChar
StartChar: seven
Encoding: 55 55
Width: 556
Flags: MW
HStem: 0 20 584 125<29 382>
Fore
528 709 m 1
 528 599 l 1
 360 396 287 224 274 0 c 1
 133 0 l 1
 152 151 177 244 226 347 c 0
 254 409 339 538 382 584 c 1
 29 584 l 1
 29 709 l 1
 528 709 l 1
EndSplineSet
EndChar
StartChar: eight
Encoding: 56 56
Width: 556
Flags: W
HStem: -23 120<239 307> 330 95<244 305.5> 611 113<243.5 306>
VStem: 22 140<177 246> 46 123<497 546> 380 121<509 545.5> 385 140<176 246>
Fore
409 386 m 1
 491 342 525 288 525 204 c 0
 525 70 422 -23 274 -23 c 0
 125 -23 22 70 22 204 c 0
 22 288 56 342 138 386 c 1
 74 420 46 463 46 531 c 0
 46 643 142 724 274 724 c 0
 405 724 501 643 501 532 c 0
 501 486 484 443 455 416 c 0
 444 406 433 399 409 386 c 1
275 611 m 0
 212 611 169 573 169 519 c 0
 169 464 213 425 275 425 c 0
 336 425 380 464 380 518 c 0
 380 573 337 611 275 611 c 0
273 330 m 0
 206 330 162 284 162 212 c 0
 162 142 205 97 273 97 c 0
 341 97 385 142 385 210 c 0
 385 284 342 330 273 330 c 0
EndSplineSet
EndChar
StartChar: nine
Encoding: 57 57
Width: 556
Flags: MW
HStem: -24 120<234.5 298.5> 228 116<233 258> 610 114<232 297>
VStem: 28 133<435.5 517>
Fore
38 165 m 1
 173 165 l 1
 176 123 210 96 259 96 c 0
 338 96 376 163 376 298 c 1
 353 272 345 263 332 254 c 0
 310 238 276 228 240 228 c 0
 114 228 28 328 28 474 c 0
 28 622 125 724 267 724 c 0
 352 724 422 684 467 608 c 0
 499 555 516 473 516 370 c 0
 516 256 494 149 457 86 c 0
 415 14 346 -24 255 -24 c 0
 133 -24 41 56 38 165 c 1
263 610 m 0
 201 610 161 558 161 476 c 0
 161 395 201 344 265 344 c 0
 329 344 373 396 373 474 c 0
 373 557 331 610 263 610 c 0
EndSplineSet
EndChar
StartChar: colon
Encoding: 58 58
Width: 333
Flags: MW
HStem: 0 146<113 263> 374 146<113 263>
VStem: 113 150<0 146 374 520>
Fore
263 146 m 1
 263 0 l 1
 113 0 l 1
 113 146 l 1
 263 146 l 1
263 520 m 1
 263 374 l 1
 113 374 l 1
 113 520 l 1
 263 520 l 1
EndSplineSet
EndChar
StartChar: semicolon
Encoding: 59 59
Width: 333
Flags: MW
HStem: 0 146<113 199> 374 146<113 263>
VStem: 113 150<0 9 9 146 374 520>
Fore
113 146 m 1
 263 146 l 1
 263 9 l 2
 263 -69 249 -106 209 -137 c 0
 182 -158 154 -169 113 -174 c 1
 113 -118 l 1
 172 -106 199 -71 199 -3 c 2
 199 0 l 1
 113 0 l 1
 113 146 l 1
263 520 m 1
 263 374 l 1
 113 374 l 1
 113 520 l 1
 263 520 l 1
EndSplineSet
EndChar
StartChar: less
Encoding: 60 60
Width: 584
Flags: MW
HStem: -10 20
Fore
529 474 m 1
 529 365 l 1
 147 232 l 1
 529 101 l 1
 529 -10 l 1
 40 172 l 1
 40 293 l 1
 529 474 l 1
EndSplineSet
EndChar
StartChar: equal
Encoding: 61 61
Width: 584
Flags: MW
HStem: 52 119<50 534> 292 119<50 534>
Fore
534 411 m 1
 534 292 l 1
 50 292 l 1
 50 411 l 1
 534 411 l 1
534 171 m 1
 534 52 l 1
 50 52 l 1
 50 171 l 1
 534 171 l 1
EndSplineSet
EndChar
StartChar: greater
Encoding: 62 62
Width: 584
Flags: MW
HStem: -10 20
Fore
40 -10 m 1
 40 99 l 1
 422 232 l 1
 40 363 l 1
 40 474 l 1
 529 292 l 1
 529 171 l 1
 40 -10 l 1
EndSplineSet
EndChar
StartChar: question
Encoding: 63 63
Width: 611
Flags: MW
HStem: 0 146<235 385> 626 118<277 340>
VStem: 235 150<0 146> 415 141<488.5 543.5>
Fore
369 201 m 1
 245 201 l 1
 242 286 265 331 344 399 c 1
 403 447 415 466 415 511 c 0
 415 576 370 626 310 626 c 0
 244 626 196 564 200 483 c 1
 200 481 l 1
 64 481 l 1
 65 563 78 611 111 655 c 0
 154 714 221 744 307 744 c 0
 454 744 556 650 556 514 c 0
 556 430 529 386 436 320 c 0
 376 278 369 267 369 201 c 1
385 146 m 1
 385 0 l 1
 235 0 l 1
 235 146 l 1
 385 146 l 1
EndSplineSet
EndChar
StartChar: at
Encoding: 64 64
Width: 975
Flags: MW
HStem: -138 78<440.5 522> -19 20 56 81<419 449.5 682 714.5> 447 71<480 537> 668 77<453 560>
VStem: 27 97<216 316> 258 97<214 260.5> 858 89<341 408.5>
Fore
644 508 m 1
 734 508 l 1
 656 228 l 1
 648 198 648 198 648 186 c 0
 648 156 667 137 697 137 c 0
 732 137 774 165 807 209 c 0
 840 255 858 312 858 370 c 0
 858 449 826 517 760 576 c 0
 690 638 609 668 511 668 c 0
 395 668 299 625 227 542 c 0
 162 467 124 366 124 266 c 0
 124 166 164 82 242 21 c 0
 309 -31 395 -60 486 -60 c 0
 558 -60 635 -45 693 -19 c 1
 721 -92 l 1
 651 -124 578 -138 484 -138 c 0
 357 -138 261 -108 178 -43 c 0
 82 32 27 145 27 264 c 0
 27 380 82 510 170 601 c 0
 262 696 380 745 516 745 c 0
 642 745 751 702 836 620 c 0
 912 546 947 462 947 355 c 0
 947 272 920 203 865 140 c 0
 817 86 757 56 697 56 c 0
 664 56 633 65 608 82 c 0
 588 96 580 106 572 131 c 1
 533 84 477 56 422 56 c 0
 331 56 258 132 258 227 c 0
 258 294 286 370 332 427 c 0
 377 483 446 518 514 518 c 0
 570 518 604 496 628 446 c 1
 644 508 l 1
511 447 m 0
 433 447 355 346 355 244 c 0
 355 184 394 137 444 137 c 0
 473 137 508 156 532 184 c 0
 569 227 595 294 595 345 c 0
 595 408 563 447 511 447 c 0
EndSplineSet
EndChar
StartChar: A
Encoding: 65 65
Width: 722
Flags: MW
HStem: 0 20 147 125<270 460> 537 20<365 365> 709 20<285 451 451 451>
Fore
501 147 m 1
 228 147 l 1
 179 0 l 1
 26 0 l 1
 285 729 l 1
 451 729 l 1
 703 0 l 1
 549 0 l 1
 501 147 l 1
460 272 m 1
 365 557 l 1
 270 272 l 1
 460 272 l 1
EndSplineSet
EndChar
StartChar: B
Encoding: 66 66
Width: 722
Flags: W
HStem: 0 125<232 410> 314 125<232 395 395 411> 604 125<232 232 232 395>
VStem: 82 150<125 314 439 604> 501 144<506 548> 522 144<188.5 246>
Fore
82 0 m 1
 82 729 l 1
 407 729 l 2
 485 729 536 713 579 676 c 0
 620 640 645 587 645 537 c 0
 645 475 617 433 545 387 c 1
 627 339 666 282 666 210 c 0
 666 152 638 90 594 53 c 0
 550 16 494 0 410 0 c 2
 82 0 l 1
232 604 m 1
 232 439 l 1
 395 439 l 2
 464 439 501 468 501 521 c 0
 501 575 464 604 395 604 c 2
 232 604 l 1
232 314 m 1
 232 125 l 1
 411 125 l 2
 484 125 522 158 522 219 c 0
 522 281 484 314 411 314 c 2
 232 314 l 1
EndSplineSet
EndChar
StartChar: C
Encoding: 67 67
Width: 722
Flags: MW
HStem: -23 126<320 424.5> 613 128<324 409>
VStem: 44 150<276.5 436.5>
Fore
682 482 m 1
 539 482 l 1
 530 521 522 540 506 560 c 0
 478 595 435 613 383 613 c 0
 265 613 194 517 194 356 c 0
 194 197 262 103 378 103 c 0
 471 103 530 156 539 249 c 1
 685 249 l 1
 676 82 555 -23 374 -23 c 0
 171 -23 44 124 44 358 c 0
 44 594 172 741 378 741 c 0
 487 741 577 700 633 626 c 0
 664 585 677 545 682 482 c 1
EndSplineSet
EndChar
StartChar: D
Encoding: 68 68
Width: 722
Flags: MW
HStem: 0 125<227 362> 604 125<227 362 227 227>
VStem: 77 150<125 604> 531 150<308.5 421>
Fore
77 0 m 1
 77 729 l 1
 362 729 l 2
 474 729 543 704 592 645 c 0
 650 576 681 477 681 365 c 0
 681 252 650 153 592 85 c 0
 543 26 473 0 362 0 c 2
 77 0 l 1
227 125 m 1
 362 125 l 2
 475 125 531 204 531 364 c 0
 531 525 475 604 362 604 c 2
 227 604 l 1
 227 125 l 1
EndSplineSet
EndChar
StartChar: E
Encoding: 69 69
Width: 667
Flags: MW
HStem: 0 125<229 624> 314 125<229 578> 604 125<229 606 229 229>
VStem: 79 150<125 314 439 604>
Fore
229 314 m 1
 229 125 l 1
 624 125 l 1
 624 0 l 1
 79 0 l 1
 79 729 l 1
 606 729 l 1
 606 604 l 1
 229 604 l 1
 229 439 l 1
 578 439 l 1
 578 314 l 1
 229 314 l 1
EndSplineSet
EndChar
StartChar: F
Encoding: 70 70
Width: 611
Flags: MW
HStem: 0 20 314 125<224 543> 604 125<224 586 224 224>
VStem: 74 150<0 314 439 604>
Fore
224 314 m 1
 224 0 l 1
 74 0 l 1
 74 729 l 1
 586 729 l 1
 586 604 l 1
 224 604 l 1
 224 439 l 1
 543 439 l 1
 543 314 l 1
 224 314 l 1
EndSplineSet
EndChar
StartChar: G
Encoding: 71 71
Width: 778
Flags: MW
HStem: -23 128<339.5 429> 267 125<419 585> 613 128<332.5 422>
VStem: 42 150<286 439.5>
Fore
711 392 m 1
 711 -2 l 1
 621 -2 l 1
 603 94 l 1
 547 12 481 -23 383 -23 c 0
 186 -23 42 138 42 359 c 0
 42 586 185 741 395 741 c 0
 571 741 693 646 711 496 c 1
 570 496 l 1
 557 534 546 551 525 569 c 0
 492 598 448 613 396 613 c 0
 269 613 192 518 192 361 c 0
 192 211 279 105 400 105 c 0
 458 105 513 131 549 175 c 0
 571 201 581 226 585 267 c 1
 419 267 l 1
 419 392 l 1
 711 392 l 1
EndSplineSet
EndChar
StartChar: H
Encoding: 72 72
Width: 722
Flags: W
HStem: 0 20 331 125<218 506> 709 20<68 218 218 218 506 657 657 657>
VStem: 68 150<0 331 456 729> 506 151<456 729> 507 150<0 331 331 331>
Fore
507 331 m 1
 218 331 l 1
 218 0 l 1
 68 0 l 1
 68 729 l 1
 218 729 l 1
 218 456 l 1
 506 456 l 1
 506 729 l 1
 657 729 l 1
 657 0 l 1
 507 0 l 1
 507 331 l 1
EndSplineSet
EndChar
StartChar: I
Encoding: 73 73
Width: 278
Flags: MW
HStem: 0 20 709 20<63 213 213 213>
VStem: 63 150<0 729>
Fore
213 729 m 1
 213 0 l 1
 63 0 l 1
 63 729 l 1
 213 729 l 1
EndSplineSet
EndChar
StartChar: J
Encoding: 74 74
Width: 556
Flags: MW
HStem: -23 128<226.5 281> 709 20<336 486 486 486>
VStem: 24 150<198 200 200 270> 336 150<190 729>
Fore
336 729 m 1
 486 729 l 1
 486 190 l 2
 486 54 401 -23 252 -23 c 0
 183 -23 127 -3 85 35 c 0
 42 75 24 122 24 198 c 2
 24 270 l 1
 174 270 l 1
 174 200 l 2
 174 133 198 105 255 105 c 0
 307 105 336 135 336 190 c 2
 336 729 l 1
EndSplineSet
EndChar
StartChar: K
Encoding: 75 75
Width: 722
Flags: MW
HStem: 0 20 709 20<74 224 224 224 509 686 686 686>
VStem: 74 150<0 244 409 729>
Fore
224 244 m 1
 224 0 l 1
 74 0 l 1
 74 729 l 1
 224 729 l 1
 224 409 l 1
 509 729 l 1
 686 729 l 1
 395 415 l 1
 717 0 l 1
 538 0 l 1
 299 322 l 1
 224 244 l 1
EndSplineSet
EndChar
StartChar: L
Encoding: 76 76
Width: 611
Flags: MW
HStem: 0 125<230 579> 709 20<80 230 230 230>
VStem: 80 150<125 729>
Fore
230 729 m 1
 230 125 l 1
 579 125 l 1
 579 0 l 1
 80 0 l 1
 80 729 l 1
 230 729 l 1
EndSplineSet
EndChar
StartChar: M
Encoding: 77 77
Width: 833
Flags: MW
HStem: 0 20 709 20<66 290 290 290 550 776 776 776>
VStem: 66 150<0 568> 626 150<0 568 568 568>
Fore
216 568 m 1
 216 0 l 1
 66 0 l 1
 66 729 l 1
 290 729 l 1
 422 149 l 1
 550 729 l 1
 776 729 l 1
 776 0 l 1
 626 0 l 1
 626 568 l 1
 497 0 l 1
 347 0 l 1
 216 568 l 1
EndSplineSet
EndChar
StartChar: N
Encoding: 78 78
Width: 722
Flags: MW
HStem: 0 20 709 20<68 222 222 222 511 661 661 661>
VStem: 68 150<0 504> 511 150<233 729>
Fore
511 0 m 1
 218 504 l 1
 218 0 l 1
 68 0 l 1
 68 729 l 1
 222 729 l 1
 511 233 l 1
 511 729 l 1
 661 729 l 1
 661 0 l 1
 511 0 l 1
EndSplineSet
EndChar
StartChar: O
Encoding: 79 79
Width: 778
Flags: MW
HStem: -23 128<339 443> 613 128<339 442.5>
VStem: 40 150<304.5 413.5> 592 150<302.5 411>
Fore
390 741 m 0
 495 741 576 709 640 640 c 0
 705 570 742 468 742 354 c 0
 742 251 703 145 640 78 c 0
 577 10 495 -23 391 -23 c 0
 287 -23 205 10 142 78 c 0
 77 147 40 250 40 359 c 0
 40 468 77 570 142 640 c 0
 204 707 288 741 390 741 c 0
391 613 m 0
 270 613 190 512 190 359 c 0
 190 206 270 105 391 105 c 0
 511 105 592 206 592 355 c 0
 592 513 514 613 391 613 c 0
EndSplineSet
EndChar
StartChar: P
Encoding: 80 80
Width: 667
Flags: MW
HStem: 0 20 260 125<226 366 366 406> 604 125<226 366 226 226>
VStem: 76 150<0 260 385 604> 483 150<457 531.5>
Fore
226 260 m 1
 226 0 l 1
 76 0 l 1
 76 729 l 1
 398 729 l 2
 550 729 633 649 633 503 c 0
 633 355 547 260 413 260 c 2
 226 260 l 1
226 385 m 1
 366 385 l 2
 446 385 483 420 483 494 c 0
 483 569 446 604 366 604 c 2
 226 604 l 1
 226 385 l 1
EndSplineSet
EndChar
StartChar: Q
Encoding: 81 81
Width: 778
Flags: MW
HStem: -23 128<342.5 409> 613 128<342 446>
VStem: 43 150<304.5 413.5> 595 150<328 414.5>
Fore
665 103 m 1
 745 27 l 1
 669 -54 l 1
 583 27 l 1
 525 -8 469 -23 394 -23 c 0
 291 -23 208 10 145 78 c 0
 81 147 43 250 43 359 c 0
 43 468 81 571 145 640 c 0
 208 708 290 741 394 741 c 0
 498 741 580 708 643 640 c 0
 707 571 745 468 745 361 c 0
 745 263 714 163 665 103 c 1
480 278 m 1
 562 200 l 1
 584 244 595 298 595 358 c 0
 595 513 516 613 394 613 c 0
 273 613 193 512 193 359 c 0
 193 206 273 105 393 105 c 0
 425 105 458 112 481 124 c 1
 404 197 l 1
 480 278 l 1
EndSplineSet
EndChar
StartChar: R
Encoding: 82 82
Width: 722
Flags: MW
HStem: 0 20 289 125<230 402> 604 125<230 411 230 230>
VStem: 80 150<0 289 414 604> 517 150<493.5 528>
Fore
230 289 m 1
 230 0 l 1
 80 0 l 1
 80 729 l 1
 471 729 l 2
 533 729 579 713 612 679 c 0
 647 643 667 590 667 532 c 0
 667 443 626 384 544 352 c 1
 637 312 641 302 645 87 c 0
 645 55 654 40 677 27 c 1
 677 0 l 1
 516 0 l 1
 497 35 493 57 493 125 c 0
 493 136 493 154 494 173 c 0
 495 186 495 196 495 202 c 0
 495 263 467 289 402 289 c 2
 230 289 l 1
230 414 m 1
 411 414 l 2
 454 414 474 419 490 433 c 0
 507 448 517 476 517 511 c 0
 517 545 508 570 490 585 c 0
 472 600 454 604 411 604 c 2
 230 604 l 1
 230 414 l 1
EndSplineSet
EndChar
StartChar: S
Encoding: 83 83
Width: 667
Flags: MW
HStem: -23 120<291 387.5> 621 120<275.5 361.5>
VStem: 45 143<504.5 558.5> 489 144<164.5 224.5>
Fore
607 507 m 1
 467 507 l 1
 462 581 409 621 314 621 c 0
 237 621 188 586 188 531 c 0
 188 478 219 457 326 436 c 2
 440 414 l 2
 575 388 633 328 633 213 c 0
 633 65 522 -23 334 -23 c 0
 148 -23 41 62 32 218 c 1
 178 218 l 1
 183 140 240 97 342 97 c 0
 433 97 489 134 489 195 c 0
 489 254 452 282 352 301 c 2
 250 321 l 2
 102 349 45 404 45 517 c 0
 45 659 146 741 321 741 c 0
 426 741 507 712 556 658 c 0
 592 618 607 574 607 507 c 1
EndSplineSet
EndChar
StartChar: T
Encoding: 84 84
Width: 611
Flags: MW
HStem: 0 20 604 125<14 235 385 598 385 385>
VStem: 235 150<0 604>
Fore
385 604 m 1
 385 0 l 1
 235 0 l 1
 235 604 l 1
 14 604 l 1
 14 729 l 1
 598 729 l 1
 598 604 l 1
 385 604 l 1
EndSplineSet
EndChar
StartChar: U
Encoding: 85 85
Width: 722
Flags: MW
HStem: -23 128<321 409> 709 20<76 226 226 226 504 654 654 654>
VStem: 76 150<235 729> 504 150<235 729>
Fore
504 729 m 1
 654 729 l 1
 654 235 l 2
 654 153 632 95 583 51 c 0
 530 3 453 -23 365 -23 c 0
 277 -23 200 3 147 51 c 0
 98 95 76 153 76 235 c 2
 76 729 l 1
 226 729 l 1
 226 235 l 2
 226 147 271 105 365 105 c 0
 459 105 504 147 504 235 c 2
 504 729 l 1
EndSplineSet
EndChar
StartChar: V
Encoding: 86 86
Width: 667
Flags: MW
HStem: 0 20 709 20<24 175 175 175 496 647 647 647>
Fore
397 0 m 1
 270 0 l 1
 24 729 l 1
 175 729 l 1
 337 180 l 1
 496 729 l 1
 647 729 l 1
 397 0 l 1
EndSplineSet
EndChar
StartChar: W
Encoding: 87 87
Width: 944
Flags: MW
HStem: 0 20 709 20<13 172 172 172 398 546 546 546 773 932 932 932>
Fore
730 0 m 1
 595 0 l 1
 473 569 l 1
 354 0 l 1
 219 0 l 1
 13 729 l 1
 172 729 l 1
 285 183 l 1
 398 729 l 1
 546 729 l 1
 664 182 l 1
 773 729 l 1
 932 729 l 1
 730 0 l 1
EndSplineSet
EndChar
StartChar: X
Encoding: 88 88
Width: 667
Flags: MW
HStem: 0 20 709 20<30 208 208 208 470 644 644 644>
Fore
419 372 m 1
 653 0 l 1
 475 0 l 1
 335 253 l 1
 196 0 l 1
 22 0 l 1
 252 367 l 1
 30 729 l 1
 208 729 l 1
 336 489 l 1
 470 729 l 1
 644 729 l 1
 419 372 l 1
EndSplineSet
EndChar
StartChar: Y
Encoding: 89 89
Width: 667
Flags: MW
HStem: 0 20 709 20<27 194 194 194 482 650 650 650>
VStem: 269 150<0 270>
Fore
419 270 m 1
 419 0 l 1
 269 0 l 1
 269 270 l 1
 27 729 l 1
 194 729 l 1
 343 407 l 1
 482 729 l 1
 650 729 l 1
 419 270 l 1
EndSplineSet
EndChar
StartChar: Z
Encoding: 90 90
Width: 611
Flags: MW
HStem: 0 125<206 578> 604 125<30 403>
Fore
578 729 m 1
 578 604 l 1
 206 125 l 1
 578 125 l 1
 578 0 l 1
 30 0 l 1
 30 125 l 1
 403 604 l 1
 30 604 l 1
 30 729 l 1
 578 729 l 1
EndSplineSet
EndChar
StartChar: bracketleft
Encoding: 91 91
Width: 333
Flags: MW
HStem: -200 102<196 308> 627 102<196 308 196 196>
VStem: 66 130<-98 627>
Fore
308 729 m 1
 308 627 l 1
 196 627 l 1
 196 -98 l 1
 308 -98 l 1
 308 -200 l 1
 66 -200 l 1
 66 729 l 1
 308 729 l 1
EndSplineSet
EndChar
StartChar: backslash
Encoding: 92 92
Width: 278
Flags: MW
HStem: -14 20
Fore
55 714 m 1
 289 -14 l 1
 222 -14 l 1
 -12 714 l 1
 55 714 l 1
EndSplineSet
EndChar
StartChar: bracketright
Encoding: 93 93
Width: 333
Flags: MW
HStem: -200 102<18 130> 627 102<18 130>
VStem: 130 130<-98 627 627 627>
Fore
18 -200 m 1
 18 -98 l 1
 130 -98 l 1
 130 627 l 1
 18 627 l 1
 18 729 l 1
 260 729 l 1
 260 -200 l 1
 18 -200 l 1
EndSplineSet
EndChar
StartChar: asciicircum
Encoding: 94 94
Width: 584
Flags: W
Fore
522 270 m 1
 409 270 l 1
 288 570 l 1
 173 270 l 1
 61 270 l 1
 226 695 l 1
 351 695 l 1
 522 270 l 1
EndSplineSet
EndChar
StartChar: underscore
Encoding: 95 95
Width: 556
Flags: MW
HStem: -189 69<-22 578>
Fore
578 -120 m 1
 578 -189 l 1
 -22 -189 l 1
 -22 -120 l 1
 578 -120 l 1
EndSplineSet
EndChar
StartChar: grave
Encoding: 96 96
Width: 333
Flags: W
Fore
17 757 m 1
 143 757 l 1
 213 607 l 1
 143 607 l 1
 17 757 l 1
EndSplineSet
EndChar
StartChar: a
Encoding: 97 97
Width: 556
Flags: MW
HStem: -23 113<220.5 222> 436 113<239.5 301>
VStem: 28 140<135 176> 355 137<217 255 255 255 373 383>
Fore
524 17 m 1
 524 0 l 1
 372 0 l 1
 359 16 356 26 356 54 c 1
 307 3 252 -23 192 -23 c 0
 144 -23 97 -4 66 28 c 0
 41 55 28 93 28 139 c 0
 28 236 80 291 187 309 c 2
 243 319 l 2
 312 330 312 330 331 340 c 0
 346 348 355 364 355 382 c 0
 355 418 328 436 274 436 c 0
 205 436 182 418 175 362 c 1
 40 362 l 1
 49 487 125 549 271 549 c 0
 417 549 492 493 492 383 c 2
 492 83 l 2
 492 55 499 40 524 17 c 1
355 217 m 2
 355 255 l 1
 339 247 333 245 296 238 c 2
 248 229 l 2
 190 217 168 197 168 155 c 0
 168 115 197 90 244 90 c 0
 315 90 355 136 355 217 c 2
EndSplineSet
EndChar
StartChar: b
Encoding: 98 98
Width: 611
Flags: MW
HStem: -23 117<314 351.5> 432 117<314.5 351.5> 709 20<59 199 199 199>
VStem: 59 140<0 55 213.5 314 470 729> 435 140<213 299.5>
Fore
59 729 m 1
 199 729 l 1
 199 470 l 1
 233 524 281 549 348 549 c 0
 414 549 480 515 517 462 c 0
 553 410 575 336 575 263 c 0
 575 100 477 -23 348 -23 c 0
 280 -23 233 2 199 55 c 1
 199 0 l 1
 59 0 l 1
 59 729 l 1
317 432 m 0
 247 432 199 363 199 265 c 0
 199 162 246 94 317 94 c 0
 386 94 435 164 435 262 c 0
 435 362 386 432 317 432 c 0
EndSplineSet
EndChar
StartChar: c
Encoding: 99 99
Width: 556
Flags: MW
HStem: -23 113<252.5 315> 436 113<268 316.5>
VStem: 34 140<206.5 284.5>
Fore
522 338 m 1
 388 338 l 1
 372 409 345 436 288 436 c 0
 248 436 217 420 201 390 c 0
 184 358 174 310 174 259 c 0
 174 154 217 90 288 90 c 0
 342 90 370 117 388 187 c 1
 522 187 l 1
 509 58 418 -23 287 -23 c 0
 127 -23 34 81 34 259 c 0
 34 443 128 549 289 549 c 0
 424 549 512 470 522 338 c 1
EndSplineSet
EndChar
StartChar: d
Encoding: 100 100
Width: 611
Flags: MW
HStem: -23 117<252 289.5> 432 117<252 289.5> 709 20<405 545 545 545>
VStem: 29 140<225.5 312> 405 140<0 55 55 55 211 311.5 470 729>
Fore
405 0 m 1
 405 55 l 1
 370 2 323 -23 256 -23 c 0
 190 -23 124 11 87 63 c 0
 51 115 29 189 29 262 c 0
 29 425 127 549 256 549 c 0
 323 549 370 524 405 470 c 1
 405 729 l 1
 545 729 l 1
 545 0 l 1
 405 0 l 1
287 432 m 0
 217 432 169 362 169 262 c 0
 169 163 217 94 287 94 c 0
 357 94 405 162 405 260 c 0
 405 363 358 432 287 432 c 0
EndSplineSet
EndChar
StartChar: e
Encoding: 101 101
Width: 556
Flags: MW
HStem: -23 107<254 299.5> 226 93<164 379> 442 107<239 287.5>
Fore
524 226 m 1
 162 226 l 1
 164 175 169 151 182 131 c 0
 202 101 234 84 274 84 c 0
 325 84 364 109 381 152 c 1
 519 152 l 1
 488 46 390 -23 269 -23 c 0
 116 -23 22 83 22 256 c 0
 22 437 117 549 272 549 c 0
 381 549 468 490 504 392 c 0
 517 354 525 304 525 250 c 0
 525 243 525 238 524 226 c 1
164 319 m 1
 379 319 l 1
 376 356 370 377 357 397 c 0
 337 425 305 442 270 442 c 0
 208 442 173 401 164 319 c 1
EndSplineSet
EndChar
StartChar: f
Encoding: 102 102
Width: 333
Flags: MW
HStem: 0 20 436 93<14 90 230 313> 624 105
VStem: 90 140<0 436 529 582>
Fore
313 529 m 1
 313 436 l 1
 230 436 l 1
 230 0 l 1
 90 0 l 1
 90 436 l 1
 14 436 l 1
 14 529 l 1
 90 529 l 1
 90 594 l 2
 90 685 135 729 228 729 c 0
 247 729 282 728 308 726 c 1
 308 621 l 1
 296 623 280 624 268 624 c 0
 242 624 230 610 230 582 c 2
 230 529 l 1
 313 529 l 1
EndSplineSet
EndChar
StartChar: g
Encoding: 103 103
Width: 611
Flags: MW
HStem: -218 90<262.5 324> -23 117<253 286.5> 432 117<254 289>
VStem: 34 140<210 310> 408 133<-18 55 55 55 457 540>
Fore
408 540 m 1
 541 540 l 1
 541 -18 l 2
 541 -145 447 -218 284 -218 c 0
 201 -218 141 -201 98 -166 c 0
 62 -136 46 -107 45 -65 c 1
 190 -65 l 1
 201 -106 236 -128 289 -128 c 0
 359 -128 408 -83 408 -18 c 2
 408 55 l 1
 356 -4 318 -23 255 -23 c 0
 122 -23 34 89 34 257 c 0
 34 424 130 549 258 549 c 0
 320 549 366 521 408 457 c 1
 408 540 l 1
288 432 m 0
 220 432 174 361 174 259 c 0
 174 161 220 94 286 94 c 0
 359 94 410 161 410 259 c 0
 410 359 358 432 288 432 c 0
EndSplineSet
EndChar
StartChar: h
Encoding: 104 104
Width: 611
Flags: MW
HStem: 0 20 430 119 709 20<67 207 207 207>
VStem: 67 140<0 324 462 729> 401 140<0 330 330 347.5>
Fore
67 729 m 1
 207 729 l 1
 207 462 l 1
 246 521 296 549 365 549 c 0
 410 549 455 534 486 508 c 0
 523 477 541 429 541 362 c 2
 541 0 l 1
 401 0 l 1
 401 330 l 2
 401 365 397 379 385 397 c 0
 369 419 345 430 315 430 c 0
 252 430 207 386 207 324 c 2
 207 0 l 1
 67 0 l 1
 67 729 l 1
EndSplineSet
EndChar
StartChar: i
Encoding: 105 105
Width: 278
Flags: MW
HStem: 0 20 604 125<67 207>
VStem: 67 140<0 540 604 729>
Fore
207 540 m 1
 207 0 l 1
 67 0 l 1
 67 540 l 1
 207 540 l 1
207 729 m 1
 207 604 l 1
 67 604 l 1
 67 729 l 1
 207 729 l 1
EndSplineSet
EndChar
StartChar: j
Encoding: 106 106
Width: 278
Flags: MW
HStem: -218 20 604 125<70 210>
VStem: 70 140<-63 540 604 729>
Fore
210 540 m 1
 210 -94 l 2
 210 -182 174 -218 87 -218 c 0
 67 -218 32 -216 4 -213 c 1
 4 -101 l 1
 14 -104 20 -105 29 -105 c 0
 59 -105 70 -94 70 -63 c 2
 70 540 l 1
 210 540 l 1
210 729 m 1
 210 604 l 1
 70 604 l 1
 70 729 l 1
 210 729 l 1
EndSplineSet
EndChar
StartChar: k
Encoding: 107 107
Width: 556
Flags: MW
HStem: 0 20 709 20<59 199 199 199>
VStem: 59 140<0 177 330 729>
Fore
199 330 m 1
 376 540 l 1
 535 540 l 1
 351 336 l 1
 548 0 l 1
 384 0 l 1
 255 238 l 1
 199 177 l 1
 199 0 l 1
 59 0 l 1
 59 729 l 1
 199 729 l 1
 199 330 l 1
EndSplineSet
EndChar
StartChar: l
Encoding: 108 108
Width: 278
Flags: MW
HStem: 0 20 709 20<67 207 207 207>
VStem: 67 140<0 729>
Fore
207 729 m 1
 207 0 l 1
 67 0 l 1
 67 729 l 1
 207 729 l 1
EndSplineSet
EndChar
StartChar: m
Encoding: 109 109
Width: 889
Flags: W
HStem: 0 20 430 119<316 319.5 618 631.5> 520 20<60 199 199 199>
VStem: 60 139<473 540> 60 140<0 324> 60 139 372 140<0 324> 684 140<0 360 360 381.5>
Fore
60 540 m 1
 199 540 l 1
 199 473 l 1
 245 528 285 549 347 549 c 0
 414 549 468 520 494 469 c 1
 536 525 584 549 652 549 c 0
 760 549 824 487 824 382 c 2
 824 0 l 1
 684 0 l 1
 684 360 l 2
 684 403 655 430 608 430 c 0
 548 430 512 390 512 324 c 2
 512 0 l 1
 372 0 l 1
 372 360 l 2
 372 403 343 430 296 430 c 0
 236 430 200 390 200 324 c 2
 200 0 l 1
 60 0 l 1
 60 540 l 1
EndSplineSet
EndChar
StartChar: n
Encoding: 110 110
Width: 611
Flags: W
HStem: 0 20 430 119<328.5 346> 520 20<63 203 203 203>
VStem: 63 140<0 324 462 540> 406 140<0 333 333 362>
Fore
63 540 m 1
 203 540 l 1
 203 462 l 1
 243 522 292 549 365 549 c 0
 480 549 546 481 546 362 c 2
 546 0 l 1
 406 0 l 1
 406 333 l 2
 406 397 376 430 316 430 c 0
 248 430 203 388 203 324 c 2
 203 0 l 1
 63 0 l 1
 63 540 l 1
EndSplineSet
EndChar
StartChar: o
Encoding: 111 111
Width: 611
Flags: MW
HStem: -23 113<264 339.5> 436 113<264 340.5>
VStem: 35 140<211.5 314.5> 429 140<210.5 314>
Fore
301 549 m 0
 470 549 569 442 569 259 c 0
 569 86 466 -23 302 -23 c 0
 136 -23 35 85 35 263 c 0
 35 440 136 549 301 549 c 0
302 436 m 0
 226 436 175 366 175 263 c 0
 175 160 226 90 302 90 c 0
 377 90 429 160 429 261 c 0
 429 367 379 436 302 436 c 0
EndSplineSet
EndChar
StartChar: p
Encoding: 112 112
Width: 611
Flags: MW
HStem: -218 20 -24 117<314 350.5> 432 117<314 351.5>
VStem: 58 140<-218 64 211.5 312.5 460 540> 434 140<211 300>
Fore
198 540 m 1
 198 460 l 1
 232 520 280 549 348 549 c 0
 413 549 480 515 516 464 c 0
 552 414 574 338 574 262 c 0
 574 98 478 -24 348 -24 c 0
 280 -24 232 4 198 64 c 1
 198 -218 l 1
 58 -218 l 1
 58 540 l 1
 198 540 l 1
316 432 m 0
 246 432 198 363 198 262 c 0
 198 161 246 93 316 93 c 0
 385 93 434 162 434 260 c 0
 434 363 387 432 316 432 c 0
EndSplineSet
EndChar
StartChar: q
Encoding: 113 113
Width: 611
Flags: MW
HStem: -218 20 -24 117<251 287> 432 117<251 287.5>
VStem: 28 140<224 312.5> 404 140<-218 64 64 64 210 311.5 460 540>
Fore
404 540 m 1
 544 540 l 1
 544 -218 l 1
 404 -218 l 1
 404 64 l 1
 371 5 321 -24 253 -24 c 0
 189 -24 122 10 86 61 c 0
 50 110 28 186 28 262 c 0
 28 427 124 549 254 549 c 0
 321 549 371 519 404 460 c 1
 404 540 l 1
286 432 m 0
 216 432 168 363 168 262 c 0
 168 161 216 93 286 93 c 0
 356 93 404 161 404 259 c 0
 404 364 357 432 286 432 c 0
EndSplineSet
EndChar
StartChar: r
Encoding: 114 114
Width: 389
Flags: W
HStem: 0 20 410 139<321 333.5> 520 20<63 203 203 203>
VStem: 63 140<0 287 434 540>
Fore
63 540 m 1
 203 540 l 1
 203 434 l 1
 233 507 289 549 353 549 c 0
 357 549 362 549 370 548 c 1
 370 406 l 1
 351 409 341 410 326 410 c 0
 244 410 203 369 203 287 c 2
 203 0 l 1
 63 0 l 1
 63 540 l 1
EndSplineSet
EndChar
StartChar: s
Encoding: 115 115
Width: 556
Flags: MW
HStem: -23 110<258 308.5> 439 110<244.5 302.5>
VStem: 48 140<378 404> 380 140<133.5 151>
Fore
505 366 m 1
 370 366 l 1
 369 415 336 439 269 439 c 0
 220 439 188 419 188 389 c 0
 188 367 198 359 237 347 c 2
 414 296 l 2
 485 275 520 230 520 160 c 0
 520 107 496 57 456 25 c 0
 416 -7 359 -23 284 -23 c 0
 120 -23 33 39 29 157 c 1
 166 157 l 1
 172 128 178 117 193 106 c 0
 211 94 240 87 276 87 c 0
 341 87 380 107 380 140 c 0
 380 162 368 173 333 184 c 2
 166 236 l 2
 114 253 97 262 78 281 c 0
 59 302 48 333 48 369 c 0
 48 480 133 549 270 549 c 0
 415 549 503 480 505 366 c 1
EndSplineSet
EndChar
StartChar: t
Encoding: 116 116
Width: 333
Flags: MW
HStem: -23 106 436 93<14 83 223 301>
VStem: 83 140<118 142 142 436 529 674>
Fore
301 529 m 1
 301 436 l 1
 223 436 l 1
 223 142 l 2
 223 94 232 83 269 83 c 0
 279 83 287 84 301 86 c 1
 301 -12 l 1
 276 -20 251 -23 220 -23 c 0
 128 -23 83 19 83 104 c 2
 83 436 l 1
 14 436 l 1
 14 529 l 1
 83 529 l 1
 83 674 l 1
 223 674 l 1
 223 529 l 1
 301 529 l 1
EndSplineSet
EndChar
StartChar: u
Encoding: 117 117
Width: 611
Flags: MW
HStem: -23 119<258 275.5> 520 20<58 198 198 198 401 541 541 541>
VStem: 58 140<164 193 193 540> 401 140<0 64 64 64 202 540>
Fore
541 0 m 1
 401 0 l 1
 401 64 l 1
 361 4 312 -23 239 -23 c 0
 124 -23 58 45 58 164 c 2
 58 540 l 1
 198 540 l 1
 198 193 l 2
 198 128 228 96 288 96 c 0
 356 96 401 138 401 202 c 2
 401 540 l 1
 541 540 l 1
 541 0 l 1
EndSplineSet
EndChar
StartChar: v
Encoding: 118 118
Width: 556
Flags: MW
HStem: 0 20 520 20<14 162 162 162 388 536 536 536>
Fore
350 0 m 1
 203 0 l 1
 14 540 l 1
 162 540 l 1
 279 145 l 1
 388 540 l 1
 536 540 l 1
 350 0 l 1
EndSplineSet
EndChar
StartChar: w
Encoding: 119 119
Width: 778
Flags: MW
HStem: 0 20 520 20<5 150 150 150 318 458 458 458 621 766 766 766>
Fore
613 0 m 1
 468 0 l 1
 387 381 l 1
 301 0 l 1
 157 0 l 1
 5 540 l 1
 150 540 l 1
 236 162 l 1
 318 540 l 1
 458 540 l 1
 539 162 l 1
 621 540 l 1
 766 540 l 1
 613 0 l 1
EndSplineSet
EndChar
StartChar: x
Encoding: 120 120
Width: 556
Flags: MW
HStem: 0 20 520 20<20 188 188 188 363 531 531 531>
Fore
355 272 m 1
 535 0 l 1
 367 0 l 1
 276 168 l 1
 184 0 l 1
 16 0 l 1
 196 272 l 1
 20 540 l 1
 188 540 l 1
 276 377 l 1
 363 540 l 1
 531 540 l 1
 355 272 l 1
EndSplineSet
EndChar
StartChar: y
Encoding: 121 121
Width: 556
Flags: MW
HStem: -219 103<127.5 147.5> 520 20<9 163 163 163 394 538 538 538>
Fore
394 540 m 1
 538 540 l 1
 316 -99 l 1
 293 -163 276 -186 237 -202 c 0
 213 -212 171 -219 136 -219 c 0
 119 -219 107 -218 86 -215 c 1
 86 -110 l 1
 104 -115 112 -116 123 -116 c 0
 172 -116 210 -77 210 -26 c 2
 210 -23 l 1
 210 -22 l 1
 9 540 l 1
 163 540 l 1
 282 147 l 1
 394 540 l 1
EndSplineSet
EndChar
StartChar: z
Encoding: 122 122
Width: 500
Flags: MW
HStem: 0 113<194 468> 427 113<39 288>
Fore
459 540 m 1
 459 427 l 1
 194 113 l 1
 468 113 l 1
 468 0 l 1
 21 0 l 1
 21 113 l 1
 288 427 l 1
 39 427 l 1
 39 540 l 1
 459 540 l 1
EndSplineSet
EndChar
StartChar: braceleft
Encoding: 123 123
Width: 389
Flags: MW
HStem: -200 99<280 317> 630 99<264.5 280 280 317>
VStem: 118 117<-60 -36 -36 150 150 159 378 573>
Fore
317 729 m 1
 317 630 l 1
 280 630 l 2
 249 630 235 613 235 573 c 2
 235 378 l 2
 235 305 213 280 138 269 c 1
 213 257 235 232 235 159 c 2
 235 -36 l 2
 235 -85 246 -101 280 -101 c 2
 317 -101 l 1
 317 -200 l 1
 241 -200 l 2
 169 -200 118 -142 118 -60 c 2
 118 150 l 2
 118 190 110 206 87 217 c 0
 76 221 69 222 41 222 c 2
 37 223 l 1
 37 315 l 1
 41 315 l 1
 53 315 l 2
 98 316 118 335 118 378 c 2
 118 589 l 2
 118 671 169 729 241 729 c 2
 317 729 l 1
EndSplineSet
EndChar
StartChar: bar
Encoding: 124 124
Width: 280
Flags: MW
HStem: 709 20<100 180 180 180>
VStem: 100 80<-200 729>
Fore
180 729 m 1
 180 -200 l 1
 100 -200 l 1
 100 729 l 1
 180 729 l 1
EndSplineSet
EndChar
StartChar: braceright
Encoding: 125 125
Width: 389
Flags: MW
HStem: -200 99<72 109 109 124.5> 630 99<72 109>
VStem: 154 117<-44 151 370 379 379 565 565 589>
Fore
72 -200 m 1
 72 -101 l 1
 109 -101 l 2
 140 -101 154 -84 154 -44 c 2
 154 151 l 2
 154 224 176 249 251 260 c 1
 176 272 154 297 154 370 c 2
 154 565 l 2
 154 614 143 630 109 630 c 2
 72 630 l 1
 72 729 l 1
 148 729 l 2
 220 729 271 671 271 589 c 2
 271 379 l 2
 271 339 279 323 302 312 c 0
 313 308 320 307 348 307 c 2
 352 306 l 1
 352 214 l 1
 348 214 l 1
 336 214 l 2
 291 213 271 194 271 151 c 2
 271 -60 l 2
 271 -142 220 -200 148 -200 c 2
 72 -200 l 1
EndSplineSet
EndChar
StartChar: asciitilde
Encoding: 126 126
Width: 584
Flags: MW
HStem: 142 80<377.5 400> 234 80<179 201.5>
Fore
441 288 m 1
 519 288 l 1
 513 190 472 142 392 142 c 0
 359 142 335 150 309 168 c 2
 252 210 l 2
 229 227 212 234 191 234 c 0
 167 234 151 225 143 207 c 0
 140 199 139 195 138 169 c 1
 60 169 l 1
 65 266 108 314 187 314 c 0
 220 314 246 306 270 289 c 2
 327 247 l 2
 353 228 367 222 388 222 c 0
 412 222 428 231 436 249 c 0
 439 257 440 261 441 288 c 1
EndSplineSet
EndChar
StartChar: exclamdown
Encoding: 161 161
Width: 333
Flags: MW
HStem: 394 146<66 216>
VStem: 66 150<-186 24 394 540>
Fore
66 -186 m 1
 66 24 l 1
 108 333 l 1
 175 333 l 1
 216 24 l 1
 216 -186 l 1
 66 -186 l 1
66 394 m 1
 66 540 l 1
 216 540 l 1
 216 394 l 1
 66 394 l 1
EndSplineSet
EndChar
StartChar: cent
Encoding: 162 162
Width: 556
Flags: MW
VStem: 36 140<213.5 309.5> 259 44<-124 -23 94 433 433 433 549 634>
Fore
303 435 m 1
 303 91 l 1
 349 98 373 126 388 187 c 1
 522 187 l 1
 511 67 422 -18 303 -23 c 1
 303 -124 l 1
 259 -124 l 1
 259 -22 l 1
 120 -13 36 93 36 259 c 0
 36 431 114 533 259 548 c 1
 259 634 l 1
 303 634 l 1
 303 549 l 1
 426 547 514 462 522 338 c 1
 388 338 l 1
 375 400 350 428 303 435 c 1
259 94 m 1
 259 433 l 1
 205 419 176 359 176 260 c 0
 176 167 205 110 259 94 c 1
EndSplineSet
EndChar
StartChar: sterling
Encoding: 163 163
Width: 556
Flags: W
HStem: -23 125<382.5 407.5> 9 114 316 55<31 91 253 375 253 253> 604 111<248.5 292>
VStem: 38 141<503 539.5> 141 127<228 243.5>
Fore
375 371 m 1
 375 316 l 1
 253 316 l 1
 265 290 268 277 268 257 c 0
 268 199 237 153 152 86 c 1
 215 116 235 123 264 123 c 0
 281 123 289 122 328 112 c 0
 354 105 374 102 391 102 c 0
 424 102 456 111 496 131 c 1
 537 22 l 1
 481 -11 441 -23 392 -23 c 0
 365 -23 343 -19 293 -7 c 0
 245 5 221 9 195 9 c 0
 157 9 130 1 86 -21 c 1
 31 80 l 1
 115 137 141 173 141 231 c 0
 141 256 136 277 120 316 c 1
 31 316 l 1
 31 371 l 1
 91 371 l 1
 46 450 38 472 38 516 c 0
 38 572 66 629 112 666 c 0
 154 698 209 715 276 715 c 0
 380 715 458 676 494 605 c 0
 509 576 517 543 522 484 c 1
 390 484 l 1
 389 495 l 1
 383 541 375 559 354 577 c 0
 334 595 307 604 277 604 c 0
 220 604 179 566 179 513 c 0
 179 493 182 485 206 436 c 0
 223 401 230 386 236 371 c 1
 375 371 l 1
EndSplineSet
EndChar
StartChar: currency
Encoding: 164 164
Width: 556
Flags: MW
HStem: 147 98<266 304> 460 98<262.5 299.5>
VStem: 76 96<333 371> 386 96<334.5 373>
Fore
388 528 m 1
 461 601 l 1
 530 532 l 1
 455 457 l 1
 475 417 482 392 482 354 c 0
 482 315 473 281 453 246 c 1
 530 170 l 1
 461 102 l 1
 386 177 l 1
 340 152 322 147 286 147 c 0
 246 147 201 159 175 178 c 1
 96 100 l 1
 28 169 l 1
 106 246 l 1
 84 286 76 314 76 352 c 0
 76 390 86 427 105 457 c 1
 26 536 l 1
 95 604 l 1
 172 527 l 1
 203 546 244 558 281 558 c 0
 318 558 359 546 388 528 c 1
280 460 m 0
 220 460 172 413 172 352 c 0
 172 293 220 245 279 245 c 0
 338 245 386 293 386 353 c 0
 386 411 338 460 280 460 c 0
EndSplineSet
EndChar
StartChar: yen
Encoding: 165 165
Width: 556
Flags: MW
HStem: 0 20 180 59<70 215 355 497> 292 59<70 208 360 497>
VStem: 215 140<0 180 239 292>
Fore
497 351 m 1
 497 292 l 1
 355 292 l 1
 355 239 l 1
 497 239 l 1
 497 180 l 1
 355 180 l 1
 355 0 l 1
 215 0 l 1
 215 180 l 1
 70 180 l 1
 70 239 l 1
 215 239 l 1
 215 292 l 1
 70 292 l 1
 70 351 l 1
 208 351 l 1
 5 704 l 1
 144 704 l 1
 283 450 l 1
 417 704 l 1
 552 704 l 1
 360 351 l 1
 497 351 l 1
EndSplineSet
EndChar
StartChar: brokenbar
Encoding: 166 166
Width: 280
Flags: MW
HStem: 709 20<100 180 180 180>
VStem: 100 80<-200 189 340 729>
Fore
180 729 m 1
 180 340 l 1
 100 340 l 1
 100 729 l 1
 180 729 l 1
180 189 m 1
 180 -200 l 1
 100 -200 l 1
 100 189 l 1
 180 189 l 1
EndSplineSet
EndChar
StartChar: section
Encoding: 167 167
Width: 556
Flags: W
HStem: -201 111<264.5 299.5> 621 102<249 291.5>
VStem: 33 119<301.5 311> 64 140<556 585.5> 353 141<-47 -20> 398 120<228.5 248>
Fore
473 544 m 1
 346 544 l 1
 339 597 315 621 268 621 c 0
 230 621 204 601 204 570 c 0
 204 542 223 524 294 485 c 2
 421 415 l 2
 487 378 518 330 518 262 c 0
 518 195 491 155 424 124 c 1
 471 91 494 47 494 -10 c 0
 494 -124 406 -201 276 -201 c 0
 137 -201 66 -133 65 0 c 1
 196 0 l 1
 196 -10 l 1
 198 -42 202 -56 215 -68 c 0
 229 -82 252 -90 277 -90 c 0
 322 -90 353 -65 353 -29 c 0
 353 -11 346 5 335 16 c 0
 325 26 325 26 283 49 c 1
 112 149 l 2
 61 179 33 226 33 281 c 0
 33 341 54 374 125 428 c 1
 100 453 97 456 91 465 c 0
 74 487 64 520 64 551 c 0
 64 651 152 723 273 723 c 0
 351 723 416 694 447 647 c 0
 464 619 471 593 473 544 c 1
337 306 m 2
 194 382 l 1
 164 364 152 346 152 317 c 0
 152 286 165 269 205 247 c 2
 352 167 l 1
 386 191 398 209 398 232 c 0
 398 264 384 281 337 306 c 2
EndSplineSet
EndChar
StartChar: dieresis
Encoding: 168 168
Width: 333
Flags: MW
HStem: 621 122<18 128 204 314>
VStem: 18 110<621 743> 204 110<621 743>
Fore
128 743 m 1
 128 621 l 1
 18 621 l 1
 18 743 l 1
 128 743 l 1
314 743 m 1
 314 621 l 1
 204 621 l 1
 204 743 l 1
 314 743 l 1
EndSplineSet
EndChar
StartChar: copyright
Encoding: 169 169
Width: 737
Flags: MW
HStem: -22 72<283 451> 128 83<331 394.5> 509 83<333.5 395.5> 671 72<284.5 452>
VStem: -14 78<276.5 446.5> 163 92<312.5 406> 673 78<274.5 446.5>
Fore
552 431 m 1
 462 431 l 1
 451 485 422 509 369 509 c 0
 298 509 255 453 255 359 c 0
 255 266 296 211 366 211 c 0
 423 211 457 241 462 297 c 1
 554 297 l 1
 549 192 476 128 364 128 c 0
 241 128 163 218 163 360 c 0
 163 503 241 592 367 592 c 0
 433 592 488 567 522 522 c 0
 541 496 549 472 552 431 c 1
369 743 m 0
 579 743 751 572 751 361 c 0
 751 147 580 -22 364 -22 c 0
 158 -22 -14 152 -14 361 c 0
 -14 571 158 743 369 743 c 0
368 671 m 0
 201 671 64 532 64 361 c 0
 64 192 201 50 365 50 c 0
 537 50 673 188 673 361 c 0
 673 532 536 671 368 671 c 0
EndSplineSet
EndChar
StartChar: ordfeminine
Encoding: 170 170
Width: 370
Flags: MW
HStem: 262 78<37 321> 386 68<146.5 147> 661 68<158 194>
VStem: 31 84<481 505.5> 227 82<530 553 553 553 625 629>
Fore
321 340 m 1
 321 262 l 1
 37 262 l 1
 37 340 l 1
 321 340 l 1
329 410 m 1
 329 400 l 1
 237 400 l 1
 229 410 228 416 227 432 c 1
 199 402 165 386 129 386 c 0
 70 386 31 425 31 484 c 0
 31 543 61 576 126 587 c 2
 160 593 l 2
 201 600 201 600 212 606 c 0
 221 610 227 620 227 630 c 0
 227 650 210 661 178 661 c 0
 138 661 123 649 119 617 c 1
 41 617 l 1
 42 691 88 729 176 729 c 0
 264 729 309 695 309 629 c 2
 309 450 l 2
 309 433 313 424 329 410 c 1
227 530 m 2
 227 553 l 1
 217 548 214 547 192 543 c 2
 163 537 l 2
 128 530 115 518 115 493 c 0
 115 469 132 454 161 454 c 0
 203 454 227 482 227 530 c 2
EndSplineSet
EndChar
StartChar: guillemotleft
Encoding: 171 171
Width: 556
Flags: W
Fore
88 218 m 1
 88 332 l 1
 255 481 l 1
 255 364 l 1
 154 275 l 1
 255 186 l 1
 255 72 l 1
 88 218 l 1
301 218 m 1
 301 332 l 1
 468 481 l 1
 468 364 l 1
 367 275 l 1
 468 186 l 1
 468 72 l 1
 301 218 l 1
EndSplineSet
EndChar
StartChar: logicalnot
Encoding: 172 172
Width: 584
Flags: MW
HStem: 298 77<40 467>
VStem: 467 77<86 298 298 298>
Fore
40 375 m 1
 544 375 l 1
 544 86 l 1
 467 86 l 1
 467 298 l 1
 40 298 l 1
 40 375 l 1
EndSplineSet
EndChar
StartChar: registered
Encoding: 174 174
Width: 737
Flags: MW
HStem: -22 72<283 451> 313 81<288 380> 502 81<288 391 288 288> 671 72<284.5 452>
VStem: -14 78<276.5 446.5> 192 96<140 313 394 502> 455 96<437 468.5> 673 78<274.5 446.5>
Fore
288 313 m 1
 288 140 l 1
 192 140 l 1
 192 583 l 1
 430 583 l 2
 506 583 551 538 551 462 c 0
 551 412 530 378 481 354 c 1
 533 330 535 323 538 195 c 0
 538 176 542 169 557 161 c 1
 557 140 l 1
 454 140 l 1
 442 163 440 177 440 221 c 0
 440 229 440 237 441 247 c 1
 441 264 l 2
 441 298 422 313 380 313 c 2
 288 313 l 1
288 394 m 1
 391 394 l 2
 439 394 455 407 455 448 c 0
 455 489 439 502 391 502 c 2
 288 502 l 1
 288 394 l 1
369 743 m 0
 579 743 751 572 751 361 c 0
 751 147 580 -22 364 -22 c 0
 158 -22 -14 152 -14 361 c 0
 -14 571 158 743 369 743 c 0
368 671 m 0
 201 671 64 532 64 361 c 0
 64 192 201 50 365 50 c 0
 537 50 673 188 673 361 c 0
 673 532 536 671 368 671 c 0
EndSplineSet
EndChar
StartChar: macron
Encoding: 175 175
Width: 333
Flags: MW
HStem: 640 79<16 315>
Fore
315 719 m 1
 315 640 l 1
 16 640 l 1
 16 719 l 1
 315 719 l 1
EndSplineSet
EndChar
StartChar: degree
Encoding: 176 176
Width: 606
Flags: MW
HStem: 383 63<277.5 326> 623 63<278.5 327>
VStem: 151 63<510.5 558.5> 391 63<510 559>
Fore
303 686 m 0
 386 686 454 618 454 535 c 0
 454 450 386 383 301 383 c 0
 219 383 151 452 151 535 c 0
 151 618 219 686 303 686 c 0
303 623 m 0
 254 623 214 583 214 534 c 0
 214 487 254 446 301 446 c 0
 351 446 391 485 391 535 c 0
 391 583 351 623 303 623 c 0
EndSplineSet
EndChar
StartChar: plusminus
Encoding: 177 177
Width: 584
Flags: MW
HStem: -16 119<56 527> 313 119<56 232 351 527>
VStem: 232 119<137 313 432 608>
Fore
527 103 m 1
 527 -16 l 1
 56 -16 l 1
 56 103 l 1
 527 103 l 1
527 432 m 1
 527 313 l 1
 351 313 l 1
 351 137 l 1
 232 137 l 1
 232 313 l 1
 56 313 l 1
 56 432 l 1
 232 432 l 1
 232 608 l 1
 351 608 l 1
 351 432 l 1
 527 432 l 1
EndSplineSet
EndChar
StartChar: twosuperior
Encoding: 178 178
Width: 351
Flags: MW
HStem: 284 81<139 326> 644 74<153 191>
VStem: 21 91<573.5 595.5> 233 95<557.5 600>
Fore
326 365 m 1
 326 284 l 1
 16 284 l 1
 19 365 42 403 120 453 c 1
 219 519 233 535 233 580 c 0
 233 620 210 644 172 644 c 0
 134 644 112 618 112 573 c 0
 112 571 113 564 114 557 c 1
 22 557 l 1
 21 565 21 572 21 575 c 0
 21 667 77 718 177 718 c 0
 274 718 328 670 328 584 c 0
 328 524 306 493 226 438 c 0
 195 416 173 400 167 395 c 0
 159 389 153 382 139 365 c 1
 326 365 l 1
EndSplineSet
EndChar
StartChar: threesuperior
Encoding: 179 179
Width: 351
Flags: W
HStem: 271 77<151 190> 645 73<155 183>
VStem: 220 95<582 607.5> 234 95<390.5 428.5>
Fore
134 471 m 1
 134 533 l 1
 145 533 l 2
 194 533 220 553 220 591 c 0
 220 624 199 645 167 645 c 0
 143 645 124 634 117 617 c 0
 112 607 110 596 110 571 c 1
 22 571 l 1
 24 621 31 645 50 669 c 0
 75 700 118 718 170 718 c 0
 258 718 315 672 315 601 c 0
 315 563 297 533 263 512 c 1
 307 491 329 456 329 409 c 0
 329 325 266 271 170 271 c 0
 72 271 16 323 15 414 c 1
 107 414 l 1
 110 369 130 348 172 348 c 0
 208 348 234 373 234 408 c 0
 234 449 205 470 150 471 c 2
 134 471 l 1
EndSplineSet
EndChar
StartChar: acute
Encoding: 180 180
Width: 333
Flags: W
Fore
317 757 m 1
 191 607 l 1
 121 607 l 1
 191 757 l 1
 317 757 l 1
EndSplineSet
EndChar
StartChar: mu
Encoding: 181 181
Width: 611
Flags: W
HStem: -220 20 -23 100 -23 119<271.5 311.5> 520 20<58 198 198 198 383 523 523 523>
VStem: 58 134<-220 15> 383 140<202 540>
Fore
192 -220 m 1
 58 -220 l 1
 58 540 l 1
 198 540 l 1
 198 206 l 2
 198 167 202 149 216 129 c 0
 230 108 254 96 282 96 c 0
 341 96 383 140 383 202 c 2
 383 540 l 1
 523 540 l 1
 523 150 l 2
 523 92 529 77 553 77 c 0
 559 77 563 78 573 81 c 1
 573 -6 l 1
 550 -18 531 -23 503 -23 c 0
 456 -23 432 -9 408 31 c 1
 369 -9 338 -23 292 -23 c 0
 251 -23 220 -12 192 15 c 1
 192 -220 l 1
EndSplineSet
EndChar
StartChar: paragraph
Encoding: 182 182
Width: 556
Flags: MW
HStem: 657 72<325 388 325 325 486 529 486 486>
VStem: 227 98<-191 267 267 267> 388 98<-191 657>
Fore
529 729 m 1
 529 657 l 1
 486 657 l 1
 486 -191 l 1
 388 -191 l 1
 388 657 l 1
 325 657 l 1
 325 -191 l 1
 227 -191 l 1
 227 267 l 1
 104 273 19 367 19 495 c 0
 19 550 37 606 70 650 c 0
 109 703 161 729 226 729 c 2
 529 729 l 1
EndSplineSet
EndChar
StartChar: periodcentered
Encoding: 183 183
Width: 278
Flags: MW
HStem: 169 123<64 188>
VStem: 64 124<169 292>
Fore
64 292 m 1
 188 292 l 1
 188 169 l 1
 64 169 l 1
 64 292 l 1
EndSplineSet
EndChar
StartChar: cedilla
Encoding: 184 184
Width: 333
Flags: MW
HStem: -220 50<143 167>
VStem: 208 86<-140.5 -118.5>
Fore
162 0 m 1
 205 0 l 1
 176 -63 l 1
 191 -58 203 -56 218 -56 c 0
 265 -56 294 -83 294 -127 c 0
 294 -187 248 -220 165 -220 c 0
 121 -220 92 -214 27 -192 c 1
 46 -140 l 1
 99 -163 123 -170 151 -170 c 0
 183 -170 208 -152 208 -129 c 0
 208 -108 188 -94 157 -94 c 0
 137 -94 127 -97 108 -106 c 1
 162 0 l 1
EndSplineSet
EndChar
StartChar: onesuperior
Encoding: 185 185
Width: 351
Flags: MW
VStem: 147 95<284 573 573 573>
Fore
147 573 m 1
 40 573 l 1
 40 634 l 1
 118 634 164 659 178 709 c 1
 242 709 l 1
 242 284 l 1
 147 284 l 1
 147 573 l 1
EndSplineSet
EndChar
StartChar: ordmasculine
Encoding: 186 186
Width: 365
Flags: MW
HStem: 262 78<33 334> 386 68<160.5 205.5> 661 68<160.5 206>
VStem: 23 84<527 588.5> 259 84<526 587.5>
Fore
334 340 m 1
 334 262 l 1
 33 262 l 1
 33 340 l 1
 334 340 l 1
183 729 m 0
 284 729 343 665 343 555 c 0
 343 451 281 386 183 386 c 0
 84 386 23 451 23 557 c 0
 23 664 84 729 183 729 c 0
183 661 m 0
 138 661 107 619 107 558 c 0
 107 496 138 454 183 454 c 0
 228 454 259 496 259 556 c 0
 259 619 229 661 183 661 c 0
EndSplineSet
EndChar
StartChar: guillemotright
Encoding: 187 187
Width: 556
Flags: W
Fore
255 335 m 1
 255 220 l 1
 88 72 l 1
 88 189 l 1
 189 278 l 1
 88 367 l 1
 88 481 l 1
 255 335 l 1
462 335 m 1
 462 220 l 1
 295 72 l 1
 295 189 l 1
 396 278 l 1
 295 367 l 1
 295 481 l 1
 462 335 l 1
EndSplineSet
EndChar
StartChar: onequarter
Encoding: 188 188
Width: 869
Flags: MW
HStem: -20 20 93 75<603 709 804 850>
VStem: 147 95<284 573 573 573> 709 95<0 93 168 332 332 332>
Fore
147 573 m 1
 40 573 l 1
 40 634 l 1
 118 634 164 659 178 709 c 1
 242 709 l 1
 242 284 l 1
 147 284 l 1
 147 573 l 1
593 715 m 1
 680 715 l 1
 257 -20 l 1
 170 -20 l 1
 593 715 l 1
850 168 m 1
 850 93 l 1
 804 93 l 1
 804 0 l 1
 709 0 l 1
 709 93 l 1
 530 93 l 1
 530 167 l 1
 695 425 l 1
 804 425 l 1
 804 168 l 1
 850 168 l 1
709 168 m 1
 709 332 l 1
 603 168 l 1
 709 168 l 1
EndSplineSet
EndChar
StartChar: onehalf
Encoding: 189 189
Width: 869
Flags: MW
HStem: -20 20 0 81<657 844> 360 74<671 709>
VStem: 147 95<284 573 573 573> 539 91<289.5 311.5> 751 95<273.5 316>
Fore
147 573 m 1
 40 573 l 1
 40 634 l 1
 118 634 164 659 178 709 c 1
 242 709 l 1
 242 284 l 1
 147 284 l 1
 147 573 l 1
587 715 m 1
 674 715 l 1
 251 -20 l 1
 164 -20 l 1
 587 715 l 1
844 81 m 1
 844 0 l 1
 534 0 l 1
 537 81 560 119 638 169 c 1
 737 235 751 251 751 296 c 0
 751 336 728 360 690 360 c 0
 652 360 630 334 630 289 c 0
 630 287 631 280 632 273 c 1
 540 273 l 1
 539 281 539 288 539 291 c 0
 539 383 595 434 695 434 c 0
 792 434 846 386 846 300 c 0
 846 240 824 209 744 154 c 0
 714 133 691 116 685 111 c 0
 677 105 671 98 657 81 c 1
 844 81 l 1
EndSplineSet
EndChar
StartChar: threequarters
Encoding: 190 190
Width: 869
Flags: W
HStem: -20 20 93 75<603 709 804 850> 271 77<151 190> 645 73<155 183>
VStem: 220 95<582 607.5> 234 95<390.5 428.5> 709 95<0 93 168 332 332 332>
Fore
134 471 m 1
 134 533 l 1
 145 533 l 2
 194 533 220 553 220 591 c 0
 220 624 199 645 167 645 c 0
 143 645 124 634 117 617 c 0
 112 607 110 596 110 571 c 1
 22 571 l 1
 24 621 31 645 50 669 c 0
 75 700 118 718 170 718 c 0
 258 718 315 672 315 601 c 0
 315 563 297 533 263 512 c 1
 307 491 329 456 329 409 c 0
 329 325 266 271 170 271 c 0
 72 271 16 323 15 414 c 1
 107 414 l 1
 110 369 130 348 172 348 c 0
 208 348 234 373 234 408 c 0
 234 449 205 470 150 471 c 2
 134 471 l 1
625 715 m 1
 712 715 l 1
 289 -20 l 1
 202 -20 l 1
 625 715 l 1
850 168 m 1
 850 93 l 1
 804 93 l 1
 804 0 l 1
 709 0 l 1
 709 93 l 1
 530 93 l 1
 530 167 l 1
 695 425 l 1
 804 425 l 1
 804 168 l 1
 850 168 l 1
709 168 m 1
 709 332 l 1
 603 168 l 1
 709 168 l 1
EndSplineSet
EndChar
StartChar: questiondown
Encoding: 191 191
Width: 611
Flags: MW
HStem: -204 118<267 330.5> 394 146<223 373>
VStem: 51 141<-3.5 51.5> 223 150<394 540>
Fore
239 339 m 1
 363 339 l 1
 366 254 343 209 263 141 c 1
 204 93 192 74 192 29 c 0
 192 -36 237 -86 297 -86 c 0
 364 -86 412 -24 408 57 c 1
 408 59 l 1
 544 59 l 1
 543 -23 530 -71 497 -115 c 0
 454 -174 387 -204 301 -204 c 0
 153 -204 51 -110 51 26 c 0
 51 110 78 154 172 220 c 0
 232 262 239 274 239 339 c 1
223 394 m 1
 223 540 l 1
 373 540 l 1
 373 394 l 1
 223 394 l 1
EndSplineSet
EndChar
StartChar: Agrave
Encoding: 192 192
Width: 722
Flags: HMW
HStem: 0 20 147 125<270 460> 537 20<365 365> 709 20<285 451 451 451>
Ref: 96 S 1 0 0 1 204.5 179
Ref: 65 N 1 0 0 1 0 0
Back
501 147 m 1
 228 147 l 1
 179 0 l 1
 26 0 l 1
 285 729 l 1
 451 729 l 1
 703 0 l 1
 549 0 l 1
 501 147 l 1
460 272 m 1
 365 557 l 1
 270 272 l 1
 460 272 l 1
221 936 m 1
 347 936 l 1
 417 786 l 1
 347 786 l 1
 221 936 l 1
EndSplineSet
EndChar
StartChar: Aacute
Encoding: 193 193
Width: 722
Flags: HMW
HStem: 0 20 147 125<270 460> 537 20<365 365> 709 20<285 451 451 451>
Ref: 180 S 1 0 0 1 193.5 178
Ref: 65 N 1 0 0 1 0 0
Back
501 147 m 1
 228 147 l 1
 179 0 l 1
 26 0 l 1
 285 729 l 1
 451 729 l 1
 703 0 l 1
 549 0 l 1
 501 147 l 1
460 272 m 1
 365 557 l 1
 270 272 l 1
 460 272 l 1
510 936 m 1
 384 786 l 1
 314 786 l 1
 384 936 l 1
 510 936 l 1
EndSplineSet
EndChar
StartChar: Acircumflex
Encoding: 194 194
Width: 722
Flags: HMW
HStem: 0 20 147 125<270 460> 537 20<365 365> 709 20<285 451 451 451>
Ref: 710 S 1 0 0 1 196.5 179
Ref: 65 N 1 0 0 1 0 0
Back
501 147 m 1
 228 147 l 1
 179 0 l 1
 26 0 l 1
 285 729 l 1
 451 729 l 1
 703 0 l 1
 549 0 l 1
 501 147 l 1
460 272 m 1
 365 557 l 1
 270 272 l 1
 460 272 l 1
313 936 m 1
 420 936 l 1
 523 786 l 1
 445 786 l 1
 363 886 l 1
 281 786 l 1
 205 786 l 1
 313 936 l 1
EndSplineSet
EndChar
StartChar: Atilde
Encoding: 195 195
Width: 722
Flags: W
HStem: 0 20 147 125<270 460> 537 20<365 365> 709 20<285 451 451 451> 801 79<444 458> 845 79<283.5 296> 908 20<483.5 546.5 546.5 546.5>
Ref: 732 S 1 0 0 1 201.5 179
Ref: 65 N 1 0 0 1 0 0
Back
501 147 m 1
 228 147 l 1
 179 0 l 1
 26 0 l 1
 285 729 l 1
 451 729 l 1
 703 0 l 1
 549 0 l 1
 501 147 l 1
460 272 m 1
 365 557 l 1
 270 272 l 1
 460 272 l 1
484 928 m 1
 547 928 l 1
 542 843 511 801 452 801 c 0
 437 801 417 805 397 813 c 2
 326 839 l 2
 315 843 305 845 296 845 c 0
 272 845 261 832 256 800 c 1
 193 800 l 1
 197 878 232 924 287 924 c 0
 305 924 311 923 343 911 c 2
 414 886 l 2
 421 884 441 880 448 880 c 0
 469 880 481 896 484 928 c 1
EndSplineSet
EndChar
StartChar: Adieresis
Encoding: 196 196
Width: 722
Flags: HMW
HStem: 0 20 147 125<270 460> 537 20<365 365> 709 20<285 451 451 451> 800 122<216 326 402 512>
VStem: 26 110 212 110
Ref: 168 S 1 0 0 1 198.5 179
Ref: 65 N 1 0 0 1 0 0
Back
501 147 m 1
 228 147 l 1
 179 0 l 1
 26 0 l 1
 285 729 l 1
 451 729 l 1
 703 0 l 1
 549 0 l 1
 501 147 l 1
460 272 m 1
 365 557 l 1
 270 272 l 1
 460 272 l 1
326 922 m 1
 326 800 l 1
 216 800 l 1
 216 922 l 1
 326 922 l 1
512 922 m 1
 512 800 l 1
 402 800 l 1
 402 922 l 1
 512 922 l 1
EndSplineSet
EndChar
StartChar: Aring
Encoding: 197 197
Width: 722
Flags: HMW
HStem: 0 20 147 125<270 460> 537 20<365 365> 709 20<285 451 451 451> 769 48<353 376> 901 48<353 376.5>
VStem: 26 48 158 48
Ref: 730 S 1 0 0 1 196.5 179
Ref: 65 N 1 0 0 1 0 0
Back
501 147 m 1
 228 147 l 1
 179 0 l 1
 26 0 l 1
 285 729 l 1
 451 729 l 1
 703 0 l 1
 549 0 l 1
 501 147 l 1
460 272 m 1
 365 557 l 1
 270 272 l 1
 460 272 l 1
365 949 m 0
 415 949 454 909 454 858 c 0
 454 809 413 769 364 769 c 0
 314 769 274 809 274 859 c 0
 274 909 314 949 365 949 c 0
365 901 m 0
 341 901 322 882 322 859 c 0
 322 836 341 817 365 817 c 0
 387 817 406 836 406 859 c 0
 406 882 388 901 365 901 c 0
EndSplineSet
EndChar
StartChar: AE
Encoding: 198 198
Width: 1000
Flags: MW
HStem: 0 125<580 966> 152 125<249 430> 314 125<580 919> 604 125<363 430 363 363 580 946 580 580>
VStem: 430 150<125 152 152 152 277 314 439 604>
Fore
430 152 m 1
 207 152 l 1
 154 0 l 1
 1 0 l 1
 264 729 l 1
 946 729 l 1
 946 604 l 1
 580 604 l 1
 580 439 l 1
 919 439 l 1
 919 314 l 1
 580 314 l 1
 580 125 l 1
 966 125 l 1
 966 0 l 1
 430 0 l 1
 430 152 l 1
430 277 m 1
 430 604 l 1
 363 604 l 1
 249 277 l 1
 430 277 l 1
EndSplineSet
EndChar
StartChar: Ccedilla
Encoding: 199 199
Width: 722
Flags: MW
HStem: -220 50<327 351> -94 197<331 356.5> 613 128<324 409>
VStem: 44 150<294 436.5> 392 86<-140.5 -118.5>
Fore
379 -23 m 1
 360 -63 l 1
 374 -58 386 -56 402 -56 c 0
 449 -56 478 -83 478 -127 c 0
 478 -187 432 -220 349 -220 c 0
 305 -220 276 -214 211 -192 c 1
 230 -140 l 1
 283 -163 307 -170 335 -170 c 0
 367 -170 392 -152 392 -129 c 0
 392 -108 372 -94 341 -94 c 0
 321 -94 311 -97 292 -106 c 1
 335 -23 l 1
 242 -7 203 11 155 56 c 0
 82 126 44 230 44 358 c 0
 44 594 172 741 378 741 c 0
 487 741 577 700 633 626 c 0
 664 585 677 545 682 482 c 1
 539 482 l 1
 530 521 522 540 506 560 c 0
 478 595 435 613 383 613 c 0
 265 613 194 517 194 356 c 0
 194 197 262 103 378 103 c 0
 471 103 530 156 539 249 c 1
 685 249 l 1
 677 84 561 -19 379 -23 c 1
EndSplineSet
EndChar
StartChar: Egrave
Encoding: 200 200
Width: 667
Flags: HMW
HStem: 0 125<229 624> 314 125<229 578> 604 125<229 606 229 229>
VStem: 79 150<125 314 439 604>
Ref: 96 S 1 0 0 1 190.5 179
Ref: 69 N 1 0 0 1 0 0
Back
229 314 m 1
 229 125 l 1
 624 125 l 1
 624 0 l 1
 79 0 l 1
 79 729 l 1
 606 729 l 1
 606 604 l 1
 229 604 l 1
 229 439 l 1
 578 439 l 1
 578 314 l 1
 229 314 l 1
208 936 m 1
 334 936 l 1
 404 786 l 1
 334 786 l 1
 208 936 l 1
EndSplineSet
EndChar
StartChar: Eacute
Encoding: 201 201
Width: 667
Flags: HMW
HStem: 0 125<229 624> 314 125<229 578> 604 125<229 606 229 229>
VStem: 79 150<125 314 439 604>
Ref: 180 S 1 0 0 1 163.5 179
Ref: 69 N 1 0 0 1 0 0
Back
229 314 m 1
 229 125 l 1
 624 125 l 1
 624 0 l 1
 79 0 l 1
 79 729 l 1
 606 729 l 1
 606 604 l 1
 229 604 l 1
 229 439 l 1
 578 439 l 1
 578 314 l 1
 229 314 l 1
480 936 m 1
 354 786 l 1
 284 786 l 1
 354 936 l 1
 480 936 l 1
EndSplineSet
EndChar
StartChar: Ecircumflex
Encoding: 202 202
Width: 667
Flags: HMW
HStem: 0 125<229 624> 314 125<229 578> 604 125<229 606 229 229>
VStem: 79 150<125 314 439 604>
Ref: 710 S 1 0 0 1 178.5 179
Ref: 69 N 1 0 0 1 0 0
Back
229 314 m 1
 229 125 l 1
 624 125 l 1
 624 0 l 1
 79 0 l 1
 79 729 l 1
 606 729 l 1
 606 604 l 1
 229 604 l 1
 229 439 l 1
 578 439 l 1
 578 314 l 1
 229 314 l 1
294 936 m 1
 401 936 l 1
 504 786 l 1
 426 786 l 1
 344 886 l 1
 262 786 l 1
 186 786 l 1
 294 936 l 1
EndSplineSet
EndChar
StartChar: Edieresis
Encoding: 203 203
Width: 667
Flags: W
HStem: 0 125<229 624> 314 125<229 578> 604 125<229 606 229 229> 800 122<196.5 306.5 382.5 492.5>
VStem: 79 150<125 314 439 604> 196.5 110<800 922> 382.5 110<800 922>
Ref: 168 S 1 0 0 1 178.5 179
Ref: 69 N 1 0 0 1 0 0
Back
229 314 m 1
 229 125 l 1
 624 125 l 1
 624 0 l 1
 79 0 l 1
 79 729 l 1
 606 729 l 1
 606 604 l 1
 229 604 l 1
 229 439 l 1
 578 439 l 1
 578 314 l 1
 229 314 l 1
307 922 m 1
 307 800 l 1
 197 800 l 1
 197 922 l 1
 307 922 l 1
493 922 m 1
 493 800 l 1
 383 800 l 1
 383 922 l 1
 493 922 l 1
EndSplineSet
EndChar
StartChar: Igrave
Encoding: 204 204
Width: 278
Flags: HMW
HStem: 0 20 709 20<63 213 213 213>
VStem: 63 150<0 729>
Ref: 96 S 1 0 0 1 -27 179
Ref: 73 N 1 0 0 1 0 0
Back
213 729 m 1
 213 0 l 1
 63 0 l 1
 63 729 l 1
 213 729 l 1
-10 936 m 1
 116 936 l 1
 186 786 l 1
 116 786 l 1
 -10 936 l 1
EndSplineSet
EndChar
StartChar: Iacute
Encoding: 205 205
Width: 278
Flags: HMW
HStem: 0 20 709 20<63 213 213 213>
VStem: 63 150<0 729>
Ref: 180 S 1 0 0 1 -27 179
Ref: 73 N 1 0 0 1 0 0
Back
213 729 m 1
 213 0 l 1
 63 0 l 1
 63 729 l 1
 213 729 l 1
290 936 m 1
 164 786 l 1
 94 786 l 1
 164 936 l 1
 290 936 l 1
EndSplineSet
EndChar
StartChar: Icircumflex
Encoding: 206 206
Width: 278
Flags: HMW
HStem: 0 20 709 20<63 213 213 213>
VStem: 63 150<0 729>
Ref: 710 S 1 0 0 1 -27 179
Ref: 73 N 1 0 0 1 0 0
Back
213 729 m 1
 213 0 l 1
 63 0 l 1
 63 729 l 1
 213 729 l 1
89 936 m 1
 196 936 l 1
 299 786 l 1
 221 786 l 1
 139 886 l 1
 57 786 l 1
 -19 786 l 1
 89 936 l 1
EndSplineSet
EndChar
StartChar: Idieresis
Encoding: 207 207
Width: 278
Flags: W
HStem: 0 20 709 20<63 213 213 213> 800 122<-9 101 177 287>
VStem: -9 110<800 922> 63 150<0 729> 177 110<800 922>
Ref: 168 S 1 0 0 1 -27 179
Ref: 73 N 1 0 0 1 0 0
Back
213 729 m 1
 213 0 l 1
 63 0 l 1
 63 729 l 1
 213 729 l 1
101 922 m 1
 101 800 l 1
 -9 800 l 1
 -9 922 l 1
 101 922 l 1
287 922 m 1
 287 800 l 1
 177 800 l 1
 177 922 l 1
 287 922 l 1
EndSplineSet
EndChar
StartChar: Eth
Encoding: 208 208
Width: 722
Flags: MW
HStem: 0 125<227 362> 339 80<0 77 227 377> 604 125<227 362 227 227>
VStem: 77 150<125 339 419 604> 537 144<324.5 404>
Fore
77 339 m 1
 0 339 l 1
 0 419 l 1
 77 419 l 1
 77 729 l 1
 362 729 l 2
 477 729 544 704 593 645 c 1
 648 576 681 472 681 365 c 0
 681 257 648 154 593 85 c 0
 545 25 476 0 362 0 c 2
 77 0 l 1
 77 339 l 1
227 339 m 1
 227 125 l 1
 362 125 l 2
 427 125 465 141 491 179 c 0
 522 223 537 285 537 364 c 0
 537 444 522 506 491 550 c 0
 465 588 427 604 362 604 c 2
 227 604 l 1
 227 419 l 1
 377 419 l 1
 377 339 l 1
 227 339 l 1
EndSplineSet
EndChar
StartChar: Ntilde
Encoding: 209 209
Width: 722
Flags: W
HStem: 0 20 709 20<68 222 222 222 511 661 661 661> 801 79<445 459> 845 79<284.5 297> 908 20<484.5 547.5 547.5 547.5>
VStem: 68 150<0 504> 511 150<233 729>
Ref: 732 S 1 0 0 1 202.5 179
Ref: 78 N 1 0 0 1 0 0
Back
511 0 m 1
 218 504 l 1
 218 0 l 1
 68 0 l 1
 68 729 l 1
 222 729 l 1
 511 233 l 1
 511 729 l 1
 661 729 l 1
 661 0 l 1
 511 0 l 1
485 928 m 1
 548 928 l 1
 543 843 512 801 453 801 c 0
 438 801 418 805 398 813 c 2
 327 839 l 2
 316 843 306 845 297 845 c 0
 273 845 262 832 257 800 c 1
 194 800 l 1
 198 878 233 924 288 924 c 0
 306 924 312 923 344 911 c 2
 415 886 l 2
 422 884 442 880 449 880 c 0
 470 880 482 896 485 928 c 1
EndSplineSet
EndChar
StartChar: Ograve
Encoding: 210 210
Width: 778
Flags: HMW
HStem: -23 128<339 443> 613 128<339 442.5>
VStem: 40 150<304.5 413.5> 592 150<302.5 411>
Ref: 96 S 1 0 0 1 237 179
Ref: 79 N 1 0 0 1 0 0
Back
390 741 m 0
 495 741 576 709 640 640 c 0
 705 570 742 468 742 354 c 0
 742 251 703 145 640 78 c 0
 577 10 495 -23 391 -23 c 0
 287 -23 205 10 142 78 c 0
 77 147 40 250 40 359 c 0
 40 468 77 570 142 640 c 0
 204 707 288 741 390 741 c 0
391 613 m 0
 270 613 190 512 190 359 c 0
 190 206 270 105 391 105 c 0
 511 105 592 206 592 355 c 0
 592 513 514 613 391 613 c 0
254 936 m 1
 380 936 l 1
 450 786 l 1
 380 786 l 1
 254 936 l 1
EndSplineSet
EndChar
StartChar: Oacute
Encoding: 211 211
Width: 778
Flags: HMW
HStem: -23 128<339 443> 613 128<339 442.5>
VStem: 40 150<304.5 413.5> 592 150<302.5 411>
Ref: 180 S 1 0 0 1 213 179
Ref: 79 N 1 0 0 1 0 0
Back
390 741 m 0
 495 741 576 709 640 640 c 0
 705 570 742 468 742 354 c 0
 742 251 703 145 640 78 c 0
 577 10 495 -23 391 -23 c 0
 287 -23 205 10 142 78 c 0
 77 147 40 250 40 359 c 0
 40 468 77 570 142 640 c 0
 204 707 288 741 390 741 c 0
391 613 m 0
 270 613 190 512 190 359 c 0
 190 206 270 105 391 105 c 0
 511 105 592 206 592 355 c 0
 592 513 514 613 391 613 c 0
530 936 m 1
 404 786 l 1
 334 786 l 1
 404 936 l 1
 530 936 l 1
EndSplineSet
EndChar
StartChar: Ocircumflex
Encoding: 212 212
Width: 778
Flags: HMW
HStem: -23 128<339 443> 613 128<339 442.5>
VStem: 40 150<304.5 413.5> 592 150<302.5 411>
Ref: 710 S 1 0 0 1 224 179
Ref: 79 N 1 0 0 1 0 0
Back
390 741 m 0
 495 741 576 709 640 640 c 0
 705 570 742 468 742 354 c 0
 742 251 703 145 640 78 c 0
 577 10 495 -23 391 -23 c 0
 287 -23 205 10 142 78 c 0
 77 147 40 250 40 359 c 0
 40 468 77 570 142 640 c 0
 204 707 288 741 390 741 c 0
391 613 m 0
 270 613 190 512 190 359 c 0
 190 206 270 105 391 105 c 0
 511 105 592 206 592 355 c 0
 592 513 514 613 391 613 c 0
340 936 m 1
 447 936 l 1
 550 786 l 1
 472 786 l 1
 390 886 l 1
 308 786 l 1
 232 786 l 1
 340 936 l 1
EndSplineSet
EndChar
StartChar: Otilde
Encoding: 213 213
Width: 778
Flags: W
HStem: -23 128<339 443> 613 128<339 442.5> 801 79<472.5 486.5> 845 79<312 324.5> 908 20<512 575 575 575>
VStem: 40 150<304.5 413.5> 592 150<302.5 411>
Ref: 732 S 1 0 0 1 230 179
Ref: 79 N 1 0 0 1 0 0
Back
390 741 m 0
 495 741 576 709 640 640 c 0
 705 570 742 468 742 354 c 0
 742 251 703 145 640 78 c 0
 577 10 495 -23 391 -23 c 0
 287 -23 205 10 142 78 c 0
 77 147 40 250 40 359 c 0
 40 468 77 570 142 640 c 0
 204 707 288 741 390 741 c 0
391 613 m 0
 270 613 190 512 190 359 c 0
 190 206 270 105 391 105 c 0
 511 105 592 206 592 355 c 0
 592 513 514 613 391 613 c 0
512 928 m 1
 575 928 l 1
 570 843 539 801 480 801 c 0
 465 801 445 805 425 813 c 2
 354 839 l 2
 343 843 333 845 324 845 c 0
 300 845 289 832 284 800 c 1
 221 800 l 1
 225 878 260 924 315 924 c 0
 333 924 339 923 371 911 c 2
 442 886 l 2
 449 884 469 880 476 880 c 0
 497 880 509 896 512 928 c 1
EndSplineSet
EndChar
StartChar: Odieresis
Encoding: 214 214
Width: 778
Flags: HMW
HStem: -23 128<339 443> 613 128<339 442.5> 800 122<243 353 429 539>
VStem: 40 150<304.5 413.5> 226 110 592 150<302.5 411>
Ref: 168 S 1 0 0 1 225 179
Ref: 79 N 1 0 0 1 0 0
Back
390 741 m 0
 495 741 576 709 640 640 c 0
 705 570 742 468 742 354 c 0
 742 251 703 145 640 78 c 0
 577 10 495 -23 391 -23 c 0
 287 -23 205 10 142 78 c 0
 77 147 40 250 40 359 c 0
 40 468 77 570 142 640 c 0
 204 707 288 741 390 741 c 0
391 613 m 0
 270 613 190 512 190 359 c 0
 190 206 270 105 391 105 c 0
 511 105 592 206 592 355 c 0
 592 513 514 613 391 613 c 0
353 922 m 1
 353 800 l 1
 243 800 l 1
 243 922 l 1
 353 922 l 1
539 922 m 1
 539 800 l 1
 429 800 l 1
 429 922 l 1
 539 922 l 1
EndSplineSet
EndChar
StartChar: multiply
Encoding: 215 215
Width: 584
Flags: W
Fore
421 444 m 1
 505 360 l 1
 376 231 l 1
 504 102 l 1
 420 18 l 1
 292 147 l 1
 164 19 l 1
 80 103 l 1
 208 231 l 1
 79 359 l 1
 163 444 l 1
 292 315 l 1
 421 444 l 1
EndSplineSet
EndChar
StartChar: Oslash
Encoding: 216 216
Width: 778
Flags: W
HStem: -23 128<362 440> 613 128<335.5 416> 729 20<703 703>
VStem: 35 150<328.5 413.5> 590 150<303.5 384.5>
Fore
165 52 m 1
 82 -39 l 1
 31 7 l 1
 117 102 l 1
 62 176 35 261 35 359 c 0
 35 468 72 571 138 640 c 1
 201 708 283 741 388 741 c 0
 483 741 553 716 620 657 c 1
 703 749 l 1
 755 704 l 1
 666 605 l 1
 712 542 740 449 740 357 c 0
 740 250 702 146 637 78 c 1
 574 10 492 -23 388 -23 c 0
 298 -23 223 2 165 52 c 1
567 497 m 1
 256 153 l 1
 287 123 336 105 388 105 c 0
 510 105 590 206 590 361 c 0
 590 408 582 457 567 497 c 1
214 209 m 1
 528 555 l 1
 491 594 444 613 388 613 c 0
 264 613 185 512 185 356 c 0
 185 301 195 251 214 209 c 1
EndSplineSet
EndChar
StartChar: Ugrave
Encoding: 217 217
Width: 722
Flags: HMW
HStem: -23 128<321 409> 709 20<76 226 226 226 504 654 654 654>
VStem: 76 150<235 729> 504 150<235 729>
Ref: 96 S 1 0 0 1 211 179
Ref: 85 N 1 0 0 1 0 0
Back
504 729 m 1
 654 729 l 1
 654 235 l 2
 654 153 632 95 583 51 c 0
 530 3 453 -23 365 -23 c 0
 277 -23 200 3 147 51 c 0
 98 95 76 153 76 235 c 2
 76 729 l 1
 226 729 l 1
 226 235 l 2
 226 147 271 105 365 105 c 0
 459 105 504 147 504 235 c 2
 504 729 l 1
228 936 m 1
 354 936 l 1
 424 786 l 1
 354 786 l 1
 228 936 l 1
EndSplineSet
EndChar
StartChar: Uacute
Encoding: 218 218
Width: 722
Flags: HMW
HStem: -23 128<321 409> 709 20<76 226 226 226 504 654 654 654>
VStem: 76 150<235 729> 504 150<235 729>
Ref: 180 S 1 0 0 1 187 179
Ref: 85 N 1 0 0 1 0 0
Back
504 729 m 1
 654 729 l 1
 654 235 l 2
 654 153 632 95 583 51 c 0
 530 3 453 -23 365 -23 c 0
 277 -23 200 3 147 51 c 0
 98 95 76 153 76 235 c 2
 76 729 l 1
 226 729 l 1
 226 235 l 2
 226 147 271 105 365 105 c 0
 459 105 504 147 504 235 c 2
 504 729 l 1
504 936 m 1
 378 786 l 1
 308 786 l 1
 378 936 l 1
 504 936 l 1
EndSplineSet
EndChar
StartChar: Ucircumflex
Encoding: 219 219
Width: 722
Flags: HMW
HStem: -23 128<321 409> 709 20<76 226 226 226 504 654 654 654>
VStem: 76 150<235 729> 504 150<235 729>
Ref: 710 S 1 0 0 1 198 179
Ref: 85 N 1 0 0 1 0 0
Back
504 729 m 1
 654 729 l 1
 654 235 l 2
 654 153 632 95 583 51 c 0
 530 3 453 -23 365 -23 c 0
 277 -23 200 3 147 51 c 0
 98 95 76 153 76 235 c 2
 76 729 l 1
 226 729 l 1
 226 235 l 2
 226 147 271 105 365 105 c 0
 459 105 504 147 504 235 c 2
 504 729 l 1
314 936 m 1
 421 936 l 1
 524 786 l 1
 446 786 l 1
 364 886 l 1
 282 786 l 1
 206 786 l 1
 314 936 l 1
EndSplineSet
EndChar
StartChar: Udieresis
Encoding: 220 220
Width: 722
Flags: HMW
HStem: -23 128<321 409> 709 20<76 226 226 226 504 654 654 654> 800 122<217 327 403 513>
VStem: 76 150<235 729> 262 110 504 150<235 729>
Ref: 168 S 1 0 0 1 199 179
Ref: 85 N 1 0 0 1 0 0
Back
504 729 m 1
 654 729 l 1
 654 235 l 2
 654 153 632 95 583 51 c 0
 530 3 453 -23 365 -23 c 0
 277 -23 200 3 147 51 c 0
 98 95 76 153 76 235 c 2
 76 729 l 1
 226 729 l 1
 226 235 l 2
 226 147 271 105 365 105 c 0
 459 105 504 147 504 235 c 2
 504 729 l 1
327 922 m 1
 327 800 l 1
 217 800 l 1
 217 922 l 1
 327 922 l 1
513 922 m 1
 513 800 l 1
 403 800 l 1
 403 922 l 1
 513 922 l 1
EndSplineSet
EndChar
StartChar: Yacute
Encoding: 221 221
Width: 667
Flags: HMW
HStem: 0 20 709 20<27 194 194 194 482 650 650 650>
VStem: 269 150<0 270>
Ref: 180 S 1 0 0 1 162.5 179
Ref: 89 N 1 0 0 1 0 0
Back
419 270 m 1
 419 0 l 1
 269 0 l 1
 269 270 l 1
 27 729 l 1
 194 729 l 1
 343 407 l 1
 482 729 l 1
 650 729 l 1
 419 270 l 1
480 936 m 1
 354 786 l 1
 284 786 l 1
 354 936 l 1
 480 936 l 1
EndSplineSet
EndChar
StartChar: Thorn
Encoding: 222 222
Width: 667
Flags: MW
HStem: 0 20 140 125<226 366 366 406> 484 125<226 366> 709 20<76 226 226 226>
VStem: 76 150<0 140 265 484 609 729> 483 150<337 411.5>
Fore
226 140 m 1
 226 0 l 1
 76 0 l 1
 76 729 l 1
 226 729 l 1
 226 609 l 1
 398 609 l 2
 480 609 531 592 571 553 c 0
 613 512 633 456 633 382 c 0
 633 233 548 140 413 140 c 2
 226 140 l 1
226 265 m 1
 366 265 l 2
 446 265 483 300 483 374 c 0
 483 449 446 484 366 484 c 2
 226 484 l 1
 226 265 l 1
EndSplineSet
EndChar
StartChar: germandbls
Encoding: 223 223
Width: 611
Flags: W
HStem: -17 20 616 113<268.5 324.5>
VStem: 67 140<0 518 518 537> 392 140<513.5 559> 435 140<190.5 264>
Fore
285 349 m 1
 285 444 l 1
 294 444 l 2
 354 445 392 479 392 533 c 0
 392 585 355 616 294 616 c 0
 239 616 207 587 207 537 c 2
 207 0 l 1
 67 0 l 1
 67 518 l 2
 67 596 85 645 128 679 c 0
 167 710 234 729 303 729 c 0
 438 729 532 654 532 547 c 0
 532 480 502 433 445 411 c 1
 479 404 499 394 524 371 c 0
 560 336 575 298 575 236 c 0
 575 84 488 -17 357 -17 c 0
 335 -17 318 -15 285 -11 c 1
 285 101 l 1
 291 102 296 102 298 102 c 2
 318 103 l 2
 387 104 435 155 435 226 c 0
 435 302 383 349 298 349 c 2
 285 349 l 1
EndSplineSet
EndChar
StartChar: agrave
Encoding: 224 224
Width: 556
Flags: HMW
HStem: -23 113<220.5 222> 436 113<239.5 301>
VStem: 28 140<135 176> 355 137<217 255 255 255 373 383>
Ref: 96 S 1 0 0 1 115 0
Ref: 97 N 1 0 0 1 0 0
Back
524 17 m 1
 524 0 l 1
 372 0 l 1
 359 16 356 26 356 54 c 1
 307 3 252 -23 192 -23 c 0
 144 -23 97 -4 66 28 c 0
 41 55 28 93 28 139 c 0
 28 236 80 291 187 309 c 2
 243 319 l 2
 312 330 312 330 331 340 c 0
 346 348 355 364 355 382 c 0
 355 418 328 436 274 436 c 0
 205 436 182 418 175 362 c 1
 40 362 l 1
 49 487 125 549 271 549 c 0
 417 549 492 493 492 383 c 2
 492 83 l 2
 492 55 499 40 524 17 c 1
355 217 m 2
 355 255 l 1
 339 247 333 245 296 238 c 2
 248 229 l 2
 190 217 168 197 168 155 c 0
 168 115 197 90 244 90 c 0
 315 90 355 136 355 217 c 2
132 757 m 1
 258 757 l 1
 328 607 l 1
 258 607 l 1
 132 757 l 1
EndSplineSet
EndChar
StartChar: aacute
Encoding: 225 225
Width: 556
Flags: HMW
HStem: -23 113<220.5 222> 436 113<239.5 301>
VStem: 28 140<135 176> 355 137<217 255 255 255 373 383>
Ref: 180 S 1 0 0 1 94 0
Ref: 97 N 1 0 0 1 0 0
Back
524 17 m 1
 524 0 l 1
 372 0 l 1
 359 16 356 26 356 54 c 1
 307 3 252 -23 192 -23 c 0
 144 -23 97 -4 66 28 c 0
 41 55 28 93 28 139 c 0
 28 236 80 291 187 309 c 2
 243 319 l 2
 312 330 312 330 331 340 c 0
 346 348 355 364 355 382 c 0
 355 418 328 436 274 436 c 0
 205 436 182 418 175 362 c 1
 40 362 l 1
 49 487 125 549 271 549 c 0
 417 549 492 493 492 383 c 2
 492 83 l 2
 492 55 499 40 524 17 c 1
355 217 m 2
 355 255 l 1
 339 247 333 245 296 238 c 2
 248 229 l 2
 190 217 168 197 168 155 c 0
 168 115 197 90 244 90 c 0
 315 90 355 136 355 217 c 2
411 757 m 1
 285 607 l 1
 215 607 l 1
 285 757 l 1
 411 757 l 1
EndSplineSet
EndChar
StartChar: acircumflex
Encoding: 226 226
Width: 556
Flags: HMW
HStem: -23 113<220.5 222> 436 113<239.5 301>
VStem: 28 140<135 176> 355 137<217 255 255 255 373 383>
Ref: 710 S 1 0 0 1 105 0
Ref: 97 N 1 0 0 1 0 0
Back
524 17 m 1
 524 0 l 1
 372 0 l 1
 359 16 356 26 356 54 c 1
 307 3 252 -23 192 -23 c 0
 144 -23 97 -4 66 28 c 0
 41 55 28 93 28 139 c 0
 28 236 80 291 187 309 c 2
 243 319 l 2
 312 330 312 330 331 340 c 0
 346 348 355 364 355 382 c 0
 355 418 328 436 274 436 c 0
 205 436 182 418 175 362 c 1
 40 362 l 1
 49 487 125 549 271 549 c 0
 417 549 492 493 492 383 c 2
 492 83 l 2
 492 55 499 40 524 17 c 1
355 217 m 2
 355 255 l 1
 339 247 333 245 296 238 c 2
 248 229 l 2
 190 217 168 197 168 155 c 0
 168 115 197 90 244 90 c 0
 315 90 355 136 355 217 c 2
221 757 m 1
 328 757 l 1
 431 607 l 1
 353 607 l 1
 271 707 l 1
 189 607 l 1
 113 607 l 1
 221 757 l 1
EndSplineSet
EndChar
StartChar: atilde
Encoding: 227 227
Width: 556
Flags: W
HStem: -23 113<220.5 222> 436 113<239.5 301> 622 79<346.5 360.5> 666 79<186 198.5> 729 20<386 449 449 449>
VStem: 28 140<135 176> 355 137<217 255 255 255 373 383>
Ref: 732 S 1 0 0 1 104 0
Ref: 97 N 1 0 0 1 0 0
Back
524 17 m 1
 524 0 l 1
 372 0 l 1
 359 16 356 26 356 54 c 1
 307 3 252 -23 192 -23 c 0
 144 -23 97 -4 66 28 c 0
 41 55 28 93 28 139 c 0
 28 236 80 291 187 309 c 2
 243 319 l 2
 312 330 312 330 331 340 c 0
 346 348 355 364 355 382 c 0
 355 418 328 436 274 436 c 0
 205 436 182 418 175 362 c 1
 40 362 l 1
 49 487 125 549 271 549 c 0
 417 549 492 493 492 383 c 2
 492 83 l 2
 492 55 499 40 524 17 c 1
355 217 m 2
 355 255 l 1
 339 247 333 245 296 238 c 2
 248 229 l 2
 190 217 168 197 168 155 c 0
 168 115 197 90 244 90 c 0
 315 90 355 136 355 217 c 2
386 749 m 1
 449 749 l 1
 445 664 413 622 354 622 c 0
 339 622 320 626 299 634 c 2
 228 660 l 2
 216 664 207 666 198 666 c 0
 174 666 163 653 158 621 c 1
 95 621 l 1
 99 699 134 745 189 745 c 0
 208 745 209 745 245 732 c 2
 316 707 l 2
 323 704 343 701 350 701 c 0
 371 701 383 717 386 749 c 1
EndSplineSet
EndChar
StartChar: adieresis
Encoding: 228 228
Width: 556
Flags: HMW
HStem: -23 113<220.5 222> 436 113<239.5 301> 621 122<124 234 310 420>
VStem: 28 140<135 176> 214 110 355 137<217 255 255 255 373 383>
Ref: 168 S 1 0 0 1 106 0
Ref: 97 N 1 0 0 1 0 0
Back
524 17 m 1
 524 0 l 1
 372 0 l 1
 359 16 356 26 356 54 c 1
 307 3 252 -23 192 -23 c 0
 144 -23 97 -4 66 28 c 0
 41 55 28 93 28 139 c 0
 28 236 80 291 187 309 c 2
 243 319 l 2
 312 330 312 330 331 340 c 0
 346 348 355 364 355 382 c 0
 355 418 328 436 274 436 c 0
 205 436 182 418 175 362 c 1
 40 362 l 1
 49 487 125 549 271 549 c 0
 417 549 492 493 492 383 c 2
 492 83 l 2
 492 55 499 40 524 17 c 1
355 217 m 2
 355 255 l 1
 339 247 333 245 296 238 c 2
 248 229 l 2
 190 217 168 197 168 155 c 0
 168 115 197 90 244 90 c 0
 315 90 355 136 355 217 c 2
234 743 m 1
 234 621 l 1
 124 621 l 1
 124 743 l 1
 234 743 l 1
420 743 m 1
 420 621 l 1
 310 621 l 1
 310 743 l 1
 420 743 l 1
EndSplineSet
EndChar
StartChar: aring
Encoding: 229 229
Width: 556
Flags: HMW
HStem: -23 113<220.5 222> 436 113<239.5 301> 590 48<261 284> 722 48<261 284.5>
VStem: 28 140<135 176> 355 137<217 255 255 255 373 383>
Ref: 730 S 1 0 0 1 105 0
Ref: 97 N 1 0 0 1 0 0
Back
524 17 m 1
 524 0 l 1
 372 0 l 1
 359 16 356 26 356 54 c 1
 307 3 252 -23 192 -23 c 0
 144 -23 97 -4 66 28 c 0
 41 55 28 93 28 139 c 0
 28 236 80 291 187 309 c 2
 243 319 l 2
 312 330 312 330 331 340 c 0
 346 348 355 364 355 382 c 0
 355 418 328 436 274 436 c 0
 205 436 182 418 175 362 c 1
 40 362 l 1
 49 487 125 549 271 549 c 0
 417 549 492 493 492 383 c 2
 492 83 l 2
 492 55 499 40 524 17 c 1
355 217 m 2
 355 255 l 1
 339 247 333 245 296 238 c 2
 248 229 l 2
 190 217 168 197 168 155 c 0
 168 115 197 90 244 90 c 0
 315 90 355 136 355 217 c 2
273 770 m 0
 323 770 362 730 362 679 c 0
 362 630 321 590 272 590 c 0
 222 590 182 630 182 680 c 0
 182 730 222 770 273 770 c 0
273 722 m 0
 249 722 230 703 230 680 c 0
 230 657 249 638 273 638 c 0
 295 638 314 657 314 680 c 0
 314 703 296 722 273 722 c 0
EndSplineSet
EndChar
StartChar: ae
Encoding: 230 230
Width: 889
Flags: W
HStem: -24 113<219.5 235.5> -23 107<588.5 632> 226 93<495 711> 436 113<237.5 297.5> 442 107<570.5 634.5>
VStem: 27 140<134.5 175.5>
Fore
712 152 m 1
 850 152 l 1
 819 45 721 -23 600 -23 c 0
 512 -23 442 13 400 81 c 1
 338 8 276 -24 195 -24 c 0
 92 -24 27 40 27 141 c 0
 27 239 78 294 186 312 c 2
 242 322 l 2
 311 333 311 333 330 343 c 0
 345 351 354 367 354 383 c 0
 354 419 326 436 269 436 c 0
 206 436 181 416 174 362 c 1
 43 362 l 1
 45 486 122 549 271 549 c 0
 349 549 408 532 446 499 c 1
 487 532 540 549 601 549 c 0
 713 549 799 491 836 392 c 0
 849 355 857 304 857 250 c 0
 857 245 857 238 856 226 c 1
 494 226 l 1
 494 180 499 156 514 133 c 0
 534 102 569 84 608 84 c 0
 656 84 700 113 712 152 c 1
354 216 m 2
 354 254 l 1
 337 244 325 240 295 235 c 2
 247 228 l 2
 194 221 167 196 167 155 c 0
 167 114 196 89 243 89 c 0
 315 89 354 134 354 216 c 2
495 319 m 1
 711 319 l 1
 704 400 667 442 602 442 c 0
 538 442 501 400 495 319 c 1
EndSplineSet
EndChar
StartChar: ccedilla
Encoding: 231 231
Width: 556
Flags: MW
HStem: -220 50<241 264> -94 184 436 113<268 316.5>
VStem: 34 140<231.5 285> 306 86<-140.5 -118.5>
Fore
291 -23 m 1
 274 -63 l 1
 287 -58 300 -56 315 -56 c 0
 363 -56 392 -83 392 -127 c 0
 392 -187 346 -220 263 -220 c 0
 219 -220 185 -213 125 -192 c 1
 144 -140 l 1
 195 -163 221 -170 248 -170 c 0
 280 -170 306 -152 306 -129 c 0
 306 -108 286 -94 255 -94 c 0
 235 -94 224 -97 205 -106 c 1
 248 -21 l 1
 110 -3 34 96 34 259 c 0
 34 443 128 549 289 549 c 0
 424 549 512 470 522 338 c 1
 388 338 l 1
 372 409 345 436 288 436 c 0
 248 436 217 420 201 390 c 0
 184 358 174 310 174 260 c 0
 174 203 189 151 212 123 c 0
 228 103 259 90 289 90 c 0
 342 90 371 118 388 187 c 1
 522 187 l 1
 511 62 416 -24 291 -23 c 1
EndSplineSet
EndChar
StartChar: egrave
Encoding: 232 232
Width: 556
Flags: HMW
HStem: -23 107<254 299.5> 226 93<164 379> 442 107<239 287.5>
Ref: 96 S 1 0 0 1 115.5 0
Ref: 101 N 1 0 0 1 0 0
Back
524 226 m 1
 162 226 l 1
 164 175 169 151 182 131 c 0
 202 101 234 84 274 84 c 0
 325 84 364 109 381 152 c 1
 519 152 l 1
 488 46 390 -23 269 -23 c 0
 116 -23 22 83 22 256 c 0
 22 437 117 549 272 549 c 0
 381 549 468 490 504 392 c 0
 517 354 525 304 525 250 c 0
 525 243 525 238 524 226 c 1
164 319 m 1
 379 319 l 1
 376 356 370 377 357 397 c 0
 337 425 305 442 270 442 c 0
 208 442 173 401 164 319 c 1
133 757 m 1
 259 757 l 1
 329 607 l 1
 259 607 l 1
 133 757 l 1
EndSplineSet
EndChar
StartChar: eacute
Encoding: 233 233
Width: 556
Flags: HMW
HStem: -23 107<254 299.5> 226 93<164 379> 442 107<239 287.5>
Ref: 180 S 1 0 0 1 102.5 0
Ref: 101 N 1 0 0 1 0 0
Back
524 226 m 1
 162 226 l 1
 164 175 169 151 182 131 c 0
 202 101 234 84 274 84 c 0
 325 84 364 109 381 152 c 1
 519 152 l 1
 488 46 390 -23 269 -23 c 0
 116 -23 22 83 22 256 c 0
 22 437 117 549 272 549 c 0
 381 549 468 490 504 392 c 0
 517 354 525 304 525 250 c 0
 525 243 525 238 524 226 c 1
164 319 m 1
 379 319 l 1
 376 356 370 377 357 397 c 0
 337 425 305 442 270 442 c 0
 208 442 173 401 164 319 c 1
419 757 m 1
 293 607 l 1
 223 607 l 1
 293 757 l 1
 419 757 l 1
EndSplineSet
EndChar
StartChar: ecircumflex
Encoding: 234 234
Width: 556
Flags: HMW
HStem: -23 107<254 299.5> 226 93<164 379> 442 107<239 287.5>
Ref: 710 S 1 0 0 1 113 0.5
Ref: 101 N 1 0 0 1 0 0
Back
524 226 m 1
 162 226 l 1
 164 175 169 151 182 131 c 0
 202 101 234 84 274 84 c 0
 325 84 364 109 381 152 c 1
 519 152 l 1
 488 46 390 -23 269 -23 c 0
 116 -23 22 83 22 256 c 0
 22 437 117 549 272 549 c 0
 381 549 468 490 504 392 c 0
 517 354 525 304 525 250 c 0
 525 243 525 238 524 226 c 1
164 319 m 1
 379 319 l 1
 376 356 370 377 357 397 c 0
 337 425 305 442 270 442 c 0
 208 442 173 401 164 319 c 1
229 757 m 1
 336 757 l 1
 439 607 l 1
 361 607 l 1
 279 707 l 1
 197 607 l 1
 121 607 l 1
 229 757 l 1
EndSplineSet
EndChar
StartChar: edieresis
Encoding: 235 235
Width: 556
Flags: HMW
HStem: -23 107<254 299.5> 226 93<164 379> 442 107<239 287.5> 621 122<132 242 318 428>
VStem: 22 110 208 110
Ref: 168 S 1 0 0 1 114.5 0
Ref: 101 N 1 0 0 1 0 0
Back
524 226 m 1
 162 226 l 1
 164 175 169 151 182 131 c 0
 202 101 234 84 274 84 c 0
 325 84 364 109 381 152 c 1
 519 152 l 1
 488 46 390 -23 269 -23 c 0
 116 -23 22 83 22 256 c 0
 22 437 117 549 272 549 c 0
 381 549 468 490 504 392 c 0
 517 354 525 304 525 250 c 0
 525 243 525 238 524 226 c 1
164 319 m 1
 379 319 l 1
 376 356 370 377 357 397 c 0
 337 425 305 442 270 442 c 0
 208 442 173 401 164 319 c 1
242 743 m 1
 242 621 l 1
 132 621 l 1
 132 743 l 1
 242 743 l 1
428 743 m 1
 428 621 l 1
 318 621 l 1
 318 743 l 1
 428 743 l 1
EndSplineSet
EndChar
StartChar: igrave
Encoding: 236 236
Width: 278
Flags: HMW
HStem: 0 20 520 20<67 207 207 207>
VStem: 67 140<0 540>
Ref: 96 S 1 0 0 1 -27 0
Ref: 305 N 1 0 0 1 0 0
Back
207 540 m 1
 207 0 l 1
 67 0 l 1
 67 540 l 1
 207 540 l 1
-10 757 m 1
 116 757 l 1
 186 607 l 1
 116 607 l 1
 -10 757 l 1
EndSplineSet
EndChar
StartChar: iacute
Encoding: 237 237
Width: 278
Flags: HMW
HStem: 0 20 520 20<67 207 207 207>
VStem: 67 140<0 540>
Ref: 180 S 1 0 0 1 -27 0
Ref: 305 N 1 0 0 1 0 0
Back
207 540 m 1
 207 0 l 1
 67 0 l 1
 67 540 l 1
 207 540 l 1
290 757 m 1
 164 607 l 1
 94 607 l 1
 164 757 l 1
 290 757 l 1
EndSplineSet
EndChar
StartChar: icircumflex
Encoding: 238 238
Width: 278
Flags: HMW
HStem: 0 20 520 20<67 207 207 207>
VStem: 67 140<0 540>
Ref: 710 S 1 0 0 1 -27 0
Ref: 305 N 1 0 0 1 0 0
Back
207 540 m 1
 207 0 l 1
 67 0 l 1
 67 540 l 1
 207 540 l 1
89 757 m 1
 196 757 l 1
 299 607 l 1
 221 607 l 1
 139 707 l 1
 57 607 l 1
 -19 607 l 1
 89 757 l 1
EndSplineSet
EndChar
StartChar: idieresis
Encoding: 239 239
Width: 278
Flags: W
HStem: 0 20 520 20<67 207 207 207> 621 122<-9 101 177 287>
VStem: -9 110<621 743> 67 140<0 540> 177 110<621 743>
Ref: 168 S 1 0 0 1 -27 0
Ref: 305 N 1 0 0 1 0 0
Back
207 540 m 1
 207 0 l 1
 67 0 l 1
 67 540 l 1
 207 540 l 1
101 743 m 1
 101 621 l 1
 -9 621 l 1
 -9 743 l 1
 101 743 l 1
287 743 m 1
 287 621 l 1
 177 621 l 1
 177 743 l 1
 287 743 l 1
EndSplineSet
EndChar
StartChar: eth
Encoding: 240 240
Width: 611
Flags: W
HStem: -23 113<264 340> 429 105<264 287> 721 20<192 192> 724 20<381 381>
VStem: 35 141<208.5 311> 428 141<207 309.5>
Fore
432 710 m 1
 348 660 l 1
 499 558 569 435 569 269 c 0
 569 85 470 -23 302 -23 c 0
 135 -23 35 85 35 265 c 0
 35 375 72 452 148 497 c 0
 187 521 231 534 274 534 c 0
 300 534 320 530 359 515 c 1
 332 558 302 589 264 611 c 1
 187 565 l 1
 145 602 l 1
 215 646 l 1
 188 662 174 670 125 694 c 1
 192 741 l 1
 229 727 232 725 279 699 c 0
 280 698 286 695 294 692 c 1
 381 744 l 1
 432 710 l 1
302 429 m 0
 226 429 176 362 176 260 c 0
 176 157 226 90 302 90 c 0
 378 90 428 157 428 257 c 0
 428 362 379 429 302 429 c 0
EndSplineSet
EndChar
StartChar: ntilde
Encoding: 241 241
Width: 611
Flags: W
HStem: 0 20 430 119<328.5 346> 520 20<63 203 203 203> 622 79<376 390> 666 79<215.5 228> 729 20<415.5 478.5 478.5 478.5>
VStem: 63 140<0 324 462 540> 406 140<0 333 333 362>
Ref: 732 S 1 0 0 1 133.5 0
Ref: 110 N 1 0 0 1 0 0
Back
63 540 m 1
 203 540 l 1
 203 462 l 1
 243 522 292 549 365 549 c 0
 480 549 546 481 546 362 c 2
 546 0 l 1
 406 0 l 1
 406 333 l 2
 406 397 376 430 316 430 c 0
 248 430 203 388 203 324 c 2
 203 0 l 1
 63 0 l 1
 63 540 l 1
415 749 m 1
 478 749 l 1
 474 664 442 622 383 622 c 0
 368 622 349 626 328 634 c 2
 257 660 l 2
 245 664 236 666 227 666 c 0
 203 666 192 653 187 621 c 1
 124 621 l 1
 128 699 163 745 218 745 c 0
 237 745 238 745 274 732 c 2
 345 707 l 2
 352 704 372 701 379 701 c 0
 400 701 412 717 415 749 c 1
EndSplineSet
EndChar
StartChar: ograve
Encoding: 242 242
Width: 611
Flags: HMW
HStem: -23 113<264 339.5> 436 113<264 340.5>
VStem: 35 140<211.5 314.5> 429 140<210.5 314>
Ref: 96 S 1 0 0 1 148 0
Ref: 111 N 1 0 0 1 0 0
Back
301 549 m 0
 470 549 569 442 569 259 c 0
 569 86 466 -23 302 -23 c 0
 136 -23 35 85 35 263 c 0
 35 440 136 549 301 549 c 0
302 436 m 0
 226 436 175 366 175 263 c 0
 175 160 226 90 302 90 c 0
 377 90 429 160 429 261 c 0
 429 367 379 436 302 436 c 0
165 757 m 1
 291 757 l 1
 361 607 l 1
 291 607 l 1
 165 757 l 1
EndSplineSet
EndChar
StartChar: oacute
Encoding: 243 243
Width: 611
Flags: HMW
HStem: -23 113<264 339.5> 436 113<264 340.5>
VStem: 35 140<211.5 314.5> 429 140<210.5 314>
Ref: 180 S 1 0 0 1 124 0
Ref: 111 N 1 0 0 1 0 0
Back
301 549 m 0
 470 549 569 442 569 259 c 0
 569 86 466 -23 302 -23 c 0
 136 -23 35 85 35 263 c 0
 35 440 136 549 301 549 c 0
302 436 m 0
 226 436 175 366 175 263 c 0
 175 160 226 90 302 90 c 0
 377 90 429 160 429 261 c 0
 429 367 379 436 302 436 c 0
441 757 m 1
 315 607 l 1
 245 607 l 1
 315 757 l 1
 441 757 l 1
EndSplineSet
EndChar
StartChar: ocircumflex
Encoding: 244 244
Width: 611
Flags: HMW
HStem: -23 113<264 339.5> 436 113<264 340.5>
VStem: 35 140<211.5 314.5> 429 140<210.5 314>
Ref: 710 S 1 0 0 1 135 0
Ref: 111 N 1 0 0 1 0 0
Back
301 549 m 0
 470 549 569 442 569 259 c 0
 569 86 466 -23 302 -23 c 0
 136 -23 35 85 35 263 c 0
 35 440 136 549 301 549 c 0
302 436 m 0
 226 436 175 366 175 263 c 0
 175 160 226 90 302 90 c 0
 377 90 429 160 429 261 c 0
 429 367 379 436 302 436 c 0
251 757 m 1
 358 757 l 1
 461 607 l 1
 383 607 l 1
 301 707 l 1
 219 607 l 1
 143 607 l 1
 251 757 l 1
EndSplineSet
EndChar
StartChar: otilde
Encoding: 245 245
Width: 611
Flags: W
HStem: -23 113<264 339.5> 436 113<264 340.5> 622 79<379.5 393.5> 666 79<219 231.5> 729 20<419 482 482 482>
VStem: 35 140<211.5 314.5> 429 140<210.5 314>
Ref: 732 S 1 0 0 1 137 0
Ref: 111 N 1 0 0 1 0 0
Back
301 549 m 0
 470 549 569 442 569 259 c 0
 569 86 466 -23 302 -23 c 0
 136 -23 35 85 35 263 c 0
 35 440 136 549 301 549 c 0
302 436 m 0
 226 436 175 366 175 263 c 0
 175 160 226 90 302 90 c 0
 377 90 429 160 429 261 c 0
 429 367 379 436 302 436 c 0
419 749 m 1
 482 749 l 1
 478 664 446 622 387 622 c 0
 372 622 353 626 332 634 c 2
 261 660 l 2
 249 664 240 666 231 666 c 0
 207 666 196 653 191 621 c 1
 128 621 l 1
 132 699 167 745 222 745 c 0
 241 745 242 745 278 732 c 2
 349 707 l 2
 356 704 376 701 383 701 c 0
 404 701 416 717 419 749 c 1
EndSplineSet
EndChar
StartChar: odieresis
Encoding: 246 246
Width: 611
Flags: HMW
HStem: -23 113<264 339.5> 436 113<264 340.5> 621 122<154 264 340 450>
VStem: 35 140<211.5 314.5> 221 110 429 140<210.5 314>
Ref: 168 S 1 0 0 1 136 0
Ref: 111 N 1 0 0 1 0 0
Back
301 549 m 0
 470 549 569 442 569 259 c 0
 569 86 466 -23 302 -23 c 0
 136 -23 35 85 35 263 c 0
 35 440 136 549 301 549 c 0
302 436 m 0
 226 436 175 366 175 263 c 0
 175 160 226 90 302 90 c 0
 377 90 429 160 429 261 c 0
 429 367 379 436 302 436 c 0
264 743 m 1
 264 621 l 1
 154 621 l 1
 154 743 l 1
 264 743 l 1
450 743 m 1
 450 621 l 1
 340 621 l 1
 340 743 l 1
 450 743 l 1
EndSplineSet
EndChar
StartChar: divide
Encoding: 247 247
Width: 584
Flags: MW
HStem: -11 123<230 354> 172 119<50 534> 351 123<230 354>
VStem: 230 124<-11 112 351 474>
Fore
534 291 m 1
 534 172 l 1
 50 172 l 1
 50 291 l 1
 534 291 l 1
230 474 m 1
 354 474 l 1
 354 351 l 1
 230 351 l 1
 230 474 l 1
230 112 m 1
 354 112 l 1
 354 -11 l 1
 230 -11 l 1
 230 112 l 1
EndSplineSet
EndChar
StartChar: oslash
Encoding: 248 248
Width: 611
Flags: W
HStem: -23 113<289.5 343> 437 112<265.5 320.5> 537 20<555 555>
VStem: 36 140<251 316> 433 140<210.5 273.5>
Fore
126 35 m 1
 54 -38 l 1
 11 2 l 1
 86 79 l 1
 52 128 36 188 36 263 c 0
 36 441 138 549 305 549 c 0
 378 549 436 529 487 487 c 1
 555 557 l 1
 598 516 l 1
 526 443 l 1
 558 393 573 335 573 263 c 0
 573 86 471 -23 306 -23 c 0
 235 -23 166 -1 126 35 c 1
421 336 m 1
 220 132 l 1
 244 104 273 90 306 90 c 0
 380 90 433 161 433 260 c 0
 433 287 429 312 421 336 c 1
190 184 m 1
 392 390 l 1
 364 424 338 437 303 437 c 0
 228 437 176 366 176 266 c 0
 176 236 181 207 190 184 c 1
EndSplineSet
EndChar
StartChar: ugrave
Encoding: 249 249
Width: 611
Flags: HMW
HStem: -23 119<258 275.5> 520 20<58 198 198 198 401 541 541 541>
VStem: 58 140<164 193 193 540> 401 140<0 64 64 64 202 540>
Ref: 96 S 1 0 0 1 146.5 0
Ref: 117 N 1 0 0 1 0 0
Back
541 0 m 1
 401 0 l 1
 401 64 l 1
 361 4 312 -23 239 -23 c 0
 124 -23 58 45 58 164 c 2
 58 540 l 1
 198 540 l 1
 198 193 l 2
 198 128 228 96 288 96 c 0
 356 96 401 138 401 202 c 2
 401 540 l 1
 541 540 l 1
 541 0 l 1
163 757 m 1
 289 757 l 1
 359 607 l 1
 289 607 l 1
 163 757 l 1
EndSplineSet
EndChar
StartChar: uacute
Encoding: 250 250
Width: 611
Flags: HMW
HStem: -23 119<258 275.5> 520 20<58 198 198 198 401 541 541 541>
VStem: 58 140<164 193 193 540> 401 140<0 64 64 64 202 540>
Ref: 180 S 1 0 0 1 121.5 0
Ref: 117 N 1 0 0 1 0 0
Back
541 0 m 1
 401 0 l 1
 401 64 l 1
 361 4 312 -23 239 -23 c 0
 124 -23 58 45 58 164 c 2
 58 540 l 1
 198 540 l 1
 198 193 l 2
 198 128 228 96 288 96 c 0
 356 96 401 138 401 202 c 2
 401 540 l 1
 541 540 l 1
 541 0 l 1
438 757 m 1
 312 607 l 1
 242 607 l 1
 312 757 l 1
 438 757 l 1
EndSplineSet
EndChar
StartChar: ucircumflex
Encoding: 251 251
Width: 611
Flags: HMW
HStem: -23 119<258 275.5> 520 20<58 198 198 198 401 541 541 541>
VStem: 58 140<164 193 193 540> 401 140<0 64 64 64 202 540>
Ref: 710 S 1 0 0 1 132.5 0
Ref: 117 N 1 0 0 1 0 0
Back
541 0 m 1
 401 0 l 1
 401 64 l 1
 361 4 312 -23 239 -23 c 0
 124 -23 58 45 58 164 c 2
 58 540 l 1
 198 540 l 1
 198 193 l 2
 198 128 228 96 288 96 c 0
 356 96 401 138 401 202 c 2
 401 540 l 1
 541 540 l 1
 541 0 l 1
248 757 m 1
 355 757 l 1
 458 607 l 1
 380 607 l 1
 298 707 l 1
 216 607 l 1
 140 607 l 1
 248 757 l 1
EndSplineSet
EndChar
StartChar: udieresis
Encoding: 252 252
Width: 611
Flags: HMW
HStem: -23 119<258 275.5> 520 20<58 198 198 198 401 541 541 541> 621 122<151 261 337 447>
VStem: 58 140<164 193 193 540> 244 110 401 140<0 64 64 64 202 540>
Ref: 168 S 1 0 0 1 132.5 0
Ref: 117 N 1 0 0 1 0 0
Back
541 0 m 1
 401 0 l 1
 401 64 l 1
 361 4 312 -23 239 -23 c 0
 124 -23 58 45 58 164 c 2
 58 540 l 1
 198 540 l 1
 198 193 l 2
 198 128 228 96 288 96 c 0
 356 96 401 138 401 202 c 2
 401 540 l 1
 541 540 l 1
 541 0 l 1
261 743 m 1
 261 621 l 1
 151 621 l 1
 151 743 l 1
 261 743 l 1
447 743 m 1
 447 621 l 1
 337 621 l 1
 337 743 l 1
 447 743 l 1
EndSplineSet
EndChar
StartChar: yacute
Encoding: 253 253
Width: 556
Flags: HMW
HStem: -219 103<127.5 147.5> 520 20<9 163 163 163 394 538 538 538>
Ref: 180 S 1 0 0 1 94.5 0
Ref: 121 N 1 0 0 1 0 0
Back
394 540 m 1
 538 540 l 1
 316 -99 l 1
 293 -163 276 -186 237 -202 c 0
 213 -212 171 -219 136 -219 c 0
 119 -219 107 -218 86 -215 c 1
 86 -110 l 1
 104 -115 112 -116 123 -116 c 0
 172 -116 210 -77 210 -26 c 2
 210 -23 l 1
 210 -22 l 1
 9 540 l 1
 163 540 l 1
 282 147 l 1
 394 540 l 1
412 757 m 1
 286 607 l 1
 216 607 l 1
 286 757 l 1
 412 757 l 1
EndSplineSet
EndChar
StartChar: thorn
Encoding: 254 254
Width: 611
Flags: MW
HStem: -218 20 -23 117<314 350.5> 432 117<314 351.5> 709 20<58 198 198 198>
VStem: 58 140<-218 64 212 312.5 460 729> 434 140<211 311.5>
Fore
198 729 m 1
 198 460 l 1
 232 520 280 549 348 549 c 0
 478 549 574 427 574 262 c 0
 574 99 478 -23 348 -23 c 0
 280 -23 232 5 198 64 c 1
 198 -218 l 1
 58 -218 l 1
 58 729 l 1
 198 729 l 1
316 432 m 0
 246 432 198 363 198 262 c 0
 198 162 246 94 316 94 c 0
 385 94 434 162 434 260 c 0
 434 363 387 432 316 432 c 0
EndSplineSet
EndChar
StartChar: ydieresis
Encoding: 255 255
Width: 556
Flags: HMW
HStem: -219 103<127.5 147.5> 520 20<9 163 163 163 394 538 538 538> 621 122<125 235 311 421>
VStem: 9 110 195 110
Ref: 168 S 1 0 0 1 107.5 0
Ref: 121 N 1 0 0 1 0 0
Back
394 540 m 1
 538 540 l 1
 316 -99 l 1
 293 -163 276 -186 237 -202 c 0
 213 -212 171 -219 136 -219 c 0
 119 -219 107 -218 86 -215 c 1
 86 -110 l 1
 104 -115 112 -116 123 -116 c 0
 172 -116 210 -77 210 -26 c 2
 210 -23 l 1
 210 -22 l 1
 9 540 l 1
 163 540 l 1
 282 147 l 1
 394 540 l 1
235 743 m 1
 235 621 l 1
 125 621 l 1
 125 743 l 1
 235 743 l 1
421 743 m 1
 421 621 l 1
 311 621 l 1
 311 743 l 1
 421 743 l 1
EndSplineSet
EndChar
StartChar: Amacron
Encoding: 256 256
Width: 722
Flags: HMW
HStem: 0 20 147 125<270 460> 537 20<365 365> 709 20<285 451 451 451> 819 79<215 514>
Ref: 175 S 1 0 0 1 199 179
Ref: 65 N 1 0 0 1 0 0
Back
501 147 m 1
 228 147 l 1
 179 0 l 1
 26 0 l 1
 285 729 l 1
 451 729 l 1
 703 0 l 1
 549 0 l 1
 501 147 l 1
460 272 m 1
 365 557 l 1
 270 272 l 1
 460 272 l 1
514 898 m 1
 514 819 l 1
 215 819 l 1
 215 898 l 1
 514 898 l 1
EndSplineSet
EndChar
StartChar: amacron
Encoding: 257 257
Width: 556
Flags: HMW
HStem: -23 113<220.5 222> 436 113<239.5 301> 640 79<123 422>
VStem: 28 140<135 176> 355 137<217 255 255 255 373 383>
Ref: 175 S 1 0 0 1 106.5 0
Ref: 97 N 1 0 0 1 0 0
Back
524 17 m 1
 524 0 l 1
 372 0 l 1
 359 16 356 26 356 54 c 1
 307 3 252 -23 192 -23 c 0
 144 -23 97 -4 66 28 c 0
 41 55 28 93 28 139 c 0
 28 236 80 291 187 309 c 2
 243 319 l 2
 312 330 312 330 331 340 c 0
 346 348 355 364 355 382 c 0
 355 418 328 436 274 436 c 0
 205 436 182 418 175 362 c 1
 40 362 l 1
 49 487 125 549 271 549 c 0
 417 549 492 493 492 383 c 2
 492 83 l 2
 492 55 499 40 524 17 c 1
355 217 m 2
 355 255 l 1
 339 247 333 245 296 238 c 2
 248 229 l 2
 190 217 168 197 168 155 c 0
 168 115 197 90 244 90 c 0
 315 90 355 136 355 217 c 2
422 719 m 1
 422 640 l 1
 123 640 l 1
 123 719 l 1
 422 719 l 1
EndSplineSet
EndChar
StartChar: Abreve
Encoding: 258 258
Width: 722
Flags: HMW
HStem: 0 20 147 125<270 460> 537 20<365 365> 709 20<285 451 451 451> 784 77<339 384>
Ref: 728 N 1 0 0 1 193.5 179
Ref: 65 N 1 0 0 1 0 0
Back
501 147 m 1
 228 147 l 1
 179 0 l 1
 26 0 l 1
 285 729 l 1
 451 729 l 1
 703 0 l 1
 549 0 l 1
 501 147 l 1
460 272 m 1
 365 557 l 1
 270 272 l 1
 460 272 l 1
493 927 m 1
 493 916 l 2
 493 841 436 784 361 784 c 0
 286 784 229 841 229 917 c 2
 229 927 l 1
 285 927 l 1
 291 883 316 861 362 861 c 0
 406 861 428 881 437 927 c 1
 493 927 l 1
EndSplineSet
EndChar
StartChar: abreve
Encoding: 259 259
Width: 556
Flags: HMW
HStem: -23 113<220.5 222> 436 113<239.5 301> 605 77<253 298> 728 20<143 199 199 199 351 407 407 407>
VStem: 28 140<135 176> 355 137<217 255 255 255 373 383>
Ref: 728 S 1 0 0 1 108 0
Ref: 97 N 1 0 0 1 0 0
Back
524 17 m 1
 524 0 l 1
 372 0 l 1
 359 16 356 26 356 54 c 1
 307 3 252 -23 192 -23 c 0
 144 -23 97 -4 66 28 c 0
 41 55 28 93 28 139 c 0
 28 236 80 291 187 309 c 2
 243 319 l 2
 312 330 312 330 331 340 c 0
 346 348 355 364 355 382 c 0
 355 418 328 436 274 436 c 0
 205 436 182 418 175 362 c 1
 40 362 l 1
 49 487 125 549 271 549 c 0
 417 549 492 493 492 383 c 2
 492 83 l 2
 492 55 499 40 524 17 c 1
355 217 m 2
 355 255 l 1
 339 247 333 245 296 238 c 2
 248 229 l 2
 190 217 168 197 168 155 c 0
 168 115 197 90 244 90 c 0
 315 90 355 136 355 217 c 2
407 748 m 1
 407 737 l 2
 407 662 350 605 275 605 c 0
 200 605 143 662 143 738 c 2
 143 748 l 1
 199 748 l 1
 205 704 230 682 276 682 c 0
 320 682 343 702 351 748 c 1
 407 748 l 1
EndSplineSet
EndChar
StartChar: Aogonek
Encoding: 260 260
Width: 722
Flags: MW
HStem: -233 51<640 661.5> 147 125<270 461> 537 20<366 366> 709 20<285 452 452 452>
VStem: 500 90<-147 -108.5>
Fore
501 147 m 1
 228 147 l 1
 179 0 l 1
 26 0 l 1
 285 729 l 1
 452 729 l 1
 703 0 l 1
 634 -30 590 -80 590 -129 c 0
 590 -165 614 -182 666 -182 c 0
 685 -182 705 -180 723 -177 c 1
 723 -224 l 1
 695 -231 675 -233 648 -233 c 0
 554 -233 500 -198 500 -138 c 0
 500 -79 546 -28 624 0 c 1
 549 0 l 1
 501 147 l 1
461 272 m 1
 366 557 l 1
 270 272 l 1
 461 272 l 1
EndSplineSet
EndChar
StartChar: aogonek
Encoding: 261 261
Width: 556
Flags: W
HStem: -233 51<465 486.5> -23 113<220.5 222> 436 113<239.5 301>
VStem: 28 140<135 176> 325 90<-147 -109.5> 355 137<217 255 255 255 373 383>
Fore
524 17 m 1
 524 0 l 1
 453 -38 415 -82 415 -129 c 0
 415 -165 439 -182 491 -182 c 0
 510 -182 529 -180 548 -177 c 1
 548 -224 l 1
 520 -231 500 -233 473 -233 c 0
 380 -233 325 -198 325 -139 c 0
 325 -80 372 -27 449 0 c 1
 372 0 l 1
 359 16 356 26 356 54 c 1
 307 3 252 -23 192 -23 c 0
 144 -23 97 -4 66 28 c 0
 41 55 28 93 28 139 c 0
 28 236 80 291 187 309 c 2
 243 319 l 2
 312 330 312 330 331 340 c 0
 346 348 355 364 355 382 c 0
 355 418 328 436 274 436 c 0
 205 436 182 418 175 362 c 1
 40 362 l 1
 49 487 125 549 271 549 c 0
 417 549 492 493 492 383 c 2
 492 83 l 2
 492 55 499 40 524 17 c 1
355 217 m 2
 355 255 l 1
 339 247 333 245 296 238 c 2
 248 229 l 2
 190 217 168 197 168 155 c 0
 168 115 197 90 244 90 c 0
 315 90 355 136 355 217 c 2
EndSplineSet
EndChar
StartChar: Cacute
Encoding: 262 262
Width: 722
Flags: HMW
HStem: -23 126<320 424.5> 613 128<324 409>
VStem: 44 150<276.5 436.5>
Ref: 180 S 1 0 0 1 193 179
Ref: 67 N 1 0 0 1 0 0
Back
682 482 m 1
 539 482 l 1
 530 521 522 540 506 560 c 0
 478 595 435 613 383 613 c 0
 265 613 194 517 194 356 c 0
 194 197 262 103 378 103 c 0
 471 103 530 156 539 249 c 1
 685 249 l 1
 676 82 555 -23 374 -23 c 0
 171 -23 44 124 44 358 c 0
 44 594 172 741 378 741 c 0
 487 741 577 700 633 626 c 0
 664 585 677 545 682 482 c 1
510 936 m 1
 384 786 l 1
 314 786 l 1
 384 936 l 1
 510 936 l 1
EndSplineSet
EndChar
StartChar: cacute
Encoding: 263 263
Width: 556
Flags: HMW
HStem: -23 113<252.5 315> 436 113<268 316.5>
VStem: 34 140<206.5 284.5>
Ref: 180 S 1 0 0 1 111.5 0
Ref: 99 N 1 0 0 1 0 0
Back
522 338 m 1
 388 338 l 1
 372 409 345 436 288 436 c 0
 248 436 217 420 201 390 c 0
 184 358 174 310 174 259 c 0
 174 154 217 90 288 90 c 0
 342 90 370 117 388 187 c 1
 522 187 l 1
 509 58 418 -23 287 -23 c 0
 127 -23 34 81 34 259 c 0
 34 443 128 549 289 549 c 0
 424 549 512 470 522 338 c 1
427 757 m 1
 301 607 l 1
 231 607 l 1
 301 757 l 1
 427 757 l 1
EndSplineSet
EndChar
StartChar: Ccaron
Encoding: 268 268
Width: 722
Flags: HMW
HStem: -23 126<320 424.5> 613 128<324 409>
VStem: 44 150<276.5 436.5>
Ref: 711 S 1 0 0 1 208 179
Ref: 67 N 1 0 0 1 0 0
Back
682 482 m 1
 539 482 l 1
 530 521 522 540 506 560 c 0
 478 595 435 613 383 613 c 0
 265 613 194 517 194 356 c 0
 194 197 262 103 378 103 c 0
 471 103 530 156 539 249 c 1
 685 249 l 1
 676 82 555 -23 374 -23 c 0
 171 -23 44 124 44 358 c 0
 44 594 172 741 378 741 c 0
 487 741 577 700 633 626 c 0
 664 585 677 545 682 482 c 1
427 786 m 1
 320 786 l 1
 217 936 l 1
 295 936 l 1
 377 839 l 1
 459 936 l 1
 535 936 l 1
 427 786 l 1
EndSplineSet
EndChar
StartChar: ccaron
Encoding: 269 269
Width: 556
Flags: HMW
HStem: -23 113<252.5 315> 436 113<268 316.5>
VStem: 34 140<206.5 284.5>
Ref: 711 S 1 0 0 1 122.5 0
Ref: 99 N 1 0 0 1 0 0
Back
522 338 m 1
 388 338 l 1
 372 409 345 436 288 436 c 0
 248 436 217 420 201 390 c 0
 184 358 174 310 174 259 c 0
 174 154 217 90 288 90 c 0
 342 90 370 117 388 187 c 1
 522 187 l 1
 509 58 418 -23 287 -23 c 0
 127 -23 34 81 34 259 c 0
 34 443 128 549 289 549 c 0
 424 549 512 470 522 338 c 1
341 607 m 1
 234 607 l 1
 131 757 l 1
 209 757 l 1
 291 660 l 1
 373 757 l 1
 449 757 l 1
 341 607 l 1
EndSplineSet
EndChar
StartChar: Dcaron
Encoding: 270 270
Width: 722
Flags: HMW
HStem: 0 125<227 362> 604 125<227 362 227 227>
VStem: 77 150<125 604> 531 150<308.5 421>
Ref: 711 S 1 0 0 1 171 179
Ref: 68 N 1 0 0 1 0 0
Back
77 0 m 1
 77 729 l 1
 362 729 l 2
 474 729 543 704 592 645 c 0
 650 576 681 477 681 365 c 0
 681 252 650 153 592 85 c 0
 543 26 473 0 362 0 c 2
 77 0 l 1
227 125 m 1
 362 125 l 2
 475 125 531 204 531 364 c 0
 531 525 475 604 362 604 c 2
 227 604 l 1
 227 125 l 1
390 786 m 1
 283 786 l 1
 180 936 l 1
 258 936 l 1
 340 839 l 1
 422 936 l 1
 498 936 l 1
 390 786 l 1
EndSplineSet
EndChar
StartChar: dcaron
Encoding: 271 271
Width: 611
Flags: W
HStem: -23 117<252 289.5> 432 117<252 289.5> 617 112<598 665> 709 20<405 545 545 545>
VStem: 29 140<225.5 312> 405 140<0 55 55 55 211 311.5 470 729> 598 122<617 626 626 729>
Ref: 63171 S 1 0 0 1 486 789
Ref: 100 N 1 0 0 1 0 0
Back
405 0 m 1
 405 55 l 1
 370 2 323 -23 256 -23 c 0
 190 -23 124 11 87 63 c 0
 51 115 29 189 29 262 c 0
 29 425 127 549 256 549 c 0
 323 549 370 524 405 470 c 1
 405 729 l 1
 545 729 l 1
 545 0 l 1
 405 0 l 1
287 432 m 0
 217 432 169 362 169 262 c 0
 169 163 217 94 287 94 c 0
 357 94 405 162 405 260 c 0
 405 363 358 432 287 432 c 0
598 729 m 1
 720 729 l 1
 720 626 l 2
 720 544 669 484 598 482 c 1
 598 528 l 1
 644 537 666 567 665 617 c 1
 598 617 l 1
 598 729 l 1
EndSplineSet
EndChar
StartChar: Dcroat
Encoding: 272 272
Width: 722
Flags: MW
HStem: 0 125<227 362> 339 80<0 77 227 377> 604 125<227 362 227 227>
VStem: 77 150<125 339 419 604> 537 144<324.5 404>
Fore
77 339 m 1
 0 339 l 1
 0 419 l 1
 77 419 l 1
 77 729 l 1
 362 729 l 2
 477 729 544 704 593 645 c 1
 648 576 681 472 681 365 c 0
 681 257 648 154 593 85 c 0
 545 25 476 0 362 0 c 2
 77 0 l 1
 77 339 l 1
227 339 m 1
 227 125 l 1
 362 125 l 2
 427 125 465 141 491 179 c 0
 522 223 537 285 537 364 c 0
 537 444 522 506 491 550 c 0
 465 588 427 604 362 604 c 2
 227 604 l 1
 227 419 l 1
 377 419 l 1
 377 339 l 1
 227 339 l 1
EndSplineSet
EndChar
StartChar: dcroat
Encoding: 273 273
Width: 611
Flags: MW
HStem: -23 117<252 289.5> 432 117<252.5 290> 596 67<272 405 545 605> 709 20<405 545 545 545>
VStem: 29 140<212.5 312> 405 140<0 55 55 55 211 311.5 470 596 663 729>
Fore
405 596 m 1
 272 596 l 1
 272 663 l 1
 405 663 l 1
 405 729 l 1
 545 729 l 1
 545 663 l 1
 605 663 l 1
 605 596 l 1
 545 596 l 1
 545 0 l 1
 405 0 l 1
 405 55 l 1
 370 2 323 -23 256 -23 c 0
 127 -23 29 100 29 262 c 0
 29 425 127 549 256 549 c 0
 324 549 370 524 405 470 c 1
 405 596 l 1
287 432 m 0
 218 432 169 362 169 262 c 0
 169 163 217 94 287 94 c 0
 357 94 405 162 405 260 c 0
 405 363 358 432 287 432 c 0
EndSplineSet
EndChar
StartChar: Emacron
Encoding: 274 274
Width: 667
Flags: HMW
HStem: 0 125<229 624> 314 125<229 578> 604 125<229 606 229 229> 819 79<195 494>
VStem: 79 150<125 314 439 604>
Ref: 175 S 1 0 0 1 179 179
Ref: 69 N 1 0 0 1 0 0
Back
229 314 m 1
 229 125 l 1
 624 125 l 1
 624 0 l 1
 79 0 l 1
 79 729 l 1
 606 729 l 1
 606 604 l 1
 229 604 l 1
 229 439 l 1
 578 439 l 1
 578 314 l 1
 229 314 l 1
494 898 m 1
 494 819 l 1
 195 819 l 1
 195 898 l 1
 494 898 l 1
EndSplineSet
EndChar
StartChar: emacron
Encoding: 275 275
Width: 556
Flags: HMW
HStem: -23 107<254 299.5> 226 93<164 379> 442 107<239 287.5> 640 79<131 430>
Ref: 175 S 1 0 0 1 115 0
Ref: 101 N 1 0 0 1 0 0
Back
524 226 m 1
 162 226 l 1
 164 175 169 151 182 131 c 0
 202 101 234 84 274 84 c 0
 325 84 364 109 381 152 c 1
 519 152 l 1
 488 46 390 -23 269 -23 c 0
 116 -23 22 83 22 256 c 0
 22 437 117 549 272 549 c 0
 381 549 468 490 504 392 c 0
 517 354 525 304 525 250 c 0
 525 243 525 238 524 226 c 1
164 319 m 1
 379 319 l 1
 376 356 370 377 357 397 c 0
 337 425 305 442 270 442 c 0
 208 442 173 401 164 319 c 1
430 719 m 1
 430 640 l 1
 131 640 l 1
 131 719 l 1
 430 719 l 1
EndSplineSet
EndChar
StartChar: Edotaccent
Encoding: 278 278
Width: 667
Flags: W
HStem: 0 125<229 624> 314 125<229 578> 604 125<229 606 229 229> 800 122<289.5 399.5>
VStem: 79 150<125 314 439 604> 289.5 110<800 922>
Ref: 729 S 1 0 0 1 177.5 179
Ref: 69 N 1 0 0 1 0 0
Back
229 314 m 1
 229 125 l 1
 624 125 l 1
 624 0 l 1
 79 0 l 1
 79 729 l 1
 606 729 l 1
 606 604 l 1
 229 604 l 1
 229 439 l 1
 578 439 l 1
 578 314 l 1
 229 314 l 1
400 922 m 1
 400 800 l 1
 290 800 l 1
 290 922 l 1
 400 922 l 1
EndSplineSet
EndChar
StartChar: edotaccent
Encoding: 279 279
Width: 556
Flags: HMW
HStem: -23 107<254 299.5> 226 93<164 379> 442 107<239 287.5> 621 122<225 335>
VStem: 22 110
Ref: 729 S 1 0 0 1 112.5 0
Ref: 101 N 1 0 0 1 0 0
Back
524 226 m 1
 162 226 l 1
 164 175 169 151 182 131 c 0
 202 101 234 84 274 84 c 0
 325 84 364 109 381 152 c 1
 519 152 l 1
 488 46 390 -23 269 -23 c 0
 116 -23 22 83 22 256 c 0
 22 437 117 549 272 549 c 0
 381 549 468 490 504 392 c 0
 517 354 525 304 525 250 c 0
 525 243 525 238 524 226 c 1
164 319 m 1
 379 319 l 1
 376 356 370 377 357 397 c 0
 337 425 305 442 270 442 c 0
 208 442 173 401 164 319 c 1
335 743 m 1
 335 621 l 1
 225 621 l 1
 225 743 l 1
 335 743 l 1
EndSplineSet
EndChar
StartChar: Eogonek
Encoding: 280 280
Width: 667
Flags: MW
HStem: -233 51<565 587.5> 0 125<229 550> 314 125<229 578> 604 125<229 606 229 229>
VStem: 79 150<125 314 439 604> 425 90<-147 -110>
Fore
229 314 m 1
 229 125 l 1
 624 125 l 1
 624 0 l 1
 553 -38 515 -82 515 -129 c 0
 515 -165 539 -182 591 -182 c 0
 611 -182 630 -180 648 -177 c 1
 648 -224 l 1
 621 -230 601 -233 574 -233 c 0
 479 -233 425 -198 425 -138 c 0
 425 -82 464 -39 550 0 c 1
 79 0 l 1
 79 729 l 1
 606 729 l 1
 606 604 l 1
 229 604 l 1
 229 439 l 1
 578 439 l 1
 578 314 l 1
 229 314 l 1
EndSplineSet
EndChar
StartChar: eogonek
Encoding: 281 281
Width: 556
Flags: MW
HStem: -234 51<395 413> -24 107<254 282> 226 93<163 379> 442 107<238.5 287.5>
VStem: 255 90<-148.5 -114.5>
Fore
478 -177 m 1
 478 -224 l 1
 451 -231 427 -234 399 -234 c 0
 310 -234 255 -197 255 -137 c 0
 255 -92 279 -60 350 -11 c 1
 314 -21 296 -24 268 -24 c 0
 116 -24 21 83 21 256 c 0
 21 437 116 549 271 549 c 0
 380 549 468 490 504 392 c 0
 517 355 525 304 525 250 c 0
 525 245 525 238 524 226 c 1
 162 226 l 1
 164 175 169 151 182 130 c 0
 201 100 234 83 274 83 c 0
 325 83 363 108 380 152 c 1
 518 152 l 1
 504 101 492 83 434 21 c 0
 366 -53 345 -88 345 -131 c 0
 345 -166 369 -183 421 -183 c 0
 441 -183 459 -181 478 -177 c 1
163 319 m 1
 379 319 l 1
 376 356 370 377 356 397 c 0
 337 425 305 442 270 442 c 0
 207 442 172 401 163 319 c 1
EndSplineSet
EndChar
StartChar: Ecaron
Encoding: 282 282
Width: 667
Flags: HMW
HStem: 0 125<229 624> 314 125<229 578> 604 125<229 606 229 229>
VStem: 79 150<125 314 439 604>
Ref: 711 S 1 0 0 1 176.5 179
Ref: 69 N 1 0 0 1 0 0
Back
229 314 m 1
 229 125 l 1
 624 125 l 1
 624 0 l 1
 79 0 l 1
 79 729 l 1
 606 729 l 1
 606 604 l 1
 229 604 l 1
 229 439 l 1
 578 439 l 1
 578 314 l 1
 229 314 l 1
396 786 m 1
 289 786 l 1
 186 936 l 1
 264 936 l 1
 346 839 l 1
 428 936 l 1
 504 936 l 1
 396 786 l 1
EndSplineSet
EndChar
StartChar: ecaron
Encoding: 283 283
Width: 556
Flags: HMW
HStem: -23 107<254 299.5> 226 93<164 379> 442 107<239 287.5>
Ref: 711 S 1 0 0 1 112.5 0
Ref: 101 N 1 0 0 1 0 0
Back
524 226 m 1
 162 226 l 1
 164 175 169 151 182 131 c 0
 202 101 234 84 274 84 c 0
 325 84 364 109 381 152 c 1
 519 152 l 1
 488 46 390 -23 269 -23 c 0
 116 -23 22 83 22 256 c 0
 22 437 117 549 272 549 c 0
 381 549 468 490 504 392 c 0
 517 354 525 304 525 250 c 0
 525 243 525 238 524 226 c 1
164 319 m 1
 379 319 l 1
 376 356 370 377 357 397 c 0
 337 425 305 442 270 442 c 0
 208 442 173 401 164 319 c 1
331 607 m 1
 224 607 l 1
 121 757 l 1
 199 757 l 1
 281 660 l 1
 363 757 l 1
 439 757 l 1
 331 607 l 1
EndSplineSet
EndChar
StartChar: Gbreve
Encoding: 286 286
Width: 778
Flags: HMW
HStem: -23 128<339.5 429> 267 125<419 585> 613 128<332.5 422> 784 77<376 421>
VStem: 42 150<286 439.5>
Ref: 728 S 1 0 0 1 231 179
Ref: 71 N 1 0 0 1 0 0
Back
711 392 m 1
 711 -2 l 1
 621 -2 l 1
 603 94 l 1
 547 12 481 -23 383 -23 c 0
 186 -23 42 138 42 359 c 0
 42 586 185 741 395 741 c 0
 571 741 693 646 711 496 c 1
 570 496 l 1
 557 534 546 551 525 569 c 0
 492 598 448 613 396 613 c 0
 269 613 192 518 192 361 c 0
 192 211 279 105 400 105 c 0
 458 105 513 131 549 175 c 0
 571 201 581 226 585 267 c 1
 419 267 l 1
 419 392 l 1
 711 392 l 1
530 927 m 1
 530 916 l 2
 530 841 473 784 398 784 c 0
 323 784 266 841 266 917 c 2
 266 927 l 1
 322 927 l 1
 328 883 353 861 399 861 c 0
 443 861 465 881 474 927 c 1
 530 927 l 1
EndSplineSet
EndChar
StartChar: gbreve
Encoding: 287 287
Width: 611
Flags: HMW
HStem: -218 90<262.5 324> -23 117<253 286.5> 432 117<254 289> 605 77<284 329> 728 20<174 230 230 230 382 438 438 438>
VStem: 34 140<210 310> 408 133<-18 55 55 55 457 540>
Ref: 728 S 1 0 0 1 139.5 0
Ref: 103 N 1 0 0 1 0 0
Back
408 540 m 1
 541 540 l 1
 541 -18 l 2
 541 -145 447 -218 284 -218 c 0
 201 -218 141 -201 98 -166 c 0
 62 -136 46 -107 45 -65 c 1
 190 -65 l 1
 201 -106 236 -128 289 -128 c 0
 359 -128 408 -83 408 -18 c 2
 408 55 l 1
 356 -4 318 -23 255 -23 c 0
 122 -23 34 89 34 257 c 0
 34 424 130 549 258 549 c 0
 320 549 366 521 408 457 c 1
 408 540 l 1
288 432 m 0
 220 432 174 361 174 259 c 0
 174 161 220 94 286 94 c 0
 359 94 410 161 410 259 c 0
 410 359 358 432 288 432 c 0
438 748 m 1
 438 737 l 2
 438 662 381 605 306 605 c 0
 231 605 174 662 174 738 c 2
 174 748 l 1
 230 748 l 1
 236 704 261 682 307 682 c 0
 351 682 374 702 382 748 c 1
 438 748 l 1
EndSplineSet
EndChar
StartChar: Gcommaaccent
Encoding: 290 290
Width: 778
Flags: HMW
HStem: -172 112<332 399> -23 128<339.5 429> 267 125<419 585> 613 128<332.5 422>
VStem: 42 150<286 439.5>
Ref: 63171 S 1 0 0 1 220 0
Ref: 71 N 1 0 0 1 0 0
Back
711 392 m 1
 711 -2 l 1
 621 -2 l 1
 603 94 l 1
 547 12 481 -23 383 -23 c 0
 186 -23 42 138 42 359 c 0
 42 586 185 741 395 741 c 0
 571 741 693 646 711 496 c 1
 570 496 l 1
 557 534 546 551 525 569 c 0
 492 598 448 613 396 613 c 0
 269 613 192 518 192 361 c 0
 192 211 279 105 400 105 c 0
 458 105 513 131 549 175 c 0
 571 201 581 226 585 267 c 1
 419 267 l 1
 419 392 l 1
 711 392 l 1
332 -60 m 1
 454 -60 l 1
 454 -163 l 2
 454 -245 403 -305 332 -307 c 1
 332 -261 l 1
 378 -252 400 -222 399 -172 c 1
 332 -172 l 1
 332 -60 l 1
EndSplineSet
EndChar
StartChar: gcommaaccent
Encoding: 291 291
Width: 611
Flags: HMW
HStem: -218 90<262.5 324> -23 117<253 286.5> 432 117<254 289> 606 112<298 365>
VStem: 34 140<210 310> 408 133<-18 55 55 55 457 540>
Ref: 63171 S -1 -0 0 -1 477 546
Ref: 103 N 1 0 0 1 0 0
Back
408 540 m 1
 541 540 l 1
 541 -18 l 2
 541 -145 447 -218 284 -218 c 0
 201 -218 141 -201 98 -166 c 0
 62 -136 46 -107 45 -65 c 1
 190 -65 l 1
 201 -106 236 -128 289 -128 c 0
 359 -128 408 -83 408 -18 c 2
 408 55 l 1
 356 -4 318 -23 255 -23 c 0
 122 -23 34 89 34 257 c 0
 34 424 130 549 258 549 c 0
 320 549 366 521 408 457 c 1
 408 540 l 1
288 432 m 0
 220 432 174 361 174 259 c 0
 174 161 220 94 286 94 c 0
 359 94 410 161 410 259 c 0
 410 359 358 432 288 432 c 0
365 606 m 1
 243 606 l 1
 243 709 l 2
 243 791 294 851 365 853 c 1
 365 807 l 1
 319 798 297 768 298 718 c 1
 365 718 l 1
 365 606 l 1
EndSplineSet
EndChar
StartChar: Hbar
Encoding: 294 294
Width: 722
Flags: W
HStem: 0 21G<68 218 507 657> 331 125<218 506> 709 20G<68 218 506 657>
VStem: 68 150<1 330 457 728> 507 150<1 330 457 728>
Fore
507 331 m 1
 218 331 l 1
 218 0 l 1
 68 0 l 1
 68 729 l 1
 218 729 l 1
 218 456 l 1
 506 456 l 1
 506 729 l 1
 657 729 l 1
 657 0 l 1
 507 0 l 1
 507 331 l 1
EndSplineSet
MinimumDistance: x9,-1 y6,4 y6,5 y1,3 y1,2 y0,10 y0,11 
EndChar
StartChar: hbar
Encoding: 295 295
Width: 611
Flags: W
HStem: 0 21G<67 207 401 541> 429.996 119.004<315 365> 709 20G<67 207>
VStem: 67 140<1 336 463 728> 401 140<1 352>
Fore
67 729 m 1
 207 729 l 1
 207 462 l 1
 246 521 296 549 365 549 c 0
 410 549 455 534 486 508 c 0
 523 477 541 429 541 362 c 2
 541 0 l 1
 401 0 l 1
 401 330 l 2
 401 365 397 379 385 397 c 0
 369 419 345 430 315 430 c 0
 252 430 207 386 207 324 c 2
 207 0 l 1
 67 0 l 1
 67 729 l 1
EndSplineSet
MinimumDistance: x5,-1 
EndChar
StartChar: Imacron
Encoding: 298 298
Width: 278
Flags: HMW
HStem: 0 20 709 20<63 213 213 213> 819 79<2 274>
VStem: 63 150<0 729>
Ref: 175 S 0.909699 0 0 1 -12.5552 179
Ref: 73 N 1 0 0 1 0 0
Back
213 729 m 1
 213 0 l 1
 63 0 l 1
 63 729 l 1
 213 729 l 1
274 898 m 1
 274 819 l 1
 2 819 l 1
 2 898 l 1
 274 898 l 1
EndSplineSet
EndChar
StartChar: imacron
Encoding: 299 299
Width: 278
Flags: W
HStem: 0 20 520 20<67 207 207 207> 640 79<7.00001 266>
VStem: 67 140<0 540>
Ref: 175 S 0.866221 0 0 1 -6.85953 0
Ref: 305 N 1 0 0 1 0 0
Back
207 540 m 1
 207 0 l 1
 67 0 l 1
 67 540 l 1
 207 540 l 1
266 719 m 1
 266 640 l 1
 7 640 l 1
 7 719 l 1
 266 719 l 1
EndSplineSet
EndChar
StartChar: Iogonek
Encoding: 302 302
Width: 278
Flags: MW
HStem: -233 51<168.5 178> 709 20<63 213 213 213>
VStem: 34 90<-146 -110>
Fore
213 729 m 1
 213 0 l 1
 156 -41 124 -88 124 -131 c 0
 124 -161 150 -182 187 -182 c 0
 200 -182 221 -180 237 -177 c 1
 237 -224 l 1
 211 -230 189 -233 167 -233 c 0
 85 -233 34 -196 34 -136 c 0
 34 -84 70 -41 147 0 c 1
 63 0 l 1
 63 729 l 1
 213 729 l 1
EndSplineSet
EndChar
StartChar: iogonek
Encoding: 303 303
Width: 278
Flags: W
HStem: -233 51 604 125<67 207>
VStem: 34 90<-139 -111.5> 67 140<0 540 604 729>
Fore
207 540 m 1
 207 0 l 1
 153 -38 124 -83 124 -128 c 0
 124 -150 129 -161 146 -171 c 0
 158 -178 172 -182 187 -182 c 0
 198 -182 208 -181 231 -177 c 1
 231 -224 l 1
 200 -231 188 -233 168 -233 c 0
 85 -233 34 -196 34 -136 c 0
 34 -87 69 -44 144 0 c 1
 67 0 l 1
 67 540 l 1
 207 540 l 1
207 729 m 1
 207 604 l 1
 67 604 l 1
 67 729 l 1
 207 729 l 1
EndSplineSet
EndChar
StartChar: Idotaccent
Encoding: 304 304
Width: 278
Flags: HMW
HStem: 0 20 709 20<63 213 213 213> 800 122<83 193>
VStem: 63 150<0 729>
Ref: 729 S 1 0 0 1 -29 179
Ref: 73 N 1 0 0 1 0 0
Back
213 729 m 1
 213 0 l 1
 63 0 l 1
 63 729 l 1
 213 729 l 1
193 922 m 1
 193 800 l 1
 83 800 l 1
 83 922 l 1
 193 922 l 1
EndSplineSet
EndChar
StartChar: dotlessi
Encoding: 305 305
Width: 278
Flags: MW
HStem: 0 20 520 20<67 207 207 207>
VStem: 67 140<0 540>
Fore
207 540 m 1
 207 0 l 1
 67 0 l 1
 67 540 l 1
 207 540 l 1
EndSplineSet
EndChar
StartChar: jcircumflex
Encoding: 309 309
Width: 278
HStem: 520 20G<70 210>
VStem: 4 205.763<-106 -105> 70 140<-74 539>
Fore
210 540 m 1
 210 -94 l 2
 210 -182 174 -218 87 -218 c 0
 67 -218 32 -216 4 -213 c 1
 4 -101 l 1
 14 -104 20 -105 29 -105 c 0
 59 -105 70 -94 70 -63 c 2
 70 540 l 1
 210 540 l 1
89 783 m 1
 196 783 l 1
 299 633 l 1
 221 633 l 1
 139 733 l 1
 57 633 l 1
 -19 633 l 1
 89 783 l 1
EndSplineSet
MinimumDistance: x0,-1 
EndChar
StartChar: Kcommaaccent
Encoding: 310 310
Width: 722
Flags: HMW
HStem: -172 112<315 382> 0 20 709 20<74 224 224 224 509 686 686 686>
VStem: 74 150<0 244 409 729>
Ref: 63171 S 1 0 0 1 203 0
Ref: 75 N 1 0 0 1 0 0
Back
224 244 m 1
 224 0 l 1
 74 0 l 1
 74 729 l 1
 224 729 l 1
 224 409 l 1
 509 729 l 1
 686 729 l 1
 395 415 l 1
 717 0 l 1
 538 0 l 1
 299 322 l 1
 224 244 l 1
315 -60 m 1
 437 -60 l 1
 437 -163 l 2
 437 -245 386 -305 315 -307 c 1
 315 -261 l 1
 361 -252 383 -222 382 -172 c 1
 315 -172 l 1
 315 -60 l 1
EndSplineSet
EndChar
StartChar: kcommaaccent
Encoding: 311 311
Width: 556
Flags: HMW
HStem: -172 112<229 296> 0 20 709 20<59 199 199 199>
VStem: 59 140<0 177 330 729>
Ref: 63171 S 1 0 0 1 117 0
Ref: 107 N 1 0 0 1 0 0
Back
199 330 m 1
 376 540 l 1
 535 540 l 1
 351 336 l 1
 548 0 l 1
 384 0 l 1
 255 238 l 1
 199 177 l 1
 199 0 l 1
 59 0 l 1
 59 729 l 1
 199 729 l 1
 199 330 l 1
229 -60 m 1
 351 -60 l 1
 351 -163 l 2
 351 -245 300 -305 229 -307 c 1
 229 -261 l 1
 275 -252 297 -222 296 -172 c 1
 229 -172 l 1
 229 -60 l 1
EndSplineSet
EndChar
StartChar: Lacute
Encoding: 313 313
Width: 611
Flags: HMW
HStem: 0 125<230 579> 709 20<80 230 230 230>
VStem: 80 150<125 729>
Ref: 180 S 1 0 0 1 -19 179
Ref: 76 N 1 0 0 1 0 0
Back
230 729 m 1
 230 125 l 1
 579 125 l 1
 579 0 l 1
 80 0 l 1
 80 729 l 1
 230 729 l 1
298 936 m 1
 172 786 l 1
 102 786 l 1
 172 936 l 1
 298 936 l 1
EndSplineSet
EndChar
StartChar: lacute
Encoding: 314 314
Width: 278
Flags: HMW
HStem: 0 20 709 20<67 207 207 207>
VStem: 67 140<0 729>
Ref: 180 S 1 0 0 1 -39 179
Ref: 108 N 1 0 0 1 0 0
Back
207 729 m 1
 207 0 l 1
 67 0 l 1
 67 729 l 1
 207 729 l 1
278 936 m 1
 152 786 l 1
 82 786 l 1
 152 936 l 1
 278 936 l 1
EndSplineSet
EndChar
StartChar: Lcommaaccent
Encoding: 315 315
Width: 611
Flags: W
HStem: -172 112<269 336> 0 125<230 579> 709 20<80 230 230 230>
VStem: 80 150<125 729> 269 122<-172 -163 -163 -60>
Ref: 63171 S 1 0 0 1 157 0
Ref: 76 N 1 0 0 1 0 0
Back
230 729 m 1
 230 125 l 1
 579 125 l 1
 579 0 l 1
 80 0 l 1
 80 729 l 1
 230 729 l 1
269 -60 m 1
 391 -60 l 1
 391 -163 l 2
 391 -245 340 -305 269 -307 c 1
 269 -261 l 1
 315 -252 337 -222 336 -172 c 1
 269 -172 l 1
 269 -60 l 1
EndSplineSet
EndChar
StartChar: lcommaaccent
Encoding: 316 316
Width: 278
Flags: HMW
HStem: -172 112<78 145> 0 20 709 20<67 207 207 207>
VStem: 67 140<0 729>
Ref: 63171 S 1 0 0 1 -34 0
Ref: 108 N 1 0 0 1 0 0
Back
207 729 m 1
 207 0 l 1
 67 0 l 1
 67 729 l 1
 207 729 l 1
78 -60 m 1
 200 -60 l 1
 200 -163 l 2
 200 -245 149 -305 78 -307 c 1
 78 -261 l 1
 124 -252 146 -222 145 -172 c 1
 78 -172 l 1
 78 -60 l 1
EndSplineSet
EndChar
StartChar: Lcaron
Encoding: 317 317
Width: 611
Flags: W
HStem: 0 125<230 579> 617 112<330 397> 709 20<80 230 230 230>
VStem: 80 150<125 729> 330 122<617 626 626 729>
Ref: 63171 S 1 0 0 1 218 789
Ref: 76 N 1 0 0 1 0 0
Back
230 729 m 1
 230 125 l 1
 579 125 l 1
 579 0 l 1
 80 0 l 1
 80 729 l 1
 230 729 l 1
330 729 m 1
 452 729 l 1
 452 626 l 2
 452 544 401 484 330 482 c 1
 330 528 l 1
 376 537 398 567 397 617 c 1
 330 617 l 1
 330 729 l 1
EndSplineSet
EndChar
StartChar: lcaron
Encoding: 318 318
Width: 278
Flags: W
HStem: 0 20 616 112<260 327> 709 20<67 207 207 207>
VStem: 67 140<0 729> 260 122<616 625 625 728>
Ref: 63171 S 1 0 0 1 148 788
Ref: 108 N 1 0 0 1 0 0
Back
207 729 m 1
 207 0 l 1
 67 0 l 1
 67 729 l 1
 207 729 l 1
260 729 m 1
 382 729 l 1
 382 626 l 2
 382 544 331 484 260 482 c 1
 260 528 l 1
 306 537 328 567 327 617 c 1
 260 617 l 1
 260 729 l 1
EndSplineSet
EndChar
StartChar: Lslash
Encoding: 321 321
Width: 611
Flags: MW
HStem: 0 125<230 597> 709 20<80 230 230 230>
VStem: 80 150<125 257 257 257 423 729>
Fore
230 423 m 1
 395 535 l 1
 395 447 l 1
 230 334 l 1
 230 125 l 1
 597 125 l 1
 597 0 l 1
 80 0 l 1
 80 257 l 1
 0 201 l 1
 0 290 l 1
 80 346 l 1
 80 729 l 1
 230 729 l 1
 230 423 l 1
EndSplineSet
EndChar
StartChar: lslash
Encoding: 322 322
Width: 278
Flags: MW
HStem: 0 20 709 20<56 196 196 196>
VStem: 56 140<0 294 294 294 442 729>
Fore
196 442 m 1
 252 482 l 1
 252 403 l 1
 196 363 l 1
 196 0 l 1
 56 0 l 1
 56 294 l 1
 0 254 l 1
 0 333 l 1
 56 373 l 1
 56 729 l 1
 196 729 l 1
 196 442 l 1
EndSplineSet
EndChar
StartChar: Nacute
Encoding: 323 323
Width: 722
Flags: HMW
HStem: 0 20 709 20<68 222 222 222 511 661 661 661>
VStem: 68 150<0 504> 511 150<233 729>
Ref: 180 S 1 0 0 1 183.5 179
Ref: 78 N 1 0 0 1 0 0
Back
511 0 m 1
 218 504 l 1
 218 0 l 1
 68 0 l 1
 68 729 l 1
 222 729 l 1
 511 233 l 1
 511 729 l 1
 661 729 l 1
 661 0 l 1
 511 0 l 1
500 936 m 1
 374 786 l 1
 304 786 l 1
 374 936 l 1
 500 936 l 1
EndSplineSet
EndChar
StartChar: nacute
Encoding: 324 324
Width: 611
Flags: W
HStem: 0 20 430 119<328.5 346> 520 20<63 203 203 203>
VStem: 63 140<0 324 462 540> 406 140<0 333 333 362>
Ref: 180 S 1 0 0 1 123.5 0
Ref: 110 N 1 0 0 1 0 0
Back
63 540 m 1
 203 540 l 1
 203 462 l 1
 243 522 292 549 365 549 c 0
 480 549 546 481 546 362 c 2
 546 0 l 1
 406 0 l 1
 406 333 l 2
 406 397 376 430 316 430 c 0
 248 430 203 388 203 324 c 2
 203 0 l 1
 63 0 l 1
 63 540 l 1
439 757 m 1
 313 607 l 1
 243 607 l 1
 313 757 l 1
 439 757 l 1
EndSplineSet
EndChar
StartChar: Ncommaaccent
Encoding: 325 325
Width: 722
Flags: W
HStem: -172 112<300 367> 0 20 709 20<68 222 222 222 511 661 661 661>
VStem: 68 150<0 504> 300 122<-172 -163 -163 -60> 511 150<233 729>
Ref: 63171 S 1 0 0 1 188 0
Ref: 78 N 1 0 0 1 0 0
Back
511 0 m 1
 218 504 l 1
 218 0 l 1
 68 0 l 1
 68 729 l 1
 222 729 l 1
 511 233 l 1
 511 729 l 1
 661 729 l 1
 661 0 l 1
 511 0 l 1
300 -60 m 1
 422 -60 l 1
 422 -163 l 2
 422 -245 371 -305 300 -307 c 1
 300 -261 l 1
 346 -252 368 -222 367 -172 c 1
 300 -172 l 1
 300 -60 l 1
EndSplineSet
EndChar
StartChar: ncommaaccent
Encoding: 326 326
Width: 611
Flags: W
HStem: -172 112<244 311> 0 20 430 119<328.5 346> 520 20<63 203 203 203>
VStem: 63 140<0 324 462 540> 244 122<-172 -163 -163 -60> 406 140<0 333 333 362>
Ref: 63171 S 1 0 0 1 132 0
Ref: 110 N 1 0 0 1 0 0
Back
63 540 m 1
 203 540 l 1
 203 462 l 1
 243 522 292 549 365 549 c 0
 480 549 546 481 546 362 c 2
 546 0 l 1
 406 0 l 1
 406 333 l 2
 406 397 376 430 316 430 c 0
 248 430 203 388 203 324 c 2
 203 0 l 1
 63 0 l 1
 63 540 l 1
244 -60 m 1
 366 -60 l 1
 366 -163 l 2
 366 -245 315 -305 244 -307 c 1
 244 -261 l 1
 290 -252 312 -222 311 -172 c 1
 244 -172 l 1
 244 -60 l 1
EndSplineSet
EndChar
StartChar: Ncaron
Encoding: 327 327
Width: 722
Flags: HMW
HStem: 0 20 709 20<68 222 222 222 511 661 661 661>
VStem: 68 150<0 504> 511 150<233 729>
Ref: 711 S 1 0 0 1 198.5 179
Ref: 78 N 1 0 0 1 0 0
Back
511 0 m 1
 218 504 l 1
 218 0 l 1
 68 0 l 1
 68 729 l 1
 222 729 l 1
 511 233 l 1
 511 729 l 1
 661 729 l 1
 661 0 l 1
 511 0 l 1
417 786 m 1
 310 786 l 1
 207 936 l 1
 285 936 l 1
 367 839 l 1
 449 936 l 1
 525 936 l 1
 417 786 l 1
EndSplineSet
EndChar
StartChar: ncaron
Encoding: 328 328
Width: 611
Flags: W
HStem: 0 20 430 119<328.5 346> 520 20<63 203 203 203>
VStem: 63 140<0 324 462 540> 406 140<0 333 333 362>
Ref: 711 S 1 0 0 1 131.5 0
Ref: 110 N 1 0 0 1 0 0
Back
63 540 m 1
 203 540 l 1
 203 462 l 1
 243 522 292 549 365 549 c 0
 480 549 546 481 546 362 c 2
 546 0 l 1
 406 0 l 1
 406 333 l 2
 406 397 376 430 316 430 c 0
 248 430 203 388 203 324 c 2
 203 0 l 1
 63 0 l 1
 63 540 l 1
351 607 m 1
 244 607 l 1
 141 757 l 1
 219 757 l 1
 301 660 l 1
 383 757 l 1
 459 757 l 1
 351 607 l 1
EndSplineSet
EndChar
StartChar: napostrophe
Encoding: 329 329
Width: 611
Flags: W
HStem: 0 21G<63 203 406 546> 429.997 119.003<316 365> 520 20G<63 203>
VStem: 63 140<1 336 463 539> 406 140<1 352>
Fore
63 540 m 1
 203 540 l 1
 203 462 l 1
 243 522 292 549 365 549 c 0
 480 549 546 481 546 362 c 2
 546 0 l 1
 406 0 l 1
 406 333 l 2
 406 397 376 430 316 430 c 0
 248 430 203 388 203 324 c 2
 203 0 l 1
 63 0 l 1
 63 540 l 1
EndSplineSet
MinimumDistance: x4,-1 
EndChar
StartChar: Eng
Encoding: 330 330
Width: 722
Flags: W
HStem: 0 21G<68 218 511 661> 709 20G<68 222 511 661>
VStem: 68 150<1 503> 511 150<234 728>
DStem: 218 504 222 729 511 0 511 233
Fore
511 0 m 1
 218 504 l 1
 218 0 l 1
 68 0 l 1
 68 729 l 1
 222 729 l 1
 511 233 l 1
 511 729 l 1
 661 729 l 1
 661 0 l 1
 511 0 l 1
EndSplineSet
MinimumDistance: x8,-1 
EndChar
StartChar: eng
Encoding: 331 331
Width: 611
Flags: W
HStem: 0 21G<63 203 406 546> 429.997 119.003<316 365> 520 20G<63 203>
VStem: 63 140<1 336 463 539> 406 140<1 352>
Fore
63 540 m 1
 203 540 l 1
 203 462 l 1
 243 522 292 549 365 549 c 0
 480 549 546 481 546 362 c 2
 546 0 l 1
 406 0 l 1
 406 333 l 2
 406 397 376 430 316 430 c 0
 248 430 203 388 203 324 c 2
 203 0 l 1
 63 0 l 1
 63 540 l 1
EndSplineSet
MinimumDistance: x4,-1 
EndChar
StartChar: Omacron
Encoding: 332 332
Width: 778
Flags: HMW
HStem: -23 128<339 443> 613 128<339 442.5> 819 79<242 541>
VStem: 40 150<304.5 413.5> 592 150<302.5 411>
Ref: 175 S 1 0 0 1 225.5 179
Ref: 79 N 1 0 0 1 0 0
Back
390 741 m 0
 495 741 576 709 640 640 c 0
 705 570 742 468 742 354 c 0
 742 251 703 145 640 78 c 0
 577 10 495 -23 391 -23 c 0
 287 -23 205 10 142 78 c 0
 77 147 40 250 40 359 c 0
 40 468 77 570 142 640 c 0
 204 707 288 741 390 741 c 0
391 613 m 0
 270 613 190 512 190 359 c 0
 190 206 270 105 391 105 c 0
 511 105 592 206 592 355 c 0
 592 513 514 613 391 613 c 0
541 898 m 1
 541 819 l 1
 242 819 l 1
 242 898 l 1
 541 898 l 1
EndSplineSet
EndChar
StartChar: omacron
Encoding: 333 333
Width: 611
Flags: HMW
HStem: -23 113<264 339.5> 436 113<264 340.5> 640 79<153 452>
VStem: 35 140<211.5 314.5> 429 140<210.5 314>
Ref: 175 N 1 0 0 1 136.5 0
Ref: 111 N 1 0 0 1 0 0
Back
301 549 m 0
 470 549 569 442 569 259 c 0
 569 86 466 -23 302 -23 c 0
 136 -23 35 85 35 263 c 0
 35 440 136 549 301 549 c 0
302 436 m 0
 226 436 175 366 175 263 c 0
 175 160 226 90 302 90 c 0
 377 90 429 160 429 261 c 0
 429 367 379 436 302 436 c 0
452 719 m 1
 452 640 l 1
 153 640 l 1
 153 719 l 1
 452 719 l 1
EndSplineSet
EndChar
StartChar: Ohungarumlaut
Encoding: 336 336
Width: 778
Flags: HMW
HStem: -23 128<339 443> 613 128<339 442.5>
VStem: 40 150<304.5 413.5> 592 150<302.5 411>
Ref: 733 S 1 0 0 1 309 179
Ref: 79 N 1 0 0 1 0 0
Back
390 741 m 0
 495 741 576 709 640 640 c 0
 705 570 742 468 742 354 c 0
 742 251 703 145 640 78 c 0
 577 10 495 -23 391 -23 c 0
 287 -23 205 10 142 78 c 0
 77 147 40 250 40 359 c 0
 40 468 77 570 142 640 c 0
 204 707 288 741 390 741 c 0
391 613 m 0
 270 613 190 512 190 359 c 0
 190 206 270 105 391 105 c 0
 511 105 592 206 592 355 c 0
 592 513 514 613 391 613 c 0
461 936 m 1
 335 789 l 1
 265 789 l 1
 335 936 l 1
 461 936 l 1
649 936 m 1
 523 789 l 1
 453 789 l 1
 523 936 l 1
 649 936 l 1
EndSplineSet
EndChar
StartChar: ohungarumlaut
Encoding: 337 337
Width: 611
Flags: HMW
HStem: -23 113<264 339.5> 436 113<264 340.5>
VStem: 35 140<211.5 314.5> 429 140<210.5 314>
Ref: 733 S 1 0 0 1 219 0
Ref: 111 N 1 0 0 1 0 0
Back
301 549 m 0
 470 549 569 442 569 259 c 0
 569 86 466 -23 302 -23 c 0
 136 -23 35 85 35 263 c 0
 35 440 136 549 301 549 c 0
302 436 m 0
 226 436 175 366 175 263 c 0
 175 160 226 90 302 90 c 0
 377 90 429 160 429 261 c 0
 429 367 379 436 302 436 c 0
371 757 m 1
 245 610 l 1
 175 610 l 1
 245 757 l 1
 371 757 l 1
559 757 m 1
 433 610 l 1
 363 610 l 1
 433 757 l 1
 559 757 l 1
EndSplineSet
EndChar
StartChar: OE
Encoding: 338 338
Width: 1000
Flags: W
HStem: -23 128<302 359> 0 125<624 970> 314 125<624 923> 604 125<624 951 624 624> 613 128<302.5 361>
VStem: 28 150<283 435.5> 474 150<178 314 439 540 540 540>
Fore
624 314 m 1
 624 125 l 1
 970 125 l 1
 970 0 l 1
 480 0 l 1
 480 59 l 1
 431 -3 393 -23 325 -23 c 0
 152 -23 28 136 28 359 c 0
 28 584 151 741 329 741 c 0
 393 741 432 724 480 677 c 1
 480 729 l 1
 951 729 l 1
 951 604 l 1
 624 604 l 1
 624 439 l 1
 923 439 l 1
 923 314 l 1
 624 314 l 1
474 178 m 1
 474 540 l 1
 445 591 410 613 356 613 c 0
 249 613 178 512 178 359 c 0
 178 207 249 105 355 105 c 0
 409 105 445 127 474 178 c 1
EndSplineSet
EndChar
StartChar: oe
Encoding: 339 339
Width: 944
Flags: W
HStem: -23 107<651 695.5> -23 113<252 327.5> -23 107 -23 113 -23 107 226 93<559 774> 436 113<252 328.5> 442 107<647 682.5>
VStem: 23 140<211.5 314.5>
Fore
776 152 m 1
 914 152 l 1
 882 46 785 -23 664 -23 c 0
 592 -23 528 3 485 52 c 1
 434 2 370 -23 290 -23 c 0
 124 -23 23 85 23 263 c 0
 23 441 124 549 290 549 c 0
 370 549 436 524 485 473 c 1
 528 523 590 549 665 549 c 0
 776 549 863 490 899 392 c 0
 912 354 920 304 920 250 c 0
 920 243 920 238 919 226 c 1
 557 226 l 1
 558 180 564 155 578 132 c 0
 596 102 631 84 671 84 c 0
 720 84 763 112 776 152 c 1
290 436 m 0
 214 436 163 366 163 263 c 0
 163 160 214 90 290 90 c 0
 365 90 417 160 417 261 c 0
 417 367 367 436 290 436 c 0
559 319 m 1
 774 319 l 1
 770 358 764 378 751 397 c 0
 732 424 699 442 666 442 c 0
 628 442 593 421 576 388 c 0
 567 370 562 351 559 319 c 1
EndSplineSet
EndChar
StartChar: Racute
Encoding: 340 340
Width: 722
Flags: HMW
HStem: 0 20 289 125<230 402> 604 125<230 411 230 230>
VStem: 80 150<0 289 414 604> 517 150<493.5 528>
Ref: 180 S 1 0 0 1 177.5 179
Ref: 82 N 1 0 0 1 0 0
Back
230 289 m 1
 230 0 l 1
 80 0 l 1
 80 729 l 1
 471 729 l 2
 533 729 579 713 612 679 c 0
 647 643 667 590 667 532 c 0
 667 443 626 384 544 352 c 1
 637 312 641 302 645 87 c 0
 645 55 654 40 677 27 c 1
 677 0 l 1
 516 0 l 1
 497 35 493 57 493 125 c 0
 493 136 493 154 494 173 c 0
 495 186 495 196 495 202 c 0
 495 263 467 289 402 289 c 2
 230 289 l 1
230 414 m 1
 411 414 l 2
 454 414 474 419 490 433 c 0
 507 448 517 476 517 511 c 0
 517 545 508 570 490 585 c 0
 472 600 454 604 411 604 c 2
 230 604 l 1
 230 414 l 1
494 936 m 1
 368 786 l 1
 298 786 l 1
 368 936 l 1
 494 936 l 1
EndSplineSet
EndChar
StartChar: racute
Encoding: 341 341
Width: 389
Flags: W
HStem: 0 20 410 139<321 333.5> 520 20<63 203 203 203>
VStem: 63 140<0 287 434 540>
Ref: 180 S 1 0 0 1 31.5 0
Ref: 114 N 1 0 0 1 0 0
Back
63 540 m 1
 203 540 l 1
 203 434 l 1
 233 507 289 549 353 549 c 0
 357 549 362 549 370 548 c 1
 370 406 l 1
 351 409 341 410 326 410 c 0
 244 410 203 369 203 287 c 2
 203 0 l 1
 63 0 l 1
 63 540 l 1
348 757 m 1
 222 607 l 1
 152 607 l 1
 222 757 l 1
 348 757 l 1
EndSplineSet
EndChar
StartChar: Rcommaaccent
Encoding: 342 342
Width: 722
Flags: W
HStem: -172 112<318 385> 0 20 289 125<230 402> 604 125<230 411 230 230>
VStem: 80 150<0 289 414 604> 318 122<-172 -163 -163 -60> 517 150<493.5 528>
Ref: 63171 S 1 0 0 1 206 0
Ref: 82 N 1 0 0 1 0 0
Back
230 289 m 1
 230 0 l 1
 80 0 l 1
 80 729 l 1
 471 729 l 2
 533 729 579 713 612 679 c 0
 647 643 667 590 667 532 c 0
 667 443 626 384 544 352 c 1
 637 312 641 302 645 87 c 0
 645 55 654 40 677 27 c 1
 677 0 l 1
 516 0 l 1
 497 35 493 57 493 125 c 0
 493 136 493 154 494 173 c 0
 495 186 495 196 495 202 c 0
 495 263 467 289 402 289 c 2
 230 289 l 1
230 414 m 1
 411 414 l 2
 454 414 474 419 490 433 c 0
 507 448 517 476 517 511 c 0
 517 545 508 570 490 585 c 0
 472 600 454 604 411 604 c 2
 230 604 l 1
 230 414 l 1
318 -60 m 1
 440 -60 l 1
 440 -163 l 2
 440 -245 389 -305 318 -307 c 1
 318 -261 l 1
 364 -252 386 -222 385 -172 c 1
 318 -172 l 1
 318 -60 l 1
EndSplineSet
EndChar
StartChar: rcommaaccent
Encoding: 343 343
Width: 389
Flags: W
HStem: -172 112<74 141> 0 20 410 139<321 333.5> 520 20<63 203 203 203>
VStem: 63 140<0 287 434 540> 74 122<-172 -163 -163 -60>
Ref: 63171 S 1 0 0 1 -38 0
Ref: 114 N 1 0 0 1 0 0
Back
63 540 m 1
 203 540 l 1
 203 434 l 1
 233 507 289 549 353 549 c 0
 357 549 362 549 370 548 c 1
 370 406 l 1
 351 409 341 410 326 410 c 0
 244 410 203 369 203 287 c 2
 203 0 l 1
 63 0 l 1
 63 540 l 1
74 -60 m 1
 196 -60 l 1
 196 -163 l 2
 196 -245 145 -305 74 -307 c 1
 74 -261 l 1
 120 -252 142 -222 141 -172 c 1
 74 -172 l 1
 74 -60 l 1
EndSplineSet
EndChar
StartChar: Rcaron
Encoding: 344 344
Width: 722
Flags: HMW
HStem: 0 20 289 125<230 402> 604 125<230 411 230 230>
VStem: 80 150<0 289 414 604> 517 150<493.5 528>
Ref: 711 S 1 0 0 1 191.5 179
Ref: 82 N 1 0 0 1 0 0
Back
230 289 m 1
 230 0 l 1
 80 0 l 1
 80 729 l 1
 471 729 l 2
 533 729 579 713 612 679 c 0
 647 643 667 590 667 532 c 0
 667 443 626 384 544 352 c 1
 637 312 641 302 645 87 c 0
 645 55 654 40 677 27 c 1
 677 0 l 1
 516 0 l 1
 497 35 493 57 493 125 c 0
 493 136 493 154 494 173 c 0
 495 186 495 196 495 202 c 0
 495 263 467 289 402 289 c 2
 230 289 l 1
230 414 m 1
 411 414 l 2
 454 414 474 419 490 433 c 0
 507 448 517 476 517 511 c 0
 517 545 508 570 490 585 c 0
 472 600 454 604 411 604 c 2
 230 604 l 1
 230 414 l 1
410 786 m 1
 303 786 l 1
 200 936 l 1
 278 936 l 1
 360 839 l 1
 442 936 l 1
 518 936 l 1
 410 786 l 1
EndSplineSet
EndChar
StartChar: rcaron
Encoding: 345 345
Width: 389
Flags: W
HStem: 0 20 410 139<321 333.5> 520 20<63 203 203 203>
VStem: 63 140<0 287 434 540>
Ref: 711 S 1 0 0 1 45.5 0
Ref: 114 N 1 0 0 1 0 0
Back
63 540 m 1
 203 540 l 1
 203 434 l 1
 233 507 289 549 353 549 c 0
 357 549 362 549 370 548 c 1
 370 406 l 1
 351 409 341 410 326 410 c 0
 244 410 203 369 203 287 c 2
 203 0 l 1
 63 0 l 1
 63 540 l 1
264 607 m 1
 157 607 l 1
 54 757 l 1
 132 757 l 1
 214 660 l 1
 296 757 l 1
 372 757 l 1
 264 607 l 1
EndSplineSet
EndChar
StartChar: Sacute
Encoding: 346 346
Width: 667
Flags: HMW
HStem: -23 120<291 387.5> 621 120<275.5 361.5>
VStem: 45 143<504.5 558.5> 489 144<164.5 224.5>
Ref: 180 S 1 0 0 1 148.5 179
Ref: 83 N 1 0 0 1 0 0
Back
607 507 m 1
 467 507 l 1
 462 581 409 621 314 621 c 0
 237 621 188 586 188 531 c 0
 188 478 219 457 326 436 c 2
 440 414 l 2
 575 388 633 328 633 213 c 0
 633 65 522 -23 334 -23 c 0
 148 -23 41 62 32 218 c 1
 178 218 l 1
 183 140 240 97 342 97 c 0
 433 97 489 134 489 195 c 0
 489 254 452 282 352 301 c 2
 250 321 l 2
 102 349 45 404 45 517 c 0
 45 659 146 741 321 741 c 0
 426 741 507 712 556 658 c 0
 592 618 607 574 607 507 c 1
466 936 m 1
 340 786 l 1
 270 786 l 1
 340 936 l 1
 466 936 l 1
EndSplineSet
EndChar
StartChar: sacute
Encoding: 347 347
Width: 556
Flags: HMW
HStem: -23 110<258 308.5> 439 110<244.5 302.5>
VStem: 48 140<378 404> 380 140<133.5 151>
Ref: 180 S 1 0 0 1 102 0
Ref: 115 N 1 0 0 1 0 0
Back
505 366 m 1
 370 366 l 1
 369 415 336 439 269 439 c 0
 220 439 188 419 188 389 c 0
 188 367 198 359 237 347 c 2
 414 296 l 2
 485 275 520 230 520 160 c 0
 520 107 496 57 456 25 c 0
 416 -7 359 -23 284 -23 c 0
 120 -23 33 39 29 157 c 1
 166 157 l 1
 172 128 178 117 193 106 c 0
 211 94 240 87 276 87 c 0
 341 87 380 107 380 140 c 0
 380 162 368 173 333 184 c 2
 166 236 l 2
 114 253 97 262 78 281 c 0
 59 302 48 333 48 369 c 0
 48 480 133 549 270 549 c 0
 415 549 503 480 505 366 c 1
419 757 m 1
 293 607 l 1
 223 607 l 1
 293 757 l 1
 419 757 l 1
EndSplineSet
EndChar
StartChar: Scedilla
Encoding: 350 350
Width: 667
Flags: MW
HStem: -220 50<290 314> -94 191<294 319.5> 621 120<275.5 361.5>
VStem: 45 143<504.5 558.5> 355 86<-140.5 -118.5> 489 144<164.5 224.5>
Fore
340 -23 m 1
 323 -62 l 1
 338 -58 349 -56 364 -56 c 0
 412 -56 441 -83 441 -127 c 0
 441 -187 395 -220 312 -220 c 0
 268 -220 235 -213 174 -192 c 1
 193 -140 l 1
 243 -162 270 -170 298 -170 c 0
 330 -170 355 -152 355 -129 c 0
 355 -108 335 -94 304 -94 c 0
 284 -94 274 -97 255 -106 c 1
 297 -23 l 1
 126 -5 42 72 32 218 c 1
 178 218 l 1
 183 140 240 97 342 97 c 0
 433 97 489 134 489 195 c 0
 489 254 452 282 352 301 c 2
 250 321 l 2
 102 349 45 404 45 517 c 0
 45 659 146 741 321 741 c 0
 426 741 507 712 556 658 c 0
 592 618 607 574 607 507 c 1
 467 507 l 1
 462 581 409 621 314 621 c 0
 237 621 188 586 188 531 c 0
 188 478 219 457 326 436 c 2
 440 414 l 2
 575 388 633 328 633 214 c 0
 633 65 535 -14 340 -23 c 1
EndSplineSet
EndChar
StartChar: scedilla
Encoding: 351 351
Width: 556
Flags: W
HStem: -220 50<231.5 255> -23 110<283 283 283 301> 439 110<244.5 302.5>
VStem: 48 140<378 404> 296 86<-140.5 -118.5> 380 140<123.5 151>
Fore
283 -23 m 1
 264 -63 l 1
 279 -58 291 -56 306 -56 c 0
 353 -56 382 -83 382 -127 c 0
 382 -187 336 -220 254 -220 c 0
 209 -220 180 -214 115 -192 c 1
 134 -140 l 1
 187 -163 211 -170 239 -170 c 0
 271 -170 296 -152 296 -129 c 0
 296 -108 276 -94 245 -94 c 0
 225 -94 215 -97 196 -106 c 1
 239 -22 l 1
 96 -5 34 48 29 157 c 1
 166 157 l 1
 172 128 178 117 193 106 c 0
 211 94 240 87 276 87 c 0
 341 87 380 107 380 140 c 0
 380 162 368 173 333 184 c 2
 166 236 l 2
 114 253 97 262 78 281 c 0
 59 302 48 333 48 369 c 0
 48 480 133 549 270 549 c 0
 415 549 503 480 505 366 c 1
 370 366 l 1
 369 415 336 439 269 439 c 0
 220 439 188 419 188 389 c 0
 188 367 198 359 237 347 c 2
 414 296 l 2
 485 275 520 230 520 160 c 0
 520 52 430 -23 301 -23 c 2
 283 -23 l 1
EndSplineSet
EndChar
StartChar: Scaron
Encoding: 352 352
Width: 667
Flags: HMW
HStem: -23 120<291 387.5> 621 120<275.5 361.5>
VStem: 45 143<504.5 558.5> 489 144<164.5 224.5>
Ref: 711 S 1 0 0 1 160.5 179
Ref: 83 N 1 0 0 1 0 0
Back
607 507 m 1
 467 507 l 1
 462 581 409 621 314 621 c 0
 237 621 188 586 188 531 c 0
 188 478 219 457 326 436 c 2
 440 414 l 2
 575 388 633 328 633 213 c 0
 633 65 522 -23 334 -23 c 0
 148 -23 41 62 32 218 c 1
 178 218 l 1
 183 140 240 97 342 97 c 0
 433 97 489 134 489 195 c 0
 489 254 452 282 352 301 c 2
 250 321 l 2
 102 349 45 404 45 517 c 0
 45 659 146 741 321 741 c 0
 426 741 507 712 556 658 c 0
 592 618 607 574 607 507 c 1
380 786 m 1
 273 786 l 1
 170 936 l 1
 248 936 l 1
 330 839 l 1
 412 936 l 1
 488 936 l 1
 380 786 l 1
EndSplineSet
EndChar
StartChar: scaron
Encoding: 353 353
Width: 556
Flags: HMW
HStem: -23 110<258 308.5> 439 110<244.5 302.5>
VStem: 48 140<378 404> 380 140<133.5 151>
Ref: 711 S 1 0 0 1 113 0
Ref: 115 N 1 0 0 1 0 0
Back
505 366 m 1
 370 366 l 1
 369 415 336 439 269 439 c 0
 220 439 188 419 188 389 c 0
 188 367 198 359 237 347 c 2
 414 296 l 2
 485 275 520 230 520 160 c 0
 520 107 496 57 456 25 c 0
 416 -7 359 -23 284 -23 c 0
 120 -23 33 39 29 157 c 1
 166 157 l 1
 172 128 178 117 193 106 c 0
 211 94 240 87 276 87 c 0
 341 87 380 107 380 140 c 0
 380 162 368 173 333 184 c 2
 166 236 l 2
 114 253 97 262 78 281 c 0
 59 302 48 333 48 369 c 0
 48 480 133 549 270 549 c 0
 415 549 503 480 505 366 c 1
332 607 m 1
 225 607 l 1
 122 757 l 1
 200 757 l 1
 282 660 l 1
 364 757 l 1
 440 757 l 1
 332 607 l 1
EndSplineSet
EndChar
StartChar: Tcaron
Encoding: 356 356
Width: 611
Flags: HMW
HStem: 0 20 604 125<14 235 385 598 385 385>
VStem: 235 150<0 604>
Ref: 711 S 1 0 0 1 142 179
Ref: 84 N 1 0 0 1 0 0
Back
385 604 m 1
 385 0 l 1
 235 0 l 1
 235 604 l 1
 14 604 l 1
 14 729 l 1
 598 729 l 1
 598 604 l 1
 385 604 l 1
361 786 m 1
 254 786 l 1
 151 936 l 1
 229 936 l 1
 311 839 l 1
 393 936 l 1
 469 936 l 1
 361 786 l 1
EndSplineSet
EndChar
StartChar: tcaron
Encoding: 357 357
Width: 333
Flags: W
HStem: -23 106 436 93<14 83 223 301> 716 112<276 343>
VStem: 83 140<118 142 142 436 529 674> 276 122<716 725 725 828>
Ref: 63171 S 1 0 0 1 164 888
Ref: 116 N 1 0 0 1 0 0
Back
301 529 m 1
 301 436 l 1
 223 436 l 1
 223 142 l 2
 223 94 232 83 269 83 c 0
 279 83 287 84 301 86 c 1
 301 -12 l 1
 276 -20 251 -23 220 -23 c 0
 128 -23 83 19 83 104 c 2
 83 436 l 1
 14 436 l 1
 14 529 l 1
 83 529 l 1
 83 674 l 1
 223 674 l 1
 223 529 l 1
 301 529 l 1
276 829 m 1
 398 829 l 1
 398 726 l 2
 398 644 347 584 276 582 c 1
 276 628 l 1
 322 637 344 667 343 717 c 1
 276 717 l 1
 276 829 l 1
EndSplineSet
EndChar
StartChar: Tbar
Encoding: 358 358
Width: 611
Flags: W
HStem: 0 21G<235 385> 604 125<15 234 386 597>
VStem: 14 584<604 728> 235 150<1 604>
Fore
385 604 m 1
 385 0 l 1
 235 0 l 1
 235 604 l 1
 14 604 l 1
 14 729 l 1
 598 729 l 1
 598 604 l 1
 385 604 l 1
EndSplineSet
MinimumDistance: x6,-1 y0,2 y0,1 x0,6 x0,7 
EndChar
StartChar: tbar
Encoding: 359 359
Width: 333
Flags: W
HStem: 436 93<15 83 224 300>
VStem: 14 287<436 529> 83 140<121 436 529 673>
Fore
301 529 m 1
 301 436 l 1
 223 436 l 1
 223 142 l 2
 223 94 232 83 269 83 c 0
 279 83 287 84 301 86 c 1
 301 -12 l 1
 276 -20 251 -23 220 -23 c 0
 128 -23 83 19 83 104 c 2
 83 436 l 1
 14 436 l 1
 14 529 l 1
 83 529 l 1
 83 674 l 1
 223 674 l 1
 223 529 l 1
 301 529 l 1
EndSplineSet
MinimumDistance: x0,-1 y15,13 y15,14 x12,10 x12,11 x2,0 x2,1 
EndChar
StartChar: Umacron
Encoding: 362 362
Width: 722
Flags: HMW
HStem: -23 128<321 409> 709 20<76 226 226 226 504 654 654 654> 819 79<216 515>
VStem: 76 150<235 729> 504 150<235 729>
Ref: 175 S 1 0 0 1 199.5 179
Ref: 85 N 1 0 0 1 0 0
Back
504 729 m 1
 654 729 l 1
 654 235 l 2
 654 153 632 95 583 51 c 0
 530 3 453 -23 365 -23 c 0
 277 -23 200 3 147 51 c 0
 98 95 76 153 76 235 c 2
 76 729 l 1
 226 729 l 1
 226 235 l 2
 226 147 271 105 365 105 c 0
 459 105 504 147 504 235 c 2
 504 729 l 1
515 898 m 1
 515 819 l 1
 216 819 l 1
 216 898 l 1
 515 898 l 1
EndSplineSet
EndChar
StartChar: umacron
Encoding: 363 363
Width: 611
Flags: HMW
HStem: -23 119<258 275.5> 520 20<58 198 198 198 401 541 541 541> 640 79<150 449>
VStem: 58 140<164 193 193 540> 401 140<0 64 64 64 202 540>
Ref: 175 N 1 0 0 1 134 0
Ref: 117 N 1 0 0 1 0 0
Back
541 0 m 1
 401 0 l 1
 401 64 l 1
 361 4 312 -23 239 -23 c 0
 124 -23 58 45 58 164 c 2
 58 540 l 1
 198 540 l 1
 198 193 l 2
 198 128 228 96 288 96 c 0
 356 96 401 138 401 202 c 2
 401 540 l 1
 541 540 l 1
 541 0 l 1
449 719 m 1
 449 640 l 1
 150 640 l 1
 150 719 l 1
 449 719 l 1
EndSplineSet
EndChar
StartChar: Uring
Encoding: 366 366
Width: 722
Flags: HMW
HStem: -23 128<321 409> 709 20<76 226 226 226 504 654 654 654> 769 48<354 377> 901 48<354 377.5>
VStem: 76 150<235 729> 504 150<235 729>
Ref: 730 S 1 0 0 1 198 179
Ref: 85 N 1 0 0 1 0 0
Back
504 729 m 1
 654 729 l 1
 654 235 l 2
 654 153 632 95 583 51 c 0
 530 3 453 -23 365 -23 c 0
 277 -23 200 3 147 51 c 0
 98 95 76 153 76 235 c 2
 76 729 l 1
 226 729 l 1
 226 235 l 2
 226 147 271 105 365 105 c 0
 459 105 504 147 504 235 c 2
 504 729 l 1
366 949 m 0
 416 949 455 909 455 858 c 0
 455 809 414 769 365 769 c 0
 315 769 275 809 275 859 c 0
 275 909 315 949 366 949 c 0
366 901 m 0
 342 901 323 882 323 859 c 0
 323 836 342 817 366 817 c 0
 388 817 407 836 407 859 c 0
 407 882 389 901 366 901 c 0
EndSplineSet
EndChar
StartChar: uring
Encoding: 367 367
Width: 611
Flags: HMW
HStem: -23 119<258 275.5> 520 20<58 198 198 198 401 541 541 541> 590 48<288 311> 722 48<288 311.5>
VStem: 58 140<164 193 193 540> 401 140<0 64 64 64 202 540>
Ref: 730 S 1 0 0 1 131.5 0
Ref: 117 N 1 0 0 1 0 0
Back
541 0 m 1
 401 0 l 1
 401 64 l 1
 361 4 312 -23 239 -23 c 0
 124 -23 58 45 58 164 c 2
 58 540 l 1
 198 540 l 1
 198 193 l 2
 198 128 228 96 288 96 c 0
 356 96 401 138 401 202 c 2
 401 540 l 1
 541 540 l 1
 541 0 l 1
300 770 m 0
 350 770 389 730 389 679 c 0
 389 630 348 590 299 590 c 0
 249 590 209 630 209 680 c 0
 209 730 249 770 300 770 c 0
300 722 m 0
 276 722 257 703 257 680 c 0
 257 657 276 638 300 638 c 0
 322 638 341 657 341 680 c 0
 341 703 323 722 300 722 c 0
EndSplineSet
EndChar
StartChar: Uhungarumlaut
Encoding: 368 368
Width: 722
Flags: HMW
HStem: -23 128<321 409> 709 20<76 226 226 226 504 654 654 654>
VStem: 76 150<235 729> 504 150<235 729>
Ref: 733 S 1 0 0 1 281 179
Ref: 85 N 1 0 0 1 0 0
Back
504 729 m 1
 654 729 l 1
 654 235 l 2
 654 153 632 95 583 51 c 0
 530 3 453 -23 365 -23 c 0
 277 -23 200 3 147 51 c 0
 98 95 76 153 76 235 c 2
 76 729 l 1
 226 729 l 1
 226 235 l 2
 226 147 271 105 365 105 c 0
 459 105 504 147 504 235 c 2
 504 729 l 1
433 936 m 1
 307 789 l 1
 237 789 l 1
 307 936 l 1
 433 936 l 1
621 936 m 1
 495 789 l 1
 425 789 l 1
 495 936 l 1
 621 936 l 1
EndSplineSet
EndChar
StartChar: uhungarumlaut
Encoding: 369 369
Width: 611
Flags: HMW
HStem: -23 119<258 275.5> 520 20<58 198 198 198 401 541 541 541>
VStem: 58 140<164 193 193 540> 401 140<0 64 64 64 202 540>
Ref: 733 S 1 0 0 1 218.5 0
Ref: 117 N 1 0 0 1 0 0
Back
541 0 m 1
 401 0 l 1
 401 64 l 1
 361 4 312 -23 239 -23 c 0
 124 -23 58 45 58 164 c 2
 58 540 l 1
 198 540 l 1
 198 193 l 2
 198 128 228 96 288 96 c 0
 356 96 401 138 401 202 c 2
 401 540 l 1
 541 540 l 1
 541 0 l 1
371 757 m 1
 245 610 l 1
 175 610 l 1
 245 757 l 1
 371 757 l 1
559 757 m 1
 433 610 l 1
 363 610 l 1
 433 757 l 1
 559 757 l 1
EndSplineSet
EndChar
StartChar: Uogonek
Encoding: 370 370
Width: 722
Flags: MW
HStem: -234 51<513 531.5> -23 128<322.5 387.5> 709 20<76 226 226 226 504 654 654 654>
VStem: 76 150<235 729> 373 89<-149 -115> 504 150<235 729>
Fore
597 -177 m 1
 597 -224 l 1
 570 -231 546 -234 517 -234 c 0
 490 -234 465 -230 441 -222 c 0
 395 -207 373 -179 373 -138 c 0
 373 -90 400 -55 477 -7 c 1
 429 -20 407 -23 368 -23 c 0
 277 -23 200 3 147 51 c 0
 98 95 76 153 76 235 c 2
 76 729 l 1
 226 729 l 1
 226 235 l 2
 226 147 271 105 365 105 c 0
 459 105 504 147 504 235 c 2
 504 729 l 1
 654 729 l 1
 654 235 l 2
 654 166 638 116 602 69 c 0
 585 48 585 48 527 -13 c 0
 482 -62 462 -98 462 -132 c 0
 462 -166 487 -183 539 -183 c 0
 560 -183 578 -181 597 -177 c 1
EndSplineSet
EndChar
StartChar: uogonek
Encoding: 371 371
Width: 611
Flags: W
HStem: -233 51<480 502.5> -23 119<258 275.5> 520 20<58 198 198 198 401 541 541 541>
VStem: 58 140<164 193 193 540> 340 90<-147 -116.5> 401 140<0 64 64 64 202 540>
Fore
465 0 m 1
 401 0 l 1
 401 64 l 1
 361 4 312 -23 239 -23 c 0
 124 -23 58 45 58 164 c 2
 58 540 l 1
 198 540 l 1
 198 193 l 2
 198 128 228 96 288 96 c 0
 356 96 401 138 401 202 c 2
 401 540 l 1
 541 540 l 1
 541 0 l 1
 468 -37 430 -82 430 -129 c 0
 430 -165 454 -182 506 -182 c 0
 526 -182 545 -180 564 -177 c 1
 564 -224 l 1
 536 -231 516 -233 489 -233 c 0
 395 -233 340 -198 340 -138 c 0
 340 -95 370 -49 419 -21 c 0
 433 -12 441 -9 465 0 c 1
EndSplineSet
EndChar
StartChar: Ydieresis
Encoding: 376 376
Width: 667
Flags: HMW
HStem: 0 20 709 20<27 194 194 194 482 650 650 650> 800 122<194 304 380 490>
VStem: 27 110 269 150<0 270>
Ref: 168 S 1 0 0 1 176.5 179
Ref: 89 N 1 0 0 1 0 0
Back
419 270 m 1
 419 0 l 1
 269 0 l 1
 269 270 l 1
 27 729 l 1
 194 729 l 1
 343 407 l 1
 482 729 l 1
 650 729 l 1
 419 270 l 1
304 922 m 1
 304 800 l 1
 194 800 l 1
 194 922 l 1
 304 922 l 1
490 922 m 1
 490 800 l 1
 380 800 l 1
 380 922 l 1
 490 922 l 1
EndSplineSet
EndChar
StartChar: Zacute
Encoding: 377 377
Width: 611
Flags: HMW
HStem: 0 125<206 578> 604 125<30 403>
Ref: 180 S 1 0 0 1 124 179
Ref: 90 N 1 0 0 1 0 0
Back
578 729 m 1
 578 604 l 1
 206 125 l 1
 578 125 l 1
 578 0 l 1
 30 0 l 1
 30 125 l 1
 403 604 l 1
 30 604 l 1
 30 729 l 1
 578 729 l 1
441 936 m 1
 315 786 l 1
 245 786 l 1
 315 936 l 1
 441 936 l 1
EndSplineSet
EndChar
StartChar: zacute
Encoding: 378 378
Width: 500
Flags: HMW
HStem: 0 113<194 468> 427 113<39 288>
Ref: 180 S 1 0 0 1 70 0
Ref: 122 N 1 0 0 1 0 0
Back
459 540 m 1
 459 427 l 1
 194 113 l 1
 468 113 l 1
 468 0 l 1
 21 0 l 1
 21 113 l 1
 288 427 l 1
 39 427 l 1
 39 540 l 1
 459 540 l 1
387 757 m 1
 261 607 l 1
 191 607 l 1
 261 757 l 1
 387 757 l 1
EndSplineSet
EndChar
StartChar: Zdotaccent
Encoding: 379 379
Width: 611
Flags: HMW
HStem: 0 125<206 578> 604 125<30 403> 800 122<252 362>
VStem: 30 110
Ref: 729 S 1 0 0 1 140 179
Ref: 90 N 1 0 0 1 0 0
Back
578 729 m 1
 578 604 l 1
 206 125 l 1
 578 125 l 1
 578 0 l 1
 30 0 l 1
 30 125 l 1
 403 604 l 1
 30 604 l 1
 30 729 l 1
 578 729 l 1
362 922 m 1
 362 800 l 1
 252 800 l 1
 252 922 l 1
 362 922 l 1
EndSplineSet
EndChar
StartChar: zdotaccent
Encoding: 380 380
Width: 500
Flags: HMW
HStem: 0 113<194 468> 427 113<39 288> 621 122<196 306>
VStem: 21 110
Ref: 729 S 1 0 0 1 84 0
Ref: 122 N 1 0 0 1 0 0
Back
459 540 m 1
 459 427 l 1
 194 113 l 1
 468 113 l 1
 468 0 l 1
 21 0 l 1
 21 113 l 1
 288 427 l 1
 39 427 l 1
 39 540 l 1
 459 540 l 1
306 743 m 1
 306 621 l 1
 196 621 l 1
 196 743 l 1
 306 743 l 1
EndSplineSet
EndChar
StartChar: Zcaron
Encoding: 381 381
Width: 611
Flags: HMW
HStem: 0 125<206 578> 604 125<30 403>
Ref: 711 S 1 0 0 1 139 179
Ref: 90 N 1 0 0 1 0 0
Back
578 729 m 1
 578 604 l 1
 206 125 l 1
 578 125 l 1
 578 0 l 1
 30 0 l 1
 30 125 l 1
 403 604 l 1
 30 604 l 1
 30 729 l 1
 578 729 l 1
358 786 m 1
 251 786 l 1
 148 936 l 1
 226 936 l 1
 308 839 l 1
 390 936 l 1
 466 936 l 1
 358 786 l 1
EndSplineSet
EndChar
StartChar: zcaron
Encoding: 382 382
Width: 500
Flags: HMW
HStem: 0 113<194 468> 427 113<39 288>
Ref: 711 S 1 0 0 1 83 0
Ref: 122 N 1 0 0 1 0 0
Back
459 540 m 1
 459 427 l 1
 194 113 l 1
 468 113 l 1
 468 0 l 1
 21 0 l 1
 21 113 l 1
 288 427 l 1
 39 427 l 1
 39 540 l 1
 459 540 l 1
302 607 m 1
 195 607 l 1
 92 757 l 1
 170 757 l 1
 252 660 l 1
 334 757 l 1
 410 757 l 1
 302 607 l 1
EndSplineSet
EndChar
StartChar: longs
Encoding: 383 383
Width: 333
Flags: W
HStem: 0 21G<90 230> 436 93<15 90> 624 104.193<267 270>
VStem: 90 140<1 435 530 594>
Fore
230 0 m 1
 90 0 l 1
 90 436 l 1
 14 436 l 1
 14 529 l 1
 90 529 l 1
 90 594 l 2
 90 685 135 729 228 729 c 0
 247 729 282 728 308 726 c 1
 308 621 l 1
 296 623 280 624 268 624 c 0
 242 624 230 610 230 582 c 2
 230 0 l 1
EndSplineSet
MinimumDistance: x0,-1 y2,0 y2,1 x5,3 x5,4 
EndChar
StartChar: florin
Encoding: 402 402
Width: 556
Flags: MW
HStem: -220 116<95 119.5> 383 97<104 227 377 500> 628 116<440 454.5>
Fore
500 480 m 1
 500 383 l 1
 363 383 l 1
 304 1 l 2
 291 -84 270 -138 236 -172 c 0
 206 -202 160 -220 111 -220 c 0
 79 -220 52 -214 21 -198 c 1
 45 -83 l 1
 70 -98 86 -104 102 -104 c 0
 137 -104 154 -76 167 7 c 1
 227 383 l 1
 104 383 l 1
 104 480 l 1
 242 480 l 1
 253 539 l 1
 276 681 334 744 439 744 c 0
 470 744 492 740 535 727 c 1
 515 612 l 1
 486 625 476 628 460 628 c 0
 420 628 396 593 384 521 c 2
 377 480 l 1
 500 480 l 1
EndSplineSet
EndChar
StartChar: Scommaaccent
Encoding: 536 536
Width: 667
Flags: W
HStem: -172 112<282 349> -23 120<291 387.5> 621 120<275.5 361.5>
VStem: 45 143<504.5 558.5> 282 122<-172 -163 -163 -60> 489 144<164.5 224.5>
Ref: 63171 S 1 0 0 1 170 0
Ref: 83 N 1 0 0 1 0 0
Back
607 507 m 1
 467 507 l 1
 462 581 409 621 314 621 c 0
 237 621 188 586 188 531 c 0
 188 478 219 457 326 436 c 2
 440 414 l 2
 575 388 633 328 633 213 c 0
 633 65 522 -23 334 -23 c 0
 148 -23 41 62 32 218 c 1
 178 218 l 1
 183 140 240 97 342 97 c 0
 433 97 489 134 489 195 c 0
 489 254 452 282 352 301 c 2
 250 321 l 2
 102 349 45 404 45 517 c 0
 45 659 146 741 321 741 c 0
 426 741 507 712 556 658 c 0
 592 618 607 574 607 507 c 1
282 -60 m 1
 404 -60 l 1
 404 -163 l 2
 404 -245 353 -305 282 -307 c 1
 282 -261 l 1
 328 -252 350 -222 349 -172 c 1
 282 -172 l 1
 282 -60 l 1
EndSplineSet
EndChar
StartChar: scommaaccent
Encoding: 537 537
Width: 556
Flags: W
HStem: -172 112<227 294> -23 110<258 308.5> 439 110<244.5 302.5>
VStem: 48 140<378 404> 227 122<-172 -163 -163 -60> 380 140<133.5 151>
Ref: 63171 S 1 0 0 1 115 0
Ref: 115 N 1 0 0 1 0 0
Back
505 366 m 1
 370 366 l 1
 369 415 336 439 269 439 c 0
 220 439 188 419 188 389 c 0
 188 367 198 359 237 347 c 2
 414 296 l 2
 485 275 520 230 520 160 c 0
 520 107 496 57 456 25 c 0
 416 -7 359 -23 284 -23 c 0
 120 -23 33 39 29 157 c 1
 166 157 l 1
 172 128 178 117 193 106 c 0
 211 94 240 87 276 87 c 0
 341 87 380 107 380 140 c 0
 380 162 368 173 333 184 c 2
 166 236 l 2
 114 253 97 262 78 281 c 0
 59 302 48 333 48 369 c 0
 48 480 133 549 270 549 c 0
 415 549 503 480 505 366 c 1
227 -60 m 1
 349 -60 l 1
 349 -163 l 2
 349 -245 298 -305 227 -307 c 1
 227 -261 l 1
 273 -252 295 -222 294 -172 c 1
 227 -172 l 1
 227 -60 l 1
EndSplineSet
EndChar
StartChar: Tcommaaccent
Encoding: 538 538
Width: 611
Flags: HMW
HStem: -172 112<252 319> 0 20 604 125<14 235 385 598 385 385>
VStem: 14 122 235 150<0 604>
Ref: 63171 S 1 0 0 1 140 0
Ref: 84 N 1 0 0 1 0 0
Back
385 604 m 1
 385 0 l 1
 235 0 l 1
 235 604 l 1
 14 604 l 1
 14 729 l 1
 598 729 l 1
 598 604 l 1
 385 604 l 1
252 -60 m 1
 374 -60 l 1
 374 -163 l 2
 374 -245 323 -305 252 -307 c 1
 252 -261 l 1
 298 -252 320 -222 319 -172 c 1
 252 -172 l 1
 252 -60 l 1
EndSplineSet
EndChar
StartChar: tcommaaccent
Encoding: 539 539
Width: 333
Flags: W
HStem: -172 112<127 194> -23 106 436 93<14 83 223 301>
VStem: 83 140<118 142 142 436 529 674> 127 122<-172 -163 -163 -60>
Ref: 63171 S 1 0 0 1 15 0
Ref: 116 N 1 0 0 1 0 0
Back
301 529 m 1
 301 436 l 1
 223 436 l 1
 223 142 l 2
 223 94 232 83 269 83 c 0
 279 83 287 84 301 86 c 1
 301 -12 l 1
 276 -20 251 -23 220 -23 c 0
 128 -23 83 19 83 104 c 2
 83 436 l 1
 14 436 l 1
 14 529 l 1
 83 529 l 1
 83 674 l 1
 223 674 l 1
 223 529 l 1
 301 529 l 1
127 -60 m 1
 249 -60 l 1
 249 -163 l 2
 249 -245 198 -305 127 -307 c 1
 127 -261 l 1
 173 -252 195 -222 194 -172 c 1
 127 -172 l 1
 127 -60 l 1
EndSplineSet
EndChar
StartChar: circumflex
Encoding: 710 710
Width: 333
Flags: W
Fore
116 757 m 1
 223 757 l 1
 326 607 l 1
 248 607 l 1
 166 707 l 1
 84 607 l 1
 8 607 l 1
 116 757 l 1
EndSplineSet
EndChar
StartChar: caron
Encoding: 711 711
Width: 333
Flags: W
Fore
219 607 m 1
 112 607 l 1
 9 757 l 1
 87 757 l 1
 169 660 l 1
 251 757 l 1
 327 757 l 1
 219 607 l 1
EndSplineSet
EndChar
StartChar: breve
Encoding: 728 728
Width: 333
Flags: MW
HStem: 605 77<145 190> 728 20<35 91 91 91 243 299 299 299>
Fore
299 748 m 1
 299 737 l 2
 299 662 242 605 167 605 c 0
 92 605 35 662 35 738 c 2
 35 748 l 1
 91 748 l 1
 97 704 122 682 168 682 c 0
 212 682 235 702 243 748 c 1
 299 748 l 1
EndSplineSet
EndChar
StartChar: dotaccent
Encoding: 729 729
Width: 333
Flags: MW
HStem: 621 122<112 222>
VStem: 112 110<621 743>
Fore
222 743 m 1
 222 621 l 1
 112 621 l 1
 112 743 l 1
 222 743 l 1
EndSplineSet
EndChar
StartChar: ring
Encoding: 730 730
Width: 333
Flags: MW
HStem: 590 48<156 179> 722 48<156 179.5>
VStem: 77 48<668.5 691.5> 209 48<668.5 691.5>
Fore
168 770 m 0
 218 770 257 730 257 679 c 0
 257 630 216 590 167 590 c 0
 117 590 77 630 77 680 c 0
 77 730 117 770 168 770 c 0
168 722 m 0
 144 722 125 703 125 680 c 0
 125 657 144 638 168 638 c 0
 190 638 209 657 209 680 c 0
 209 703 191 722 168 722 c 0
EndSplineSet
EndChar
StartChar: ogonek
Encoding: 731 731
Width: 333
Flags: MW
HStem: -234 51<184.5 203>
VStem: 45 90<-150 -109.5>
Fore
169 0 m 1
 244 0 l 1
 159 -53 135 -82 135 -133 c 0
 135 -167 158 -183 211 -183 c 0
 231 -183 250 -181 268 -177 c 1
 268 -224 l 1
 241 -231 217 -234 189 -234 c 0
 100 -234 45 -197 45 -139 c 0
 45 -80 92 -28 169 0 c 1
EndSplineSet
EndChar
StartChar: tilde
Encoding: 732 732
Width: 333
Flags: W
HStem: 622 79<242.5 256.5> 666 79<82 94.5> 729 20<282 345 345 345>
Fore
282 749 m 1
 345 749 l 1
 341 664 309 622 250 622 c 0
 235 622 216 626 195 634 c 2
 124 660 l 2
 112 664 103 666 94 666 c 0
 70 666 59 653 54 621 c 1
 -9 621 l 1
 -5 699 30 745 85 745 c 0
 104 745 105 745 141 732 c 2
 212 707 l 2
 219 704 239 701 246 701 c 0
 267 701 279 717 282 749 c 1
EndSplineSet
EndChar
StartChar: hungarumlaut
Encoding: 733 733
Width: 333
Flags: W
Fore
152 757 m 1
 26 610 l 1
 -44 610 l 1
 26 757 l 1
 152 757 l 1
340 757 m 1
 214 610 l 1
 144 610 l 1
 214 757 l 1
 340 757 l 1
EndSplineSet
EndChar
StartChar: dieresistonos
Encoding: 901 901
Width: 494
Flags: W
HStem: 403 150<51 191 233 373> 557 188<247 279>
VStem: 50 142<404 552> 232 142<404 552>
Fore
434 745 m 1
 279 557 l 1
 157 557 l 1
 247 745 l 1
 434 745 l 1
374 403 m 1
 232 403 l 1
 232 553 l 1
 374 553 l 1
 374 403 l 1
192 403 m 1
 50 403 l 1
 50 553 l 1
 192 553 l 1
 192 403 l 1
EndSplineSet
MinimumDistance: x4,-1 
EndChar
StartChar: Alphatonos
Encoding: 902 902
Width: 764
Flags: W
HStem: 193 126<263 431> 551 188<57 89> 721 20G<277 412>
DStem: 277 741 327 496 -18 -25 262 319
Fore
725 -25 m 1
 565 -25 l 1
 481 193 l 1
 216 193 l 1
 138 -25 l 1
 -18 -25 l 1
 277 741 l 1
 412 741 l 1
 725 -25 l 1
346 549 m 1
 344 541 338 523 327 496 c 1
 262 319 l 1
 432 319 l 1
 371 483 l 2
 370 486 366 496 360 512 c 0
 354 528 349 540 346 549 c 1
244 739 m 1
 89 551 l 1
 -33 551 l 1
 57 739 l 1
 244 739 l 1
EndSplineSet
MinimumDistance: x9,-1 
EndChar
StartChar: anoteleia
Encoding: 903 903
Width: 474
Flags: W
HStem: 201 298<203 219>
VStem: 59 298<345 361>
Fore
357 350 m 0
 357 327 352 303 341 279 c 0
 329 256 312 237 289 223 c 1
 268 208 241 201 208 201 c 0
 176 201 149 208 128 223 c 1
 105 237 87 256 75 279 c 0
 64 303 59 327 59 350 c 0
 59 373 64 397 75 421 c 0
 87 446 105 465 128 479 c 0
 151 492 178 499 208 499 c 0
 239 499 266 492 289 479 c 1
 312 464 330 445 341 421 c 0
 352 397 357 373 357 350 c 0
EndSplineSet
MinimumDistance: x0,-1 
EndChar
StartChar: Epsilontonos
Encoding: 904 904
Width: 866
Flags: W
HStem: -25 134<352 790> 303 134<352 746> 551 188<60 92> 607 134<352 774>
VStem: 207 144<109 303 437 607> 207 540<304 436> 207 568<608 679 740 740> 207 584<-24 108>
Fore
247 739 m 1
 92 551 l 1
 -30 551 l 1
 60 739 l 1
 247 739 l 1
791 -25 m 1
 207 -25 l 1
 207 741 l 1
 775 741 l 1
 775 607 l 1
 351 607 l 1
 351 437 l 1
 747 437 l 1
 747 303 l 1
 351 303 l 1
 351 109 l 1
 791 109 l 1
 791 -25 l 1
EndSplineSet
MinimumDistance: x4,-1 x14,4 x14,15 x10,12 x10,11 x9,7 x9,8 
EndChar
StartChar: Etatonos
Encoding: 905 905
Width: 903
Flags: W
HStem: -25 766<204 348 670 813> 313 134<348 670> 551 188<57 89>
VStem: 204 144<-24 312 448 679 740 740> 670 144<-24 312 448 740>
Fore
244 739 m 1
 89 551 l 1
 -33 551 l 1
 57 739 l 1
 244 739 l 1
814 -25 m 1
 670 -25 l 1
 670 313 l 1
 348 313 l 1
 348 -25 l 1
 204 -25 l 1
 204 741 l 1
 348 741 l 1
 348 447 l 1
 670 447 l 1
 670 741 l 1
 814 741 l 1
 814 -25 l 1
EndSplineSet
MinimumDistance: x4,-1 y12,10 y12,11 y7,9 y7,8 y6,4 y6,5 
EndChar
StartChar: Iotatonos
Encoding: 906 906
Width: 430
Flags: W
HStem: 559 188<58 90>
VStem: 205 144<-22 697>
Fore
245 747 m 1
 90 559 l 1
 -32 559 l 1
 58 747 l 1
 245 747 l 1
349 -23 m 1
 205 -23 l 1
 205 743 l 1
 349 743 l 1
 349 -23 l 1
EndSplineSet
MinimumDistance: x4,-1 
EndChar
StartChar: Omicrontonos
Encoding: 908 908
Width: 898
Flags: W
HStem: -51 132<470.344 503> 561 188<49 81> 631 132<470.344 503>
VStem: 126 146<333 381> 714 146<333 381>
Fore
236 749 m 1
 81 561 l 1
 -41 561 l 1
 49 749 l 1
 236 749 l 1
860 358 m 0
 860 230 826 130 758 58 c 0
 690 -15 602 -51 493 -51 c 0
 384 -51 296 -15 228 58 c 0
 160 130 126 230 126 358 c 0
 126 483 160 582 228 654 c 0
 295 727 384 763 493 763 c 0
 602 763 691 727 758 654 c 0
 826 582 860 483 860 358 c 0
714 356 m 0
 714 456 692 527 648 569 c 0
 604 610 552 631 493 631 c 0
 434 631 383 610 338 569 c 0
 294 527 272 456 272 356 c 0
 272 256 294 185 338 143 c 0
 383 102 434 81 493 81 c 0
 552 81 604 102 648 143 c 0
 692 185 714 256 714 356 c 0
EndSplineSet
MinimumDistance: x4,-1 
EndChar
StartChar: Upsilontonos
Encoding: 910 910
Width: 965
Flags: W
HStem: 553 188<56 88>
VStem: 471 144<-24 296>
DStem: 173 741 348 741 471 296 497 514 752 741 924 741 605 520 615 296
Fore
243 741 m 1
 88 553 l 1
 -34 553 l 1
 56 741 l 1
 243 741 l 1
924 741 m 1
 615 296 l 1
 615 -25 l 1
 471 -25 l 1
 471 296 l 1
 173 741 l 1
 348 741 l 1
 497 514 l 1
 527 465 544 437 549 429 c 1
 605 520 l 1
 752 741 l 1
 924 741 l 1
EndSplineSet
MinimumDistance: x4,-1 
EndChar
StartChar: Omegatonos
Encoding: 911 911
Width: 844
Flags: W
HStem: -25 126<78 198 670 786> 557 188<62 94> 621 126<420 436>
VStem: 77 314<-24 97> 85 134<359 368 375.063 376.937 379.125 401.644> 463 324<-24 96> 647 140<359 407>
Fore
249 745 m 1
 94 557 l 1
 -28 557 l 1
 62 745 l 1
 249 745 l 1
787 -25 m 1
 463 -25 l 1
 463 96 l 1
 530 124 577 161 605 207 c 0
 633 254 647 310 647 376 c 2
 647 384 l 2
 647 447 626 503 585 552 c 0
 545 598 493 621 428 621 c 0
 365 621 316 598 279 551 c 0
 240 502 220 444 220 375 c 1
 219 368 l 1
 219 307 232 254 259 210 c 1
 285 163 329 125 391 97 c 1
 391 -25 l 1
 77 -25 l 1
 77 101 l 1
 199 101 l 1
 168 128 144 157 126 188 c 0
 99 237 86 300 85 377 c 1
 83 379 l 1
 83 476 115 562 180 635 c 0
 245 710 327 747 426 747 c 0
 531 747 618 711 686 639 c 0
 753 568 787 484 787 388 c 0
 787 304 773 237 744 187 c 0
 726 156 701 127 669 101 c 1
 787 101 l 1
 787 -25 l 1
EndSplineSet
MinimumDistance: x4,-1 
EndChar
StartChar: Alpha
Encoding: 913 913
Width: 764
Flags: W
HStem: 193 126<263 431> 721 20G<277 412>
DStem: 277 741 327 496 -18 -25 262 319
Fore
725 -25 m 1
 565 -25 l 1
 481 193 l 1
 216 193 l 1
 138 -25 l 1
 -18 -25 l 1
 277 741 l 1
 412 741 l 1
 725 -25 l 1
346 549 m 1
 344 541 338 523 327 496 c 1
 262 319 l 1
 432 319 l 1
 371 483 l 2
 370 486 366 496 360 512 c 0
 354 528 349 540 346 549 c 1
EndSplineSet
MinimumDistance: x9,-1 
EndChar
StartChar: Beta
Encoding: 914 914
Width: 688
Flags: W
HStem: -25 134<194 379> 305 136<194 353> 607 134<194 348>
VStem: 49 144<110 304 442 606> 461 144<519 536> 491 149<199 215>
Fore
640 212 m 0
 640 191 638 172 633 154 c 0
 619 99 593 57 555 28 c 0
 510 -7 440 -25 346 -25 c 2
 49 -25 l 1
 49 741 l 1
 342 741 l 2
 387 741 429 735 466 723 c 0
 501 710 528 694 549 674 c 0
 570 653 585 630 593 606 c 0
 601 582 605 558 605 534 c 0
 605 497 595 463 576 433 c 0
 563 414 550 398 535 386 c 1
 536 385 542 382 551 377 c 1
 610 336 640 281 640 212 c 0
461 522 m 0
 461 540 457 556 448 571 c 0
 439 586 427 595 410 599 c 0
 387 604 354 607 312 607 c 2
 193 607 l 1
 193 441 l 1
 324 441 l 2
 365 441 392 443 407 448 c 0
 443 458 461 483 461 522 c 0
491 208 m 0
 491 231 486 249 475 264 c 0
 464 278 449 288 430 294 c 0
 410 301 378 305 334 305 c 2
 193 305 l 1
 193 109 l 1
 346 109 l 2
 363 109 374 109 379 110 c 0
 454 116 491 149 491 208 c 0
EndSplineSet
MinimumDistance: x0,-1 
EndChar
StartChar: Gamma
Encoding: 915 915
Width: 642
Flags: W
HStem: 607 134<204 590>
VStem: 57 146<-24 607> 57 534<608 740>
Fore
591 607 m 1
 203 607 l 1
 203 -25 l 1
 57 -25 l 1
 57 741 l 1
 591 741 l 1
 591 607 l 1
EndSplineSet
MinimumDistance: x0,-1 y1,3 y1,2 x1,5 x1,0 
EndChar
StartChar: Delta
Encoding: 916 916
Width: 744
Flags: W
HStem: -26 135<183 509> 721 20G<272 407>
Fore
721 -26 m 1
 581 -23 l 1
 -24 -26 l 1
 272 741 l 1
 407 741 l 1
 721 -26 l 1
509 109 m 1
 366 483 l 2
 349 528 337 559 331 578 c 0
 327 587 321 606 313 635 c 1
 362 638 l 1
 359 616 353 592 346 566 c 0
 341 547 333 524 323 496 c 2
 183 109 l 1
 509 109 l 1
EndSplineSet
EndChar
StartChar: Epsilon
Encoding: 917 917
Width: 710
Flags: W
HStem: -25 134<200 638> 303 134<200 594> 607 134<200 622>
VStem: 55 144<109 303 437 607> 55 540<304 436> 55 568<608 740> 55 584<-24 108>
Fore
639 -25 m 1
 55 -25 l 1
 55 741 l 1
 623 741 l 1
 623 607 l 1
 199 607 l 1
 199 437 l 1
 595 437 l 1
 595 303 l 1
 199 303 l 1
 199 109 l 1
 639 109 l 1
 639 -25 l 1
EndSplineSet
MinimumDistance: x0,-1 x10,0 x10,11 x6,8 x6,7 x5,3 x5,4 
EndChar
StartChar: Zeta
Encoding: 918 918
Width: 688
Flags: W
HStem: -25 134<198 625> 607 134<53 419>
VStem: 10 616<-24 97> 52 562<623 740>
DStem: 383 562 614 623 10 97 206 120 383 562 206 120 10 97 197 109
Fore
626 -25 m 1
 10 -25 l 1
 10 97 l 1
 383 562 l 2
 404 589 417 604 420 607 c 1
 52 607 l 1
 52 741 l 1
 614 741 l 1
 614 623 l 1
 206 120 l 1
 197 109 l 1
 626 109 l 1
 626 -25 l 1
EndSplineSet
MinimumDistance: x7,-1 
EndChar
StartChar: Eta
Encoding: 919 919
Width: 743
Flags: W
HStem: 313 134<184 506>
VStem: 40 144<-24 312 448 740> 506 144<-24 312 448 740>
Fore
650 -25 m 1
 506 -25 l 1
 506 313 l 1
 184 313 l 1
 184 -25 l 1
 40 -25 l 1
 40 741 l 1
 184 741 l 1
 184 447 l 1
 506 447 l 1
 506 741 l 1
 650 741 l 1
 650 -25 l 1
EndSplineSet
MinimumDistance: x0,-1 y8,6 y8,7 y3,5 y3,4 y2,0 y2,1 
EndChar
StartChar: Theta
Encoding: 920 920
Width: 810
Flags: W
HStem: -37 132<372 404> 303 134<193 577> 623 132<372 404>
VStem: 20 146<331 379> 192 386<304 436> 606 148<331 379>
Fore
754 358 m 0
 754 279 738 210 706 150 c 0
 675 91 630 45 573 11 c 0
 518 -21 456 -37 387 -37 c 0
 326 -37 268 -24 211 2 c 1
 152 31 106 74 73 131 c 0
 38 189 20 262 20 350 c 0
 20 411 29 467 46 518 c 0
 65 571 90 613 122 646 c 1
 154 682 193 709 239 727 c 0
 284 746 334 755 387 755 c 0
 433 755 477 748 520 733 c 0
 564 717 604 693 639 660 c 0
 676 627 704 585 723 534 c 1
 744 483 754 425 754 358 c 0
606 358 m 0
 606 398 601 435 590 470 c 0
 580 502 565 530 546 553 c 0
 526 576 503 593 477 605 c 0
 449 617 419 623 387 623 c 0
 353 623 322 617 294 605 c 0
 268 594 245 577 226 554 c 0
 207 531 192 502 182 469 c 0
 171 431 166 391 166 348 c 0
 166 307 172 272 183 241 c 0
 192 212 208 185 229 162 c 1
 247 140 270 123 298 112 c 0
 323 101 352 95 385 95 c 0
 428 95 467 105 500 125 c 0
 534 146 560 176 578 214 c 0
 597 253 606 301 606 358 c 0
578 303 m 1
 192 303 l 1
 192 437 l 1
 578 437 l 1
 578 303 l 1
EndSplineSet
MinimumDistance: x0,-1 
EndChar
StartChar: Iota
Encoding: 921 921
Width: 296
Flags: W
HStem: -25 766<45 187>
VStem: 44 144<-24 740>
Fore
188 -25 m 1
 44 -25 l 1
 44 741 l 1
 188 741 l 1
 188 -25 l 1
EndSplineSet
MinimumDistance: x0,-1 
EndChar
StartChar: Kappa
Encoding: 922 922
Width: 744
Flags: W
HStem: -25 766<50 193>
VStem: 49 144<-24 237 424 740>
DStem: 279 323 385 423 527 -25 716 -25 511 741 703 741 193 423 385 423
Fore
716 -25 m 1
 527 -25 l 1
 279 323 l 1
 193 237 l 1
 193 -25 l 1
 49 -25 l 1
 49 741 l 1
 193 741 l 1
 193 423 l 1
 511 741 l 1
 703 741 l 1
 385 423 l 1
 716 -25 l 1
EndSplineSet
MinimumDistance: x0,-1 
EndChar
StartChar: Lambda
Encoding: 923 923
Width: 744
Flags: W
HStem: 721 20G<267 402>
Fore
715 -25 m 1
 555 -25 l 1
 361 483 l 2
 346 522 335 553 326 578 c 0
 321 589 315 608 308 635 c 1
 357 638 l 1
 354 619 349 595 341 566 c 0
 338 555 330 532 317 496 c 2
 127 -25 l 1
 -28 -25 l 1
 267 741 l 1
 402 741 l 1
 715 -25 l 1
EndSplineSet
EndChar
StartChar: Mu
Encoding: 924 924
Width: 860
Flags: W
HStem: -25 766<40 181 631 772>
VStem: 39 142<-24 456> 631 142<-24 450>
DStem: 181 457 226 741 344 -25 399 219 602 741 631 451 424 226 466 -25
Fore
773 -25 m 1
 631 -25 l 1
 631 451 l 1
 466 -25 l 1
 344 -25 l 1
 181 457 l 1
 181 -25 l 1
 39 -25 l 1
 39 741 l 1
 226 741 l 1
 399 219 l 1
 406 200 410 187 413 179 c 0
 416 171 419 162 422 153 c 0
 423 149 424 146 425 145 c 0
 426 143 426 142 426 141 c 0
 426 143 422 162 415 197 c 1
 424 226 l 1
 602 741 l 1
 773 741 l 1
 773 -25 l 1
EndSplineSet
MinimumDistance: x0,-1 
EndChar
StartChar: Nu
Encoding: 925 925
Width: 714
Flags: W
HStem: -25 766<32 168 510 644>
VStem: 31 142<-24 478> 505 140<238 740>
DStem: 173 479 168 741 510 -25 505 237
Fore
645 -25 m 1
 510 -25 l 1
 173 479 l 1
 173 -25 l 1
 31 -25 l 1
 31 741 l 1
 168 741 l 1
 505 237 l 1
 505 741 l 1
 645 741 l 1
 645 -25 l 1
EndSplineSet
MinimumDistance: x0,-1 
EndChar
StartChar: Xi
Encoding: 926 926
Width: 690
Flags: W
HStem: -25 134<46 628> 301 134<108 556> 607 134<46 612>
VStem: 45 568<608 740> 45 584<-24 108> 107 450<302 434>
Fore
613 607 m 1
 45 607 l 1
 45 741 l 1
 613 741 l 1
 613 607 l 1
557 301 m 1
 107 301 l 1
 107 435 l 1
 557 435 l 1
 557 301 l 1
629 -25 m 1
 45 -25 l 1
 45 109 l 1
 629 109 l 1
 629 -25 l 1
EndSplineSet
MinimumDistance: x4,-1 
EndChar
StartChar: Omicron
Encoding: 927 927
Width: 822
Flags: W
HStem: -51 132<372 404> 631 132<372 404>
VStem: 20 146<333 381> 608 146<333 381>
Fore
754 358 m 0
 754 230 720 130 652 58 c 0
 584 -15 496 -51 387 -51 c 0
 278 -51 189 -15 122 58 c 0
 54 130 20 230 20 358 c 0
 20 483 54 582 122 654 c 0
 189 727 278 763 387 763 c 0
 496 763 585 727 652 654 c 0
 720 582 754 483 754 358 c 0
608 356 m 0
 608 456 586 527 542 569 c 0
 498 610 446 631 387 631 c 0
 328 631 276 610 232 569 c 0
 188 527 166 456 166 356 c 0
 166 256 188 185 232 143 c 0
 276 102 328 81 387 81 c 0
 446 81 498 102 542 143 c 0
 586 185 608 256 608 356 c 0
EndSplineSet
MinimumDistance: x0,-1 
EndChar
StartChar: Pi
Encoding: 928 928
Width: 781
Flags: W
HStem: 607 134<200 520>
VStem: 55 144<-24 606> 521 144<-24 606>
Fore
665 -25 m 1
 521 -25 l 1
 521 607 l 1
 199 607 l 1
 199 -25 l 1
 55 -25 l 1
 55 741 l 1
 665 741 l 1
 665 -25 l 1
EndSplineSet
MinimumDistance: x0,-1 y3,5 y3,4 y2,0 y2,1 
EndChar
StartChar: Rho
Encoding: 929 929
Width: 698
Flags: W
HStem: 267 134<198 373> 607 134<198 389>
VStem: 53 144<-24 267 402 606> 501 148<487 519>
Fore
649 510 m 0
 649 464 640 423 621 388 c 0
 602 350 570 320 525 298 c 0
 480 277 424 267 356 267 c 2
 197 267 l 1
 197 -25 l 1
 53 -25 l 1
 53 741 l 1
 348 741 l 2
 401 741 441 739 468 734 c 0
 511 726 546 710 573 686 c 0
 600 663 620 635 631 604 c 0
 643 574 649 543 649 510 c 0
501 506 m 0
 501 557 480 589 437 602 c 1
 420 605 393 607 356 607 c 2
 197 607 l 1
 197 401 l 1
 358 401 l 2
 411 401 448 410 471 428 c 0
 491 443 501 469 501 506 c 0
EndSplineSet
MinimumDistance: x0,-1 y4,6 y4,5 
EndChar
StartChar: Sigma
Encoding: 931 931
Width: 688
Flags: W
HStem: -25 134<203 630> 609 134<244 610>
VStem: 15 616<-24 98> 49 562<625 742>
DStem: 49 625 279 564 244 386 425 386 244 386 425 386 15 98 211 120 244 386 211 120 15 98 202 109
Fore
631 -25 m 1
 15 -25 l 1
 15 98 l 1
 244 386 l 1
 49 625 l 1
 49 743 l 1
 611 743 l 1
 611 609 l 1
 243 609 l 1
 249 601 255 593 261 586 c 0
 267 579 273 572 279 564 c 2
 425 386 l 1
 211 120 l 1
 202 109 l 1
 631 109 l 1
 631 -25 l 1
EndSplineSet
MinimumDistance: x6,-1 
EndChar
StartChar: Tau
Encoding: 932 932
Width: 688
Flags: W
HStem: 607 134<15 249 395 631>
VStem: 250 144<-24 607>
Fore
632 607 m 1
 394 607 l 1
 394 -25 l 1
 250 -25 l 1
 250 607 l 1
 14 607 l 1
 14 741 l 1
 632 741 l 1
 632 607 l 1
EndSplineSet
MinimumDistance: x0,-1 y1,3 y1,2 x1,7 x1,0 
EndChar
StartChar: Upsilon
Encoding: 933 933
Width: 744
Flags: W
HStem: 721 20G<-33 142 546 718>
VStem: 265 144<-24 296>
DStem: -33 741 142 741 265 296 291 514 546 741 718 741 399 520 409 296
Fore
718 741 m 1
 409 296 l 1
 409 -25 l 1
 265 -25 l 1
 265 296 l 1
 -33 741 l 1
 142 741 l 1
 291 514 l 1
 316 473 334 445 343 429 c 1
 399 520 l 1
 546 741 l 1
 718 741 l 1
EndSplineSet
MinimumDistance: x0,-1 
EndChar
StartChar: Phi
Encoding: 934 934
Width: 777
Flags: W
HStem: -25 770<293 424>
VStem: 4 141<343 375> 292 133<-24 49 172 535 662 744> 572 141<343 375>
Fore
713 353 m 0
 713 263 683 190 623 133 c 0
 571 82 505 54 425 49 c 1
 425 -25 l 1
 292 -25 l 1
 292 49 l 1
 212 54 146 82 94 133 c 0
 34 190 4 263 4 353 c 0
 4 398 12 439 27 476 c 0
 42 513 65 547 94 576 c 0
 147 628 214 657 293 662 c 1
 293 745 l 1
 424 745 l 1
 424 662 l 1
 503 657 569 629 622 576 c 0
 683 515 713 441 713 353 c 0
572 358 m 0
 572 409 556 451 523 483 c 0
 496 510 464 527 425 536 c 1
 425 171 l 1
 464 180 497 199 524 226 c 0
 556 260 572 304 572 358 c 0
292 171 m 1
 292 536 l 1
 253 527 221 510 194 483 c 0
 161 452 145 410 145 358 c 0
 145 304 161 260 193 226 c 0
 220 199 253 180 292 171 c 1
EndSplineSet
MinimumDistance: x0,-1 
EndChar
StartChar: Chi
Encoding: 935 935
Width: 783
Flags: W
HStem: 721 20G<14 187 551 717>
DStem: 14 741 187 741 276 374 325 547 276 374 343 235 -21 -25 156 -25 368 242 446 378 557 -25 736 -25 551 741 717 741 399 541 446 378
Fore
736 -25 m 1
 557 -25 l 1
 368 242 l 1
 358 258 l 1
 362 264 364 267 365 268 c 0
 365 269 365 269 366 270 c 2
 366 270 364 266 359 259 c 0
 356 254 352 249 349 244 c 0
 346 239 344 236 343 235 c 2
 156 -25 l 1
 -21 -25 l 1
 276 374 l 1
 14 741 l 1
 187 741 l 1
 325 547 l 2
 330 539 337 530 345 520 c 0
 353 509 358 502 361 497 c 0
 362 496 363 494 363 492 c 1
 364 493 365 495 366 497 c 0
 367 499 368 500 369 500 c 0
 370 501 370 502 371 503 c 0
 374 508 383 520 399 541 c 2
 551 741 l 1
 717 741 l 1
 446 378 l 1
 736 -25 l 1
EndSplineSet
MinimumDistance: x0,-1 
EndChar
StartChar: Psi
Encoding: 936 936
Width: 805
Flags: W
HStem: -27 281<301 305 441 444> 121 133.532<283 301 444.063 469.25>
VStem: 27 140<357 742> 301 144<-26 121> 305 136<255 742> 579 140<357 742>
Fore
719 368 m 2
 719 301 704 249 674 210 c 0
 643 169 604 143 556 131 c 0
 532 124 495 121 444 121 c 2
 445 121 l 1
 445 -27 l 1
 301 -27 l 1
 301 121 l 1
 302 121 l 2
 251 121 213 124 189 131 c 0
 158 138 131 152 106 173 c 0
 83 192 63 219 48 253 c 0
 34 284 27 323 27 368 c 2
 27 746 l 1
 167 742 l 1
 167 380 l 2
 167 349 171 323 180 304 c 0
 187 288 200 276 218 268 c 0
 237 259 265 254 304 254 c 2
 305 254 l 1
 305 743 l 1
 441 743 l 1
 441 254 l 1
 442 254 l 2
 479 254 507 259 528 268 c 0
 547 276 559 288 566 304 c 0
 575 323 579 349 579 380 c 2
 579 742 l 1
 719 746 l 1
 719 368 l 2
EndSplineSet
MinimumDistance: x0,-1 y22,20 y22,21 
EndChar
StartChar: Omega
Encoding: 937 937
Width: 780
Flags: W
HStem: -25 126<18 138 610 726> 621 126<353 385>
VStem: 17 314<-24 97> 22 137<343 391> 403 324<-24 96> 588 141<343 391>
Fore
729 370 m 0
 729 300 714 239 684 187 c 0
 665 155 640 126 609 101 c 1
 727 101 l 1
 727 -25 l 1
 403 -25 l 1
 403 96 l 1
 470 124 517 161 545 207 c 0
 574 256 588 309 588 368 c 0
 588 402 583 434 573 464 c 0
 562 497 547 525 530 547 c 0
 511 570 488 588 461 601 c 0
 434 614 403 621 368 621 c 0
 324 621 287 609 257 586 c 0
 225 562 201 531 184 492 c 0
 167 453 159 410 159 365 c 0
 159 308 172 256 199 210 c 1
 225 162 269 124 331 97 c 1
 331 -25 l 1
 17 -25 l 1
 17 101 l 1
 139 101 l 1
 108 128 84 157 66 188 c 0
 37 240 22 299 22 366 c 0
 22 427 35 488 62 547 c 0
 89 606 129 655 180 692 c 1
 234 729 296 747 366 747 c 0
 444 747 511 729 567 692 c 0
 622 655 663 607 690 550 c 0
 716 492 729 432 729 370 c 0
EndSplineSet
MinimumDistance: x0,-1 
EndChar
StartChar: Iotadieresis
Encoding: 938 938
Width: 367
Flags: W
HStem: 721 20G<79 223> 735 150<-10 78 224 312>
VStem: -11 142<742 884> 79 144<-24 734> 171 142<742 884>
Fore
313 735 m 1
 171 735 l 1
 171 885 l 1
 313 885 l 1
 313 735 l 1
131 735 m 1
 -11 735 l 1
 -11 885 l 1
 131 885 l 1
 131 735 l 1
223 -25 m 1
 79 -25 l 1
 79 741 l 1
 223 741 l 1
 223 -25 l 1
EndSplineSet
MinimumDistance: x0,-1 
EndChar
StartChar: Upsilondieresis
Encoding: 939 939
Width: 744
Flags: W
HStem: 721 20G<-33 142 546 718> 735 150<172 312 354 494>
VStem: 171 142<736 884> 265 144<-24 296> 353 142<736 884>
DStem: -33 741 142 741 265 296 291 514 546 741 718 741 399 520 409 296
Fore
495 735 m 1
 353 735 l 1
 353 885 l 1
 495 885 l 1
 495 735 l 1
313 735 m 1
 171 735 l 1
 171 885 l 1
 313 885 l 1
 313 735 l 1
718 741 m 1
 409 296 l 1
 409 -25 l 1
 265 -25 l 1
 265 296 l 1
 -33 741 l 1
 142 741 l 1
 291 514 l 1
 316 473 334 445 343 429 c 1
 399 520 l 1
 546 741 l 1
 718 741 l 1
EndSplineSet
MinimumDistance: x8,-1 
EndChar
StartChar: alphatonos
Encoding: 940 940
Width: 656
Flags: W
HStem: -37 128<267 283> 429 126<267 276> 603 186<343 377>
VStem: 27 130<234 282> 393 150<234 282> 421 122<503 544>
Fore
525 789 m 1
 377 603 l 1
 252 603 l 1
 343 789 l 1
 525 789 l 1
393 262 m 0
 393 311 383 353 362 386 c 0
 343 415 315 429 276 429 c 0
 238 429 209 416 190 390 c 0
 168 360 157 316 157 258 c 0
 157 201 167 159 188 130 c 0
 207 104 236 91 274 91 c 0
 353 91 393 148 393 262 c 0
420 7 m 1
 381 -22 333 -37 276 -37 c 0
 194 -37 132 -12 90 37 c 0
 48 87 27 162 27 262 c 0
 27 309 33 351 45 390 c 0
 57 427 75 459 99 484 c 0
 124 509 151 526 179 537 c 0
 208 549 240 555 276 555 c 0
 308 554 335 550 358 542 c 0
 381 533 402 520 421 502 c 1
 421 545 l 1
 543 545 l 1
 543 99 l 1
 543 93 l 1
 577 117 l 1
 613 -5 l 1
 568 -27 531 -38 503 -38 c 0
 485 -38 469 -33 454 -24 c 0
 439 -15 427 -4 420 7 c 1
EndSplineSet
MinimumDistance: x22,-1 
EndChar
StartChar: epsilontonos
Encoding: 941 941
Width: 570
Flags: W
HStem: -35 120<238 270> 206 109<238 319> 437 120<238 270> 603 186<299 333>
Fore
505 161 m 1
 498 112 485 74 465 45 c 0
 446 16 419 -4 384 -16 c 0
 349 -29 306 -35 253 -35 c 0
 94 -35 14 22 14 136 c 0
 14 179 25 211 47 234 c 0
 56 243 66 252 79 261 c 1
 65 270 54 279 47 287 c 0
 25 312 14 345 14 386 c 0
 14 443 33 485 72 513 c 0
 111 541 171 556 253 557 c 2
 262 557 l 2
 312 557 354 551 387 538 c 0
 421 525 447 505 466 476 c 0
 485 447 498 409 505 361 c 1
 378 361 l 1
 374 391 361 411 338 421 c 0
 315 432 285 437 250 437 c 0
 182 437 147 418 146 380 c 1
 149 357 157 341 170 332 c 0
 185 321 211 315 249 315 c 2
 320 315 l 1
 320 206 l 1
 249 206 l 2
 210 206 183 201 170 190 c 0
 157 180 149 164 146 141 c 1
 147 104 182 85 250 85 c 0
 285 85 315 90 338 101 c 0
 361 111 374 131 378 161 c 1
 505 161 l 1
481 789 m 1
 333 603 l 1
 208 603 l 1
 299 789 l 1
 481 789 l 1
EndSplineSet
EndChar
StartChar: etatonos
Encoding: 942 942
Width: 596
Flags: W
HStem: 429 125.065<299 315> 603 186<323 357>
VStem: 51 138<-24 297> 385 138<-177 345>
Fore
505 789 m 1
 357 603 l 1
 232 603 l 1
 323 789 l 1
 505 789 l 1
171 494 m 1
 177 505 l 2
 180 510 189 517 204 525 c 0
 218 533 235 540 256 546 c 0
 277 552 298 555 320 555 c 0
 359 555 393 548 422 535 c 0
 451 522 475 501 493 472 c 0
 510 445 520 412 522 373 c 0
 523 366 523 348 523 320 c 2
 523 -215 l 1
 385 -177 l 1
 385 316 l 2
 385 348 382 372 376 387 c 0
 364 415 339 429 302 429 c 0
 227 429 189 381 189 284 c 2
 189 -25 l 1
 51 -25 l 1
 51 414 l 2
 51 416 51 418 52 421 c 0
 53 424 54 426 54 426 c 1
 53 426 41 423 18 418 c 1
 -5 536 l 1
 31 549 61 556 85 556 c 0
 112 556 134 546 152 525 c 0
 160 516 166 506 171 494 c 1
EndSplineSet
MinimumDistance: x11,-1 
EndChar
StartChar: iotatonos
Encoding: 943 943
Width: 334
Flags: W
HStem: -32.9407 136.941<184 194> 525 20G<31 169> 603 186<147 181>
VStem: 31 138<131 544>
Fore
302 -1 m 1
 252 -22 211 -33 180 -33 c 0
 137 -33 101 -19 72 8 c 0
 45 35 31 77 31 133 c 2
 31 545 l 1
 169 545 l 1
 169 150 l 2
 169 145 169 140 169 137 c 0
 169 134 169 132 169 131 c 0
 170 130 170 127 171 123 c 0
 172 116 175 111 182 106 c 0
 183 105 185 104 189 104 c 2
 194 104 l 2
 203 105 223 113 254 130 c 1
 302 -1 l 1
329 789 m 1
 181 603 l 1
 56 603 l 1
 147 789 l 1
 329 789 l 1
EndSplineSet
MinimumDistance: x5,-1 
EndChar
StartChar: upsilondieresistonos
Encoding: 944 944
Width: 575
Flags: W
HStem: -39 126<239 281> 523 20G<15 153 365 503> 539 150<153 239 281 365> 693 188<295 327>
VStem: 15 138<197 538> 98 142<544 688> 280 142<544 688> 365 138<197 538>
Fore
482 881 m 1
 327 693 l 1
 205 693 l 1
 295 881 l 1
 482 881 l 1
422 539 m 1
 280 539 l 1
 280 689 l 1
 422 689 l 1
 422 539 l 1
240 539 m 1
 98 539 l 1
 98 689 l 1
 240 689 l 1
 240 539 l 1
503 198 m 2
 503 157 500 125 494 102 c 0
 489 79 480 57 466 35 c 1
 456 23 433 6 398 -15 c 0
 369 -31 324 -39 262 -39 c 0
 195 -39 148 -31 119 -15 c 1
 85 6 63 22 52 35 c 1
 38 56 29 79 24 102 c 0
 18 125 15 157 15 198 c 2
 15 543 l 1
 153 543 l 1
 153 232 l 2
 153 191 155 160 160 139 c 0
 165 124 170 114 177 110 c 0
 187 103 197 97 206 94 c 0
 219 89 237 87 260 87 c 0
 282 87 299 89 312 94 c 0
 321 97 330 102 340 110 c 0
 347 115 353 124 358 139 c 0
 363 160 365 191 365 232 c 2
 365 543 l 1
 503 543 l 1
 503 198 l 2
EndSplineSet
MinimumDistance: x12,-1 
EndChar
StartChar: alpha
Encoding: 945 945
Width: 656
Flags: W
HStem: -37 128<267 283> 429 126<267 276>
VStem: 27 130<234 282> 393 150<234 282> 421 122<503 544>
Fore
393 262 m 0
 393 311 383 353 362 386 c 0
 343 415 315 429 276 429 c 0
 238 429 209 416 190 390 c 0
 168 360 157 316 157 258 c 0
 157 201 167 159 188 130 c 0
 207 104 236 91 274 91 c 0
 353 91 393 148 393 262 c 0
420 7 m 1
 381 -22 333 -37 276 -37 c 0
 194 -37 132 -12 90 37 c 0
 48 87 27 162 27 262 c 0
 27 309 33 351 45 390 c 0
 57 427 75 459 99 484 c 0
 124 509 151 526 179 537 c 0
 208 549 240 555 276 555 c 0
 308 554 335 550 358 542 c 0
 381 533 402 520 421 502 c 1
 421 545 l 1
 543 545 l 1
 543 99 l 1
 543 93 l 1
 577 117 l 1
 613 -5 l 1
 568 -27 531 -38 503 -38 c 0
 485 -38 469 -33 454 -24 c 0
 439 -15 427 -4 420 7 c 1
EndSplineSet
MinimumDistance: x18,-1 
EndChar
StartChar: beta
Encoding: 946 946
Width: 576
Flags: W
HStem: -39 124<279 297> 313 124<178 263> 635 122<249 265>
VStem: 25 136<-222 -4 148 513> 177 232<395 396> 353 122<544.125 561> 389 140<193 209>
Fore
529 200 m 0
 529 157 520 117 502 81 c 0
 485 44 458 15 423 -6 c 0
 388 -28 346 -39 298 -39 c 0
 261 -39 227 -34 198 -23 c 0
 183 -17 171 -10 161 -3 c 1
 161 -223 l 1
 25 -223 l 1
 25 490 l 2
 25 554 32 604 47 639 c 0
 59 664 74 685 93 704 c 1
 112 721 135 734 162 744 c 0
 189 753 219 757 250 757 c 0
 291 757 327 750 358 737 c 0
 436 702 475 638 475 544 c 1
 472 479 450 430 411 397 c 0
 410 396 410 396 410 396 c 2
 409 396 409 396 409 395 c 1
 438 383 462 366 481 345 c 0
 513 309 529 261 529 200 c 0
389 202 m 0
 389 241 379 268 360 283 c 0
 334 303 298 313 252 313 c 2
 177 313 l 1
 177 437 l 1
 244 437 l 2
 282 437 310 447 327 468 c 0
 344 489 353 515 353 546 c 0
 353 575 344 597 327 612 c 0
 310 627 288 635 263 635 c 0
 230 635 202 624 181 601 c 0
 168 588 161 550 161 486 c 1
 162 148 l 1
 169 129 182 114 200 103 c 0
 218 91 245 85 280 85 c 0
 301 85 319 89 335 97 c 0
 351 105 364 118 374 135 c 0
 384 152 389 175 389 202 c 0
EndSplineSet
MinimumDistance: x0,-1 
EndChar
StartChar: gamma
Encoding: 947 947
Width: 591
Flags: W
HStem: 429 125.152<56 58> 523 20G<418 559>
VStem: 224 136<-222 27>
DStem: 418 543 559 543 291 205 360 28
Fore
559 543 m 1
 360 28 l 1
 360 -223 l 1
 224 -223 l 1
 224 27 l 1
 81 373 l 1
 72 400 65 418 60 427 c 0
 59 428 58 429 57 429 c 0
 52 429 36 424 9 413 c 1
 0 517 l 1
 0 522 3 527 8 534 c 0
 13 541 21 546 34 549 c 0
 47 553 58 555 67 555 c 0
 106 555 134 547 151 530 c 0
 168 511 183 484 196 449 c 1
 291 205 l 1
 418 543 l 1
 559 543 l 1
EndSplineSet
MinimumDistance: x0,-1 
EndChar
StartChar: delta
Encoding: 948 948
Width: 620
Flags: W
HStem: -41 132<268 290> 621 122<280 495>
VStem: 12 140<231 263> 48 448<633 742> 416 138<231 263>
DStem: 48 633 279 621 269 475 392 539
Fore
554 250 m 0
 554 185 544 132 525 90 c 0
 506 44 474 11 431 -10 c 0
 390 -31 338 -41 275 -41 c 0
 196 -41 131 -17 82 32 c 0
 35 80 12 150 12 242 c 0
 12 293 20 338 35 376 c 0
 51 414 71 443 96 464 c 0
 120 485 147 501 177 512 c 0
 202 520 226 524 250 524 c 0
 259 524 266 524 271 523 c 2
 288 520 l 1
 269 475 l 1
 48 633 l 1
 48 743 l 1
 496 743 l 1
 496 621 l 1
 279 621 l 1
 392 539 l 2
 430 511 456 489 471 474 c 0
 526 417 554 342 554 250 c 0
416 252 m 0
 416 280 412 306 403 329 c 0
 394 352 380 370 360 385 c 0
 341 400 314 407 281 407 c 0
 255 407 233 400 215 387 c 0
 195 374 180 356 170 333 c 0
 158 309 152 281 152 250 c 0
 152 144 193 91 275 91 c 0
 312 91 340 99 360 114 c 0
 381 129 395 149 403 172 c 0
 412 199 416 226 416 252 c 0
EndSplineSet
MinimumDistance: x0,-1 
EndChar
StartChar: epsilon
Encoding: 949 949
Width: 570
Flags: W
HStem: -35 120<238 270> 206 109<238 319> 437 120<238 270>
Fore
505 161 m 1
 498 112 485 74 465 45 c 0
 446 16 419 -4 384 -16 c 0
 349 -29 306 -35 253 -35 c 0
 94 -35 14 22 14 136 c 0
 14 179 25 211 47 234 c 0
 56 243 66 252 79 261 c 1
 65 270 54 279 47 287 c 0
 25 312 14 345 14 386 c 0
 14 443 33 485 72 513 c 0
 111 541 171 556 253 557 c 2
 262 557 l 2
 312 557 354 551 387 538 c 0
 421 525 447 505 466 476 c 0
 485 447 498 409 505 361 c 1
 378 361 l 1
 374 391 361 411 338 421 c 0
 315 432 285 437 250 437 c 0
 182 437 147 418 146 380 c 1
 149 357 157 341 170 332 c 0
 185 321 211 315 249 315 c 2
 320 315 l 1
 320 206 l 1
 249 206 l 2
 210 206 183 201 170 190 c 0
 157 180 149 164 146 141 c 1
 147 104 182 85 250 85 c 0
 285 85 315 90 338 101 c 0
 361 111 374 131 378 161 c 1
 505 161 l 1
EndSplineSet
EndChar
StartChar: zeta
Encoding: 950 950
Width: 522
Flags: W
HStem: 621 122<30 201>
VStem: 13 142<219 238> 29 406<643 742> 335 130<-64 -42>
Fore
465 -42 m 0
 465 -83 449 -144 416 -226 c 1
 292 -180 l 1
 321 -119 335 -81 335 -64 c 0
 335 -49 333 -39 328 -35 c 0
 324 -31 313 -29 294 -29 c 0
 231 -29 167 -7 101 36 c 0
 42 74 13 135 13 220 c 0
 13 313 36 398 81 475 c 0
 115 532 155 581 202 621 c 1
 29 621 l 1
 29 743 l 1
 435 743 l 1
 435 643 l 1
 352 596 284 536 231 463 c 1
 180 390 155 315 155 236 c 0
 155 195 167 163 192 141 c 0
 211 126 228 116 243 111 c 0
 255 106 276 102 305 99 c 0
 332 97 351 94 364 91 c 0
 389 86 410 75 427 60 c 1
 452 33 465 -1 465 -42 c 0
EndSplineSet
MinimumDistance: x0,-1 
EndChar
StartChar: eta
Encoding: 951 951
Width: 586
Flags: W
HStem: 429 125.065<299 315>
VStem: 51 138<-24 297> 385 138<-177 345>
Fore
171 494 m 1
 177 505 l 2
 180 510 189 517 204 525 c 0
 218 533 235 540 256 546 c 0
 277 552 298 555 320 555 c 0
 359 555 393 548 422 535 c 0
 451 522 475 501 493 472 c 0
 510 445 520 412 522 373 c 0
 523 366 523 348 523 320 c 2
 523 -215 l 1
 385 -177 l 1
 385 316 l 2
 385 348 382 372 376 387 c 0
 364 415 339 429 302 429 c 0
 227 429 189 381 189 284 c 2
 189 -25 l 1
 51 -25 l 1
 51 414 l 2
 51 416 51 418 52 421 c 0
 53 424 54 426 54 426 c 1
 53 426 41 423 18 418 c 1
 -5 536 l 1
 31 549 61 556 85 556 c 0
 112 556 134 546 152 525 c 0
 160 516 166 506 171 494 c 1
EndSplineSet
MinimumDistance: x7,-1 
EndChar
StartChar: theta
Encoding: 952 952
Width: 586
Flags: W
HStem: -37 124<260 276> 305 122<157 380> 633 122<260 276>
VStem: 20 495<307 395>
Fore
515 360 m 0
 515 264 506 188 489 131 c 0
 471 72 443 28 404 1 c 0
 366 -24 321 -37 268 -37 c 0
 227 -37 192 -30 162 -16 c 0
 131 -2 104 21 83 54 c 0
 61 88 45 130 36 179 c 1
 25 226 20 287 20 360 c 0
 20 437 28 505 44 562 c 0
 59 621 86 667 123 702 c 0
 160 737 209 755 268 755 c 0
 327 755 375 737 412 702 c 0
 450 666 477 619 492 561 c 0
 507 507 515 440 515 360 c 0
381 427 m 1
 379 486 370 536 354 577 c 0
 339 614 311 633 268 633 c 0
 232 633 205 616 188 583 c 0
 169 549 158 497 156 427 c 1
 381 427 l 1
381 305 m 1
 156 305 l 1
 157 266 160 230 167 197 c 0
 173 163 185 135 203 113 c 0
 218 96 240 87 268 87 c 0
 295 87 315 95 330 110 c 0
 347 127 360 152 368 187 c 0
 375 217 379 256 381 305 c 1
EndSplineSet
MinimumDistance: x0,-1 
EndChar
StartChar: iota
Encoding: 953 953
Width: 346
Flags: W
HStem: -32.9407 136.941<184 194> 525 20G<31 169>
VStem: 31 138<131 544>
Fore
302 -1 m 1
 252 -22 211 -33 180 -33 c 0
 137 -33 101 -19 72 8 c 0
 45 35 31 77 31 133 c 2
 31 545 l 1
 169 545 l 1
 169 150 l 2
 169 145 169 140 169 137 c 0
 169 134 169 132 169 131 c 0
 170 130 170 127 171 123 c 0
 172 116 175 111 182 106 c 0
 183 105 185 104 189 104 c 2
 194 104 l 2
 203 105 223 113 254 130 c 1
 302 -1 l 1
EndSplineSet
MinimumDistance: x5,-1 
EndChar
StartChar: kappa
Encoding: 954 954
Width: 576
Flags: W
HStem: -25 568<42 179>
VStem: 41 138<-24 196 370 542>
DStem: 211 227 310 323 374 -25 543 -25 351 543 537 543 179 369 310 323
Fore
543 -25 m 1
 374 -25 l 1
 211 227 l 1
 179 196 l 1
 179 -25 l 1
 41 -25 l 1
 41 543 l 1
 179 543 l 1
 179 369 l 1
 351 543 l 1
 537 543 l 1
 310 323 l 1
 543 -25 l 1
EndSplineSet
MinimumDistance: x0,-1 
EndChar
StartChar: lambda
Encoding: 955 955
Width: 620
Flags: W
HStem: 621 136<119 134>
DStem: 283 295 331 539 371 59 483 129
Fore
586 2 m 1
 539 -23 502 -35 475 -35 c 0
 430 -35 399 -14 384 29 c 1
 377 44 373 54 371 59 c 2
 283 295 l 2
 267 339 255 380 247 417 c 1
 296 415 l 1
 286 380 280 359 278 352 c 0
 277 348 274 341 271 330 c 0
 267 319 263 307 258 294 c 2
 144 -23 l 1
 -6 -23 l 1
 201 521 l 1
 197 534 l 2
 189 560 181 579 174 591 c 0
 167 602 158 610 147 617 c 0
 141 620 132 621 120 621 c 0
 113 621 105 620 96 619 c 0
 90 618 85 617 82 616 c 0
 79 615 74 614 66 613 c 0
 58 612 48 610 37 609 c 1
 53 738 l 1
 87 751 113 757 132 757 c 0
 160 757 182 753 199 744 c 0
 216 736 234 721 254 699 c 0
 273 676 286 653 295 632 c 0
 299 624 311 593 331 539 c 2
 483 129 l 1
 496 103 l 1
 499 100 501 98 502 98 c 0
 506 98 510 99 513 100 c 0
 516 101 521 104 528 107 c 0
 534 110 542 115 552 120 c 1
 586 2 l 1
EndSplineSet
MinimumDistance: x27,-1 
EndChar
StartChar: uni03BC
Encoding: 956 956
Width: 667
Flags: W
HStem: -35 124<292 308>
VStem: 52 138<-224 -4 191 542> 397 137<178 542>
Fore
595 12 m 1
 570 -5 552 -15 543 -19 c 0
 533 -23 522 -25 510 -25 c 0
 478 -25 453 -16 436 3 c 0
 431 8 426 14 422 22 c 1
 413 11 401 1 387 -8 c 0
 360 -26 329 -35 295 -35 c 0
 262 -35 232 -28 207 -14 c 0
 205 -13 199 -9 190 -3 c 1
 190 -225 l 1
 52 -225 l 1
 52 543 l 1
 190 543 l 1
 190 208 l 2
 190 159 211 123 254 98 c 0
 263 92 278 89 298 89 c 0
 335 89 360 102 374 127 c 0
 379 136 383 143 386 148 c 0
 387 149 388 151 390 155 c 0
 392 158 393 160 393 161 c 0
 395 166 396 171 397 177 c 0
 398 182 398 192 398 208 c 2
 398 543 l 1
 534 543 l 1
 534 152 l 2
 534 125 535 108 538 100 c 1
 531 100 528 101 528 104 c 2
 528 105 l 1
 559 91 l 1
 595 12 l 1
EndSplineSet
MinimumDistance: x23,-1 
EndChar
StartChar: nu
Encoding: 957 957
Width: 564
Flags: W
HStem: 523 20G<-22 124 380 524>
DStem: -22 543 124 543 193 -25 242 216 380 543 524 543 260 212 309 -25
Fore
524 543 m 1
 309 -25 l 1
 193 -25 l 1
 -22 543 l 1
 124 543 l 1
 242 216 l 1
 247 200 253 183 259 164 c 0
 260 160 261 157 262 154 c 0
 263 151 263 149 264 148 c 1
 264 149 260 165 251 195 c 1
 250 190 248 183 245 174 c 0
 242 165 241 159 240 156 c 0
 239 153 238 151 238 150 c 1
 239 150 240 155 243 165 c 0
 246 171 248 179 251 188 c 0
 254 197 257 205 260 212 c 1
 380 543 l 1
 524 543 l 1
EndSplineSet
MinimumDistance: x0,-1 
EndChar
StartChar: xi
Encoding: 958 958
Width: 530
Flags: W
HStem: -25 120<244 304> 315 114<269 408> 623 120<14 72 235 434>
VStem: -9 134.402<188 189> 13 422<623 742> 37 126<510 526> 337 129<-54 -37>
Fore
466 -39 m 0
 466 -83 449 -145 416 -226 c 1
 297 -181 l 1
 323 -110 336 -68 337 -55 c 0
 338 -54 338 -51 338 -46 c 0
 338 -37 337 -32 334 -31 c 0
 326 -27 304 -25 269 -25 c 2
 250 -25 l 2
 204 -25 162 -19 123 -6 c 0
 83 8 51 31 27 63 c 0
 3 95 -9 137 -9 189 c 1
 -6 225 -1 254 8 276 c 0
 17 299 32 319 53 338 c 0
 71 354 90 367 109 378 c 1
 96 385 86 394 77 405 c 0
 50 434 37 471 37 516 c 0
 37 551 46 583 64 611 c 0
 65 613 67 615 68 616 c 0
 69 617 70 619 73 623 c 1
 13 623 l 1
 13 743 l 1
 435 743 l 1
 435 623 l 1
 244 623 l 2
 231 623 218 618 207 609 c 0
 194 599 183 585 176 567 c 1
 167 551 163 534 163 516 c 0
 163 478 187 451 236 436 c 1
 248 431 270 429 302 429 c 2
 409 429 l 1
 409 315 l 1
 274 315 l 2
 247 315 222 310 198 300 c 0
 176 291 158 276 144 257 c 0
 131 241 125 221 125 198 c 0
 125 175 131 156 144 142 c 0
 159 124 177 112 196 107 c 0
 219 99 241 95 262 95 c 0
 315 95 352 93 371 88 c 0
 404 82 427 68 441 47 c 0
 458 24 466 -5 466 -39 c 0
EndSplineSet
MinimumDistance: x0,-1 
EndChar
StartChar: omicron
Encoding: 959 959
Width: 610
Flags: W
HStem: -37 124<265 281> 433 122<265 281>
VStem: 9 140<235 283> 403 140<235 283>
Fore
543 260 m 0
 543 198 532 145 509 102 c 1
 487 57 455 22 414 -2 c 0
 373 -25 327 -37 276 -37 c 0
 227 -37 183 -26 142 -5 c 0
 100 18 68 52 45 97 c 0
 21 141 9 195 9 260 c 0
 9 357 34 431 84 481 c 0
 134 530 198 555 276 555 c 0
 354 555 418 530 468 481 c 0
 518 431 543 357 543 260 c 0
403 260 m 0
 403 287 400 312 394 335 c 0
 389 354 380 373 367 390 c 0
 357 405 344 415 328 422 c 0
 314 429 297 433 276 433 c 0
 255 433 238 429 224 422 c 0
 208 415 195 405 185 390 c 0
 174 374 165 356 159 335 c 0
 152 309 149 284 149 260 c 0
 149 201 161 157 185 129 c 1
 207 101 237 87 276 87 c 0
 313 87 344 101 367 129 c 0
 391 157 403 201 403 260 c 0
EndSplineSet
MinimumDistance: x0,-1 
EndChar
StartChar: pi
Encoding: 960 960
Width: 721
Flags: W
HStem: 425 120<29 98 242 428 567 629>
VStem: 98 144<-24 424> 428 138<96 425>
Fore
647 -1 m 1
 623 -10 601 -18 582 -23 c 0
 569 -27 556 -29 543 -29 c 0
 497 -29 466 -15 449 12 c 0
 435 34 428 68 428 114 c 2
 428 425 l 1
 242 425 l 1
 242 -24 l 1
 98 -28 l 1
 99 425 l 1
 29 425 l 1
 28 545 l 1
 630 545 l 1
 630 425 l 1
 566 425 l 1
 566 116 l 2
 566 99 567 89 569 86 c 1
 569 87 569 87 570 88 c 0
 570 89 570 89 571 89 c 0
 572 89 572 89 573 89 c 1
 573 88 573 88 574 88 c 0
 575 89 579 92 586 97 c 0
 594 102 604 110 616 119 c 1
 647 -1 l 1
EndSplineSet
MinimumDistance: x12,-1 x14,12 x14,13 
EndChar
StartChar: rho
Encoding: 961 961
Width: 626
Flags: W
HStem: -35 124<288 304> 435 122<288 304>
VStem: 32 138<-224 1 239 287> 426 140<239 287>
Fore
566 270 m 0
 566 201 557 149 540 115 c 0
 525 85 510 61 493 44 c 0
 479 29 456 12 423 -7 c 0
 388 -26 346 -35 297 -35 c 0
 262 -35 229 -28 200 -15 c 0
 191 -11 181 -5 170 2 c 1
 170 -225 l 1
 32 -225 l 1
 32 270 l 2
 32 370 59 443 112 489 c 0
 163 534 225 557 297 557 c 0
 377 557 442 531 492 479 c 0
 541 428 566 358 566 270 c 0
426 264 m 0
 426 322 413 365 388 393 c 0
 364 421 334 435 297 435 c 0
 259 435 229 421 207 394 c 1
 182 367 170 323 170 262 c 0
 170 201 182 157 207 130 c 1
 230 103 260 89 297 89 c 0
 333 89 363 102 388 129 c 1
 413 159 426 204 426 264 c 0
EndSplineSet
MinimumDistance: x0,-1 
EndChar
StartChar: sigma1
Encoding: 962 962
Width: 595
Flags: W
HStem: 433 128<263 285>
VStem: -3 146<266 300> 385 141<299.125 326.586>
Fore
526 299 m 1
 385 299 l 1
 385 350 376 385 357 404 c 0
 336 423 307 433 270 433 c 0
 249 433 229 428 210 418 c 0
 190 407 174 391 162 368 c 0
 149 345 143 313 143 274 c 0
 143 247 147 224 155 204 c 0
 170 169 206 142 264 124 c 0
 274 121 291 118 316 117 c 0
 340 115 357 113 367 112 c 0
 421 105 460 92 483 74 c 0
 511 51 525 17 525 -28 c 0
 525 -47 521 -69 513 -93 c 0
 508 -108 493 -148 467 -214 c 1
 327 -165 l 1
 346 -124 363 -80 378 -34 c 0
 378 -31 372 -30 360 -30 c 0
 351 -29 329 -27 296 -24 c 0
 263 -22 235 -18 210 -12 c 0
 183 -5 149 13 110 42 c 0
 78 64 51 97 28 140 c 0
 7 177 -3 223 -3 276 c 0
 -3 336 9 387 34 430 c 0
 61 475 96 507 137 528 c 0
 179 550 226 561 278 561 c 0
 349 561 408 540 455 498 c 0
 502 455 526 388 526 299 c 1
EndSplineSet
MinimumDistance: x0,-1 
EndChar
StartChar: sigma
Encoding: 963 963
Width: 676
Flags: W
HStem: -37 124<265 281> 419 132<502 614> 433 122<265 281>
VStem: 9 140<235 283> 403 140<235 283>
Fore
615 419 m 1
 501 419 l 1
 529 371 543 318 543 260 c 0
 543 198 532 145 509 102 c 1
 487 57 455 22 414 -2 c 0
 373 -25 327 -37 276 -37 c 0
 227 -37 183 -26 142 -5 c 0
 100 18 68 52 45 97 c 0
 21 141 9 195 9 260 c 0
 9 357 34 431 84 481 c 0
 134 530 198 555 276 555 c 0
 295 555 312 554 328 551 c 1
 615 551 l 1
 615 419 l 1
403 260 m 0
 403 287 400 312 394 335 c 0
 389 354 380 373 367 390 c 0
 357 405 344 415 328 422 c 0
 314 429 297 433 276 433 c 0
 255 433 238 429 224 422 c 0
 208 415 195 405 185 390 c 0
 174 374 165 356 159 335 c 0
 152 309 149 284 149 260 c 0
 149 201 161 157 185 129 c 1
 207 101 237 87 276 87 c 0
 313 87 344 101 367 129 c 0
 391 157 403 201 403 260 c 0
EndSplineSet
MinimumDistance: x2,-1 
EndChar
StartChar: tau
Encoding: 964 964
Width: 592
Flags: W
HStem: -28.7582 133.758<337 346> 425 118<18 181 320 518>
VStem: 17 502<425 542> 181 138<131 425>
Fore
519 425 m 1
 319 425 l 1
 319 152 l 2
 319 131 320 118 321 114 c 0
 322 111 324 109 327 107 c 0
 329 106 335 105 344 105 c 0
 347 105 350 105 352 106 c 0
 357 106 371 109 396 115 c 1
 426 -13 l 1
 395 -20 374 -25 364 -26 c 0
 350 -28 338 -29 328 -29 c 0
 293 -29 265 -23 242 -10 c 0
 218 3 202 20 194 43 c 0
 191 50 187 63 184 82 c 0
 182 95 181 116 181 144 c 2
 181 425 l 1
 17 425 l 1
 17 543 l 1
 519 543 l 1
 519 425 l 1
EndSplineSet
MinimumDistance: x0,-1 x1,18 x1,0 
EndChar
StartChar: upsilon
Encoding: 965 965
Width: 575
Flags: W
HStem: -39 126<239 271> 523 20G<15 153 365 503>
VStem: 15 138<197 542> 365 138<197 542>
Fore
503 198 m 2
 503 157 500 125 494 102 c 0
 489 79 480 57 466 35 c 1
 456 23 433 6 398 -15 c 0
 369 -31 324 -39 262 -39 c 0
 195 -39 148 -31 119 -15 c 1
 85 6 63 22 52 35 c 1
 38 56 29 79 24 102 c 0
 18 125 15 157 15 198 c 2
 15 543 l 1
 153 543 l 1
 153 232 l 2
 153 191 155 160 160 139 c 0
 165 124 170 114 177 110 c 0
 187 103 197 97 206 94 c 0
 219 89 237 87 260 87 c 0
 282 87 299 89 312 94 c 0
 321 97 330 102 340 110 c 0
 347 115 353 124 358 139 c 0
 363 160 365 191 365 232 c 2
 365 543 l 1
 503 543 l 1
 503 198 l 2
EndSplineSet
MinimumDistance: x0,-1 
EndChar
StartChar: phi
Encoding: 966 966
Width: 801
Flags: W
HStem: -225 190<309 310> -225 321<308 312.969 445.031 446> -35 131.095<307 310 446 455> 407 139.258<446 448>
VStem: 21 134<239 271> 308 138<-224 -35> 313 132<97 406> 588 134<239 256>
Fore
588 250 m 0
 588 279 582 305 571 328 c 0
 560 352 544 371 521 385 c 0
 498 400 473 407 445 407 c 1
 445 96 l 1
 477 96 503 103 523 117 c 0
 544 131 560 150 571 174 c 0
 582 195 588 221 588 250 c 0
180 528 m 1
 260 424 l 1
 222 397 196 370 181 345 c 0
 164 314 155 284 155 254 c 0
 155 227 162 200 176 175 c 0
 188 152 207 133 232 117 c 0
 256 103 283 96 313 96 c 1
 313 547 l 1
 421 547 l 2
 485 547 540 533 585 504 c 1
 630 477 664 440 688 393 c 0
 711 348 722 300 722 249 c 0
 722 202 712 156 691 111 c 0
 671 69 640 34 599 5 c 1
 557 -22 508 -35 453 -35 c 2
 446 -35 l 1
 446 -225 l 1
 308 -225 l 1
 308 -35 l 1
 311 -35 l 2
 266 -35 225 -27 188 -12 c 0
 151 3 121 25 96 52 c 0
 72 76 53 107 39 144 c 0
 27 180 21 215 21 250 c 0
 21 289 28 326 41 361 c 0
 53 396 72 429 99 461 c 0
 118 484 145 506 180 528 c 1
EndSplineSet
MinimumDistance: x18,-1 
EndChar
StartChar: chi
Encoding: 967 967
Width: 632
Flags: W
HStem: 429 132<-8 45> 433 128<44.0079 45> 523 20G<440 593>
DStem: 219 161 299 24 -32 -225 132 -225 440 543 593 543 302 287 384 160
Fore
598 -217 m 1
 569 -230 543 -237 522 -237 c 2
 514 -237 l 2
 485 -237 458 -226 433 -205 c 0
 413 -189 394 -165 377 -134 c 1
 299 24 l 1
 132 -225 l 1
 -32 -225 l 1
 219 161 l 1
 77 408 l 2
 69 421 64 428 61 430 c 0
 59 432 53 433 44 433 c 1
 33 430 16 429 -8 429 c 1
 -8 554 l 1
 25 559 42 561 45 561 c 0
 62 562 72 563 73 563 c 0
 100 563 123 557 142 545 c 0
 160 535 177 517 192 491 c 1
 302 287 l 1
 440 543 l 1
 593 543 l 1
 384 160 l 1
 509 -79 l 1
 516 -90 521 -96 524 -99 c 0
 526 -101 531 -102 539 -102 c 0
 542 -102 547 -101 552 -100 c 0
 556 -100 571 -95 598 -84 c 1
 598 -217 l 1
EndSplineSet
MinimumDistance: x20,-1 
EndChar
StartChar: psi
Encoding: 968 968
Width: 722
Flags: W
HStem: 523 20G<17 157 505 645>
VStem: 17 140<213 542> 263 136<-224 -26 99 524> 505 140<214 542>
Fore
645 214 m 2
 645 134 620 73 570 32 c 0
 527 -3 470 -23 399 -26 c 1
 399 -225 l 1
 263 -225 l 1
 263 -26 l 1
 192 -23 135 -3 92 32 c 0
 42 73 17 133 17 214 c 2
 17 543 l 1
 157 543 l 1
 157 242 l 2
 157 205 161 176 170 154 c 0
 178 135 191 121 208 112 c 0
 223 105 242 100 263 98 c 1
 263 525 l 1
 399 525 l 1
 399 98 l 1
 420 100 437 104 450 110 c 0
 467 117 480 131 489 151 c 0
 500 172 505 203 505 242 c 2
 505 543 l 1
 645 543 l 1
 645 214 l 2
EndSplineSet
MinimumDistance: x0,-1 
EndChar
StartChar: omega
Encoding: 969 969
Width: 800
Flags: W
HStem: -34 122<219 228 511 523>
VStem: 11 134<222 254> 303 134<142.008 400> 595 134<222 254>
Fore
729 241 m 0
 729 202 725 167 716 136 c 0
 707 103 694 74 676 49 c 0
 658 24 635 3 608 -12 c 0
 581 -27 550 -34 514 -34 c 0
 475 -34 440 -24 411 -5 c 0
 396 5 382 18 370 34 c 1
 358 18 344 5 329 -5 c 0
 300 -24 265 -34 226 -34 c 0
 189 -34 158 -27 133 -12 c 1
 104 3 81 24 63 49 c 0
 46 74 33 103 24 137 c 0
 15 168 11 203 11 241 c 0
 11 277 17 315 28 355 c 0
 39 394 53 432 72 467 c 0
 92 504 116 533 144 554 c 1
 273 513 l 1
 230 466 201 429 187 402 c 0
 173 377 162 348 154 317 c 0
 148 290 145 263 145 235 c 0
 145 193 152 156 167 125 c 0
 180 100 200 88 228 88 c 0
 249 89 260 90 261 91 c 0
 265 93 272 98 282 107 c 0
 296 120 303 136 303 153 c 2
 303 401 l 1
 437 401 l 1
 437 153 l 2
 437 135 444 120 457 107 c 0
 466 99 474 94 479 91 c 0
 480 90 491 89 511 88 c 0
 540 88 560 100 573 125 c 0
 588 156 595 193 595 235 c 0
 595 263 592 290 586 317 c 0
 579 346 568 374 554 402 c 1
 539 428 511 465 468 512 c 1
 597 555 l 1
 624 532 648 503 668 467 c 0
 687 432 701 394 712 355 c 0
 723 316 729 278 729 241 c 0
EndSplineSet
MinimumDistance: x0,-1 
EndChar
StartChar: iotadieresis
Encoding: 970 970
Width: 372
Flags: W
HStem: -32.9407 136.941<196 206> 525 20G<43 181> 595 150<-47 93 135 275>
VStem: -48 142<596 744> 43 140<123 128 130 544> 134 142<596 744>
Fore
276 595 m 1
 134 595 l 1
 134 745 l 1
 276 745 l 1
 276 595 l 1
94 595 m 1
 -48 595 l 1
 -48 745 l 1
 94 745 l 1
 94 595 l 1
314 -1 m 1
 264 -22 223 -33 192 -33 c 0
 146 -33 110 -19 84 9 c 0
 57 36 43 78 43 133 c 2
 43 545 l 1
 181 545 l 1
 181 150 l 2
 181 145 181 140 181 137 c 0
 181 134 181 131 182 129 c 0
 183 127 183 125 183 123 c 0
 184 116 187 111 194 106 c 0
 195 105 197 104 201 104 c 2
 206 104 l 2
 215 105 235 113 266 130 c 1
 314 -1 l 1
EndSplineSet
MinimumDistance: x0,-1 
EndChar
StartChar: upsilondieresis
Encoding: 971 971
Width: 575
Flags: W
HStem: -39 126<239 282> 523 20G<15 153 365 503> 597 150<100 240 282 422>
VStem: 15 138<197 542> 99 142<598 746> 281 142<598 746> 365 138<197 542>
Fore
423 597 m 1
 281 597 l 1
 281 747 l 1
 423 747 l 1
 423 597 l 1
241 597 m 1
 99 597 l 1
 99 747 l 1
 241 747 l 1
 241 597 l 1
503 198 m 2
 503 157 500 125 494 102 c 0
 489 79 480 57 466 35 c 1
 456 23 433 6 398 -15 c 0
 369 -31 324 -39 262 -39 c 0
 195 -39 148 -31 119 -15 c 1
 85 6 63 22 52 35 c 1
 38 56 29 79 24 102 c 0
 18 125 15 157 15 198 c 2
 15 543 l 1
 153 543 l 1
 153 232 l 2
 153 191 155 160 160 139 c 0
 165 124 170 114 177 110 c 0
 187 103 197 97 206 94 c 0
 219 89 237 87 260 87 c 0
 282 87 299 89 312 94 c 0
 321 97 330 102 340 110 c 0
 347 115 353 124 358 139 c 0
 363 160 365 191 365 232 c 2
 365 543 l 1
 503 543 l 1
 503 198 l 2
EndSplineSet
MinimumDistance: x8,-1 
EndChar
StartChar: omicrontonos
Encoding: 972 972
Width: 610
Flags: W
HStem: -37 124<265 281> 433 122<265 281> 603 186<323 357>
VStem: 9 140<235 283> 403 140<235 283>
Fore
505 789 m 1
 357 603 l 1
 232 603 l 1
 323 789 l 1
 505 789 l 1
543 260 m 0
 543 198 532 145 509 102 c 1
 487 57 455 22 414 -2 c 0
 373 -25 327 -37 276 -37 c 0
 227 -37 183 -26 142 -5 c 0
 100 18 68 52 45 97 c 0
 21 141 9 195 9 260 c 0
 9 357 34 431 84 481 c 0
 134 530 198 555 276 555 c 0
 354 555 418 530 468 481 c 0
 518 431 543 357 543 260 c 0
403 260 m 0
 403 287 400 312 394 335 c 0
 389 354 380 373 367 390 c 0
 357 405 344 415 328 422 c 0
 314 429 297 433 276 433 c 0
 255 433 238 429 224 422 c 0
 208 415 195 405 185 390 c 0
 174 374 165 356 159 335 c 0
 152 309 149 284 149 260 c 0
 149 201 161 157 185 129 c 1
 207 101 237 87 276 87 c 0
 313 87 344 101 367 129 c 0
 391 157 403 201 403 260 c 0
EndSplineSet
MinimumDistance: x4,-1 
EndChar
